<svg width="21" height="20" viewBox="0 0 21 20" fill="none" xmlns="http://www.w3.org/2000/svg">
<path fill-rule="evenodd" clip-rule="evenodd" d="M14.875 5.625C14.875 4.93464 15.4346 4.375 16.125 4.375C16.8154 4.375 17.375 4.93464 17.375 5.625V9.375H18V7.8125C18 7.29473 18.4197 6.875 18.9375 6.875C19.4553 6.875 19.875 7.29473 19.875 7.8125V12.1875C19.875 12.7053 19.4553 13.125 18.9375 13.125C18.4197 13.125 18 12.7053 18 12.1875V10.625H17.375V14.375C17.375 15.0654 16.8154 15.625 16.125 15.625C15.4346 15.625 14.875 15.0654 14.875 14.375V10.625H6.125V14.375C6.125 15.0654 5.56536 15.625 4.875 15.625C4.18464 15.625 3.625 15.0654 3.625 14.375V10.625H3V12.1875C3 12.7053 2.58027 13.125 2.0625 13.125C1.54473 13.125 1.125 12.7053 1.125 12.1875V7.8125C1.125 7.29473 1.54473 6.875 2.0625 6.875C2.58027 6.875 3 7.29473 3 7.8125V9.375H3.625V5.625C3.625 4.93464 4.18464 4.375 4.875 4.375C5.56536 4.375 6.125 4.93464 6.125 5.625V9.375H14.875V5.625Z" fill="currentColor"/>
</svg>
