<?xml version="1.0" encoding="utf-8"?>
<!-- Generator: Adobe Illustrator 21.0.0, SVG Export Plug-In . SVG Version: 6.00 Build 0)  -->
<svg version="1.1" xmlns="http://www.w3.org/2000/svg" xmlns:xlink="http://www.w3.org/1999/xlink" x="0px" y="0px"
	 viewBox="0 0 64 64" style="enable-background:new 0 0 64 64;" xml:space="preserve">
<style type="text/css">
	.st0{fill:#68C7C2;}
	.st1{fill:#1CACAB;}
	.st2{fill:#0B3442;}
	.st3{fill:#002539;}
	.st4{fill:#D22227;}
	.st5{fill:#DD2B26;}
	.st6{fill:#F2F2F2;}
	.st7{fill:#A31C37;}
	.st8{fill:#CCCCCC;}
	.st9{fill:#F99D28;}
	.st10{fill:#FCB216;}
	.st11{fill:#FED767;}
	.st12{fill:#F47D36;}
	.st13{fill:#F78F1E;}
	.st14{fill:#FFCA3E;}
	.st15{fill:#2E599C;}
	.st16{fill:#283996;}
	.st17{fill:#4279BD;}
	.st18{fill:#538AC8;}
	.st19{fill:#CCDDE7;}
	.st20{fill:#ABBAC3;}
	.st21{fill:#F05138;}
	.st22{fill:#3B6BB4;}
	.st23{fill:#E54325;}
	.st24{fill:#FEBF3F;}
	.st25{fill:#E6E6E6;}
	.st26{fill:#FFE8C9;}
	.st27{fill:#999999;}
	.st28{fill:#B3B3B3;}
	.st29{fill:none;stroke:#000000;stroke-linecap:round;stroke-linejoin:round;stroke-miterlimit:10;}
	.st30{fill:#BD8150;}
	.st31{fill:#DFA57A;}
	.st32{fill:#FDCC99;}
	.st33{fill:#FED9B4;}
	.st34{fill:#EE2761;}
	.st35{fill:#EF4E79;}
	.st36{fill:#DB1B51;}
	.st37{fill:#FBB684;}
	.st38{fill:#354E5A;}
	.st39{fill:#55C9E9;}
	.st40{fill:#02BFE2;}
	.st41{fill:#0980B7;}
	.st42{fill:#A36841;}
	.st43{fill:#7EC3EC;}
	.st44{fill:#65A8DC;}
	.st45{fill:#57646E;}
	.st46{fill:#7A8D9D;}
	.st47{fill:#FEE7A3;}
	.st48{fill:#CC2B57;}
	.st49{fill:#F16F8D;}
	.st50{fill:#00969D;}
	.st51{fill:#00A8C7;}
	.st52{fill:#00B08E;}
	.st53{fill:#56BF98;}
	.st54{fill:#8AD5EC;}
</style>
<g id="guides">
</g>
<g id="_x32_5._location_pin">
</g>
<g id="_x32_4._first_aid_kit">
</g>
<g id="_x32_3._medicine">
</g>
<g id="_x32_2._pills">
</g>
<g id="_x32_1._flask">
</g>
<g id="_x32_0._syringe">
</g>
<g id="_x31_9._brain">
</g>
<g id="_x31_8._bandage">
</g>
<g id="_x31_7._bed">
</g>
<g id="_x31_6._blood_test">
</g>
<g id="_x31_5._rx">
</g>
<g id="_x31_4._injury">
</g>
<g id="_x31_3._call">
</g>
<g id="_x31_2._heart">
</g>
<g id="_x31_1._stethoscope">
</g>
<g id="_x31_0._hospital">
</g>
<g id="_x39_._blood_donation">
</g>
<g id="_x38_._charity">
</g>
<g id="_x37_._test_tube">
</g>
<g id="_x36_._expenses">
	<path class="st6" d="M51,22.5v28c0,0.2799683-0.2199707,0.5-0.5,0.5h-37c-0.2800293,0-0.5-0.2200317-0.5-0.5v-28
		c0-1.3800049,1.1199951-2.5,2.5-2.5h33C49.8800049,20,51,21.1199951,51,22.5z"/>
	<path class="st40" d="M58.5,49.6099854l-2,4c-0.0700073,0.1300049-0.1400146,0.2600098-0.2299805,0.3699951
		C55.7999878,54.6199951,55.0599976,55,54.25,55H9.75c-0.960022,0-1.8200073-0.5300293-2.25-1.3900146l-2-4
		c-0.3900146-0.7700195-0.3499756-1.6799927,0.1099854-2.4199829C6.0599976,46.4400024,6.8599854,46,7.7399902,46H27.5
		c0.1699829,0,0.3200073,0.0799561,0.4199829,0.2199707l1.4000244,2.1099854C29.5999756,48.75,30.0700073,49,30.5700073,49
		h2.8599854c0.5,0,0.9700317-0.25,1.25-0.6700439l1.4000244-2.1099854C36.1799927,46.0799561,36.3300171,46,36.5,46h19.7600098
		c0.8800049,0,1.6799927,0.4400024,2.1300049,1.1900024C58.8499756,47.9299927,58.8900146,48.8399658,58.5,49.6099854z"/>
	<path class="st28" d="M43,20v18.5c0,1.9299927-1.5700073,3.5-3.5,3.5h-15c-1.9299927,0-3.5-1.5700073-3.5-3.5V20H43z"/>
	<path class="st25" d="M42,14.5v24c0,0.5299683-0.1599731,1.0199585-0.4400024,1.4199829
		C41.1099854,40.5700073,40.3499756,41,39.5,41h-15c-1.3800049,0-2.5-1.1199951-2.5-2.5v-26c0-1.3800049,1.1199951-2.5,2.5-2.5h13
		c0.2800293,0,0.5,0.2199707,0.5,0.5V14h3.5C41.7800293,14,42,14.2199707,42,14.5z"/>
	<path class="st8" d="M41.5599976,39.9199829C41.1099854,40.5700073,40.3499756,41,39.5,41h-15c-1.3800049,0-2.5-1.1199951-2.5-2.5
		v-26c0-1.3800049,1.1199951-2.5,2.5-2.5H26C26,10,26,38.2799683,41.5599976,39.9199829z"/>
	<path class="st5" d="M34.5,16H32v-2.5c0-0.2763672-0.2236328-0.5-0.5-0.5h-3c-0.2763672,0-0.5,0.2236328-0.5,0.5V16h-2.5
		c-0.2763672,0-0.5,0.2236328-0.5,0.5v3c0,0.2763672,0.2236328,0.5,0.5,0.5H28v2.5c0,0.2763672,0.2236328,0.5,0.5,0.5h3
		c0.2763672,0,0.5-0.2236328,0.5-0.5V20h2.5c0.2763672,0,0.5-0.2236328,0.5-0.5v-3C35,16.2236328,34.7763672,16,34.5,16z"/>
	<path class="st50" d="M37,33h-1c-0.5512695,0-1-0.4487305-1-1s0.4487305-1,1-1h2.5c0.2763672,0,0.5-0.2236328,0.5-0.5
		S38.7763672,30,38.5,30H37v-1.5c0-0.2763672-0.2236328-0.5-0.5-0.5S36,28.2236328,36,28.5V30c-1.1030273,0-2,0.8969727-2,2
		s0.8969727,2,2,2h1c0.5512695,0,1,0.4487305,1,1s-0.4487305,1-1,1h-2.5c-0.2763672,0-0.5,0.2236328-0.5,0.5s0.2236328,0.5,0.5,0.5
		H36v1.5c0,0.2763672,0.2236328,0.5,0.5,0.5s0.5-0.2236328,0.5-0.5V37c1.1030273,0,2-0.8969727,2-2S38.1030273,33,37,33z"/>
	<g>
		<path class="st2" d="M30.5,33h-5c-0.2763672,0-0.5-0.2236328-0.5-0.5s0.2236328-0.5,0.5-0.5h5c0.2763672,0,0.5,0.2236328,0.5,0.5
			S30.7763672,33,30.5,33z"/>
	</g>
	<g>
		<path class="st2" d="M30.5,36h-5c-0.2763672,0-0.5-0.2236328-0.5-0.5s0.2236328-0.5,0.5-0.5h5c0.2763672,0,0.5,0.2236328,0.5,0.5
			S30.7763672,36,30.5,36z"/>
	</g>
	<g>
		<path class="st2" d="M38.5,26h-13c-0.2763672,0-0.5-0.2236328-0.5-0.5s0.2236328-0.5,0.5-0.5h13
			c0.2763672,0,0.5,0.2236328,0.5,0.5S38.7763672,26,38.5,26z"/>
	</g>
	<path class="st45" d="M41.8535156,14.1464844l-4-4c-0.1430664-0.1430664-0.3574219-0.1855469-0.5449219-0.1083984
		C37.121582,10.1152344,37,10.2978516,37,10.5v4c0,0.2763672,0.2236328,0.5,0.5,0.5h4
		c0.2021484,0,0.3847656-0.121582,0.4619141-0.3085938C42.0395508,14.5043945,41.996582,14.2895508,41.8535156,14.1464844z"/>
	<path class="st51" d="M56.2700195,53.9799805C55.7999878,54.6199951,55.0599976,55,54.25,55H9.75
		c-0.960022,0-1.8200073-0.5300293-2.25-1.3900146l-2-4c-0.3900146-0.7700195-0.3499756-1.6799927,0.1099854-2.4199829
		C6.0599976,46.4400024,6.8599854,46,7.7399902,46h3.1099854C13.3699951,48.289978,22.8499756,53.7099609,56.2700195,53.9799805z"/>
	<g>
		<path d="M58.3935547,47.1894531C57.9350586,46.4443359,57.137207,46,56.2597656,46H51V22.5c0-1.378418-1.121582-2.5-2.5-2.5H42
			v-5.5c0-0.0650635-0.0131836-0.1298218-0.0384521-0.190918c-0.0254517-0.0615234-0.0622559-0.1169434-0.1086426-0.163208
			l-3.9987793-3.9987793c-0.0462646-0.0463867-0.1016846-0.0831909-0.163208-0.1086426C37.6298218,10.0131836,37.5650635,10,37.5,10
			h-13c-1.378418,0-2.5,1.121582-2.5,2.5V20h-6.5c-1.378418,0-2.5,1.121582-2.5,2.5v3c0,0.2763672,0.2236328,0.5,0.5,0.5
			s0.5-0.2236328,0.5-0.5v-3c0-0.8271484,0.6728516-1.5,1.5-1.5H22v17.5c0,1.378418,1.121582,2.5,2.5,2.5h15
			c1.378418,0,2.5-1.121582,2.5-2.5v-6c0-0.2763672-0.2236328-0.5-0.5-0.5S41,32.2236328,41,32.5v6
			c0,0.8271484-0.6728516,1.5-1.5,1.5h-15c-0.8271484,0-1.5-0.6728516-1.5-1.5v-26c0-0.8271484,0.6728516-1.5,1.5-1.5H37v3.5
			c0,0.2763672,0.2236328,0.5,0.5,0.5H41v14.5c0,0.2763672,0.2236328,0.5,0.5,0.5s0.5-0.2236328,0.5-0.5V21h6.5
			c0.8271484,0,1.5,0.6728516,1.5,1.5V46H36.5c-0.1669922,0-0.3232422,0.0834961-0.4160156,0.2226563l-1.40625,2.109375
			C34.3989258,48.7504883,33.9321289,49,33.4296875,49h-2.859375c-0.5024414,0-0.9692383-0.2495117-1.2480469-0.6679688
			l-1.40625-2.109375C27.8232422,46.0834961,27.6669922,46,27.5,46H14V29.5c0-0.2763672-0.2236328-0.5-0.5-0.5
			S13,29.2236328,13,29.5V46H7.7402344c-0.8774414,0-1.675293,0.4443359-2.1337891,1.1894531
			c-0.456543,0.7402344-0.4946289,1.6474609-0.1035156,2.4243164l2,4C7.9301758,54.46875,8.7895508,55,9.7460938,55H48.5
			c0.2763672,0,0.5-0.2236328,0.5-0.5S48.7763672,54,48.5,54H9.7460938c-0.5751953,0-1.0917969-0.3193359-1.3486328-0.8334961
			l-2.0004883-4.0014648c-0.2348633-0.4658203-0.2119141-1.0083008,0.0605469-1.4511719
			C6.7329102,47.2666016,7.2124023,47,7.7402344,47h19.4921875l1.2578125,1.8867188
			C28.9550781,49.5839844,29.7324219,50,30.5703125,50h2.859375c0.8378906,0,1.6152344-0.4160156,2.0800781-1.1132813L36.7675781,47
			h19.4921875c0.527832,0,1.0073242,0.2666016,1.2827148,0.7138672c0.2724609,0.4428711,0.2954102,0.9853516,0.0600586,1.4526367
			l-2,4C55.3457031,53.6806641,54.8291016,54,54.2539063,54H52.5c-0.2763672,0-0.5,0.2236328-0.5,0.5s0.2236328,0.5,0.5,0.5
			h1.7539063c0.956543,0,1.815918-0.53125,2.2431641-1.3862305l1.9995117-3.9985352
			C58.8881836,48.8369141,58.8500977,47.9296875,58.3935547,47.1894531z M38,11.7070313L40.2929688,14H38V11.7070313z"/>
		<path d="M31.5,13h-3c-0.2763672,0-0.5,0.2236328-0.5,0.5V16h-2.5c-0.2763672,0-0.5,0.2236328-0.5,0.5v3
			c0,0.2763672,0.2236328,0.5,0.5,0.5H28v2.5c0,0.2763672,0.2236328,0.5,0.5,0.5h3c0.2763672,0,0.5-0.2236328,0.5-0.5V20h2.5
			c0.2763672,0,0.5-0.2236328,0.5-0.5v-3c0-0.2763672-0.2236328-0.5-0.5-0.5H32v-2.5C32,13.2236328,31.7763672,13,31.5,13z M34,17v2
			h-2.5c-0.2763672,0-0.5,0.2236328-0.5,0.5V22h-2v-2.5c0-0.2763672-0.2236328-0.5-0.5-0.5H26v-2h2.5
			c0.2763672,0,0.5-0.2236328,0.5-0.5V14h2v2.5c0,0.2763672,0.2236328,0.5,0.5,0.5H34z"/>
		<path d="M36,31h2.5c0.2763672,0,0.5-0.2236328,0.5-0.5S38.7763672,30,38.5,30H37v-1.5c0-0.2763672-0.2236328-0.5-0.5-0.5
			S36,28.2236328,36,28.5V30c-1.1030273,0-2,0.8969727-2,2s0.8969727,2,2,2h1c0.5512695,0,1,0.4487305,1,1s-0.4487305,1-1,1h-2.5
			c-0.2763672,0-0.5,0.2236328-0.5,0.5s0.2236328,0.5,0.5,0.5H36v1.5c0,0.2763672,0.2236328,0.5,0.5,0.5s0.5-0.2236328,0.5-0.5V37
			c1.1030273,0,2-0.8969727,2-2s-0.8969727-2-2-2h-1c-0.5512695,0-1-0.4487305-1-1S35.4487305,31,36,31z"/>
		<path d="M30.5,32h-5c-0.2763672,0-0.5,0.2236328-0.5,0.5s0.2236328,0.5,0.5,0.5h5c0.2763672,0,0.5-0.2236328,0.5-0.5
			S30.7763672,32,30.5,32z"/>
		<path d="M30.5,35h-5c-0.2763672,0-0.5,0.2236328-0.5,0.5s0.2236328,0.5,0.5,0.5h5c0.2763672,0,0.5-0.2236328,0.5-0.5
			S30.7763672,35,30.5,35z"/>
		<path d="M38.5,25h-13c-0.2763672,0-0.5,0.2236328-0.5,0.5s0.2236328,0.5,0.5,0.5h13c0.2763672,0,0.5-0.2236328,0.5-0.5
			S38.7763672,25,38.5,25z"/>
	</g>
</g>
<g id="_x35_._folder">
</g>
<g id="_x34_._insurance">
</g>
<g id="_x33_._dna">
</g>
<g id="_x32_._health_report">
</g>
<g id="_x31_._ambulance">
</g>
</svg>
