<svg width="73" height="14" viewBox="0 0 73 14" fill="none" xmlns="http://www.w3.org/2000/svg">
<g clip-path="url(#clip0_1078_11451)">
<mask id="mask0_1078_11451" style="mask-type:alpha" maskUnits="userSpaceOnUse" x="0" y="0" width="73" height="14">
<path d="M0.740936 0H72.7826V14H0.740936V0Z" fill="white"/>
</mask>
<g mask="url(#mask0_1078_11451)">
<path d="M10.8034 8.8924V8.55274V8.08367V5.87581V5.40674L11.1649 4.6546L12.9719 3.22313C13.2129 3.02095 13.5743 3.19079 13.5743 3.5062V10.3481C13.5743 10.6635 13.2048 10.8334 12.9639 10.6312L10.8034 8.8924Z" fill="#00AC47"/>
<path d="M4.82426 2.1875L1.90759 5.10417H4.82426V2.1875Z" fill="#EA4335"/>
<path d="M4.82426 5.10425H1.90759V8.89592H4.82426V5.10425Z" fill="#2684FC"/>
<path d="M1.90759 8.89575V10.8402C1.90759 11.3749 2.34509 11.8124 2.87982 11.8124H4.82426V8.89575H1.90759Z" fill="#0066DA"/>
<path d="M11.168 3.14857C11.168 2.61998 10.7398 2.1875 10.2164 2.1875H8.31331H4.82425V5.10417H8.39717V7L11.168 6.91273V3.14857Z" fill="#FFBA00"/>
<path d="M8.39717 8.89583H4.82425V11.8125H8.31331H10.2164C10.7398 11.8125 11.168 11.3806 11.168 10.8528V7H8.39717V8.89583Z" fill="#00AC47"/>
<path d="M11.168 4.66675V9.18758L8.39719 7.00008L11.168 4.66675Z" fill="#00832D"/>
<path d="M52.0886 10.5296H51.2299V3.84692H52.0886L54.4126 7.91626H54.4499L56.7739 3.84692H57.6326V10.5296H56.7739V6.56292L56.8112 5.44292H56.7739L54.6832 9.11092H54.1792L52.0886 5.44292H52.0512L52.0886 6.56292V10.5296Z" fill="white"/>
<path d="M60.8813 10.6791C60.2093 10.6791 59.6556 10.4489 59.22 9.98846C58.7843 9.52802 58.5666 8.94623 58.5666 8.24313C58.5666 7.54623 58.7782 6.96757 59.2013 6.50713C59.6243 6.04046 60.1657 5.80713 60.8253 5.80713C61.5036 5.80713 62.0417 6.02802 62.44 6.4698C62.8443 6.90536 63.0466 7.51824 63.0466 8.30846L63.0373 8.4018H59.444C59.4563 8.8498 59.6057 9.21069 59.892 9.48446C60.1782 9.75824 60.5203 9.89513 60.9186 9.89513C61.4662 9.89513 61.8956 9.62136 62.2066 9.0738L62.972 9.44713C62.7666 9.8329 62.4803 10.1347 62.1133 10.3525C61.7523 10.5702 61.3417 10.6791 60.8813 10.6791ZM59.5093 7.69246H62.132C62.107 7.37513 61.9763 7.1138 61.74 6.90846C61.5097 6.6969 61.1986 6.59113 60.8066 6.59113C60.483 6.59113 60.203 6.69069 59.9666 6.8898C59.7363 7.0889 59.584 7.35646 59.5093 7.69246Z" fill="white"/>
<path d="M65.9308 10.6791C65.2588 10.6791 64.705 10.4489 64.2694 9.98846C63.8338 9.52802 63.6161 8.94623 63.6161 8.24313C63.6161 7.54623 63.8277 6.96757 64.2508 6.50713C64.6738 6.04046 65.2151 5.80713 65.8748 5.80713C66.553 5.80713 67.0912 6.02802 67.4894 6.4698C67.8938 6.90536 68.0961 7.51824 68.0961 8.30846L68.0868 8.4018H64.4934C64.5058 8.8498 64.6551 9.21069 64.9414 9.48446C65.2277 9.75824 65.5698 9.89513 65.9681 9.89513C66.5157 9.89513 66.945 9.62136 67.2561 9.0738L68.0214 9.44713C67.8161 9.8329 67.5298 10.1347 67.1628 10.3525C66.8018 10.5702 66.3911 10.6791 65.9308 10.6791ZM64.5588 7.69246H67.1814C67.1565 7.37513 67.0258 7.1138 66.7894 6.90846C66.5591 6.6969 66.2481 6.59113 65.8561 6.59113C65.5325 6.59113 65.2525 6.69069 65.0161 6.8898C64.7858 7.0889 64.6334 7.35646 64.5588 7.69246Z" fill="white"/>
<path d="M70.5553 10.6044C70.182 10.6044 69.8709 10.4893 69.622 10.2591C69.3793 10.0288 69.2549 9.7084 69.2486 9.29773V6.7404H68.446V5.9564H69.2486V4.5564H70.1073V5.9564H71.2273V6.7404H70.1073V9.01773C70.1073 9.32262 70.1663 9.53106 70.2846 9.64306C70.4029 9.74884 70.5366 9.80173 70.686 9.80173C70.7543 9.80173 70.8197 9.7955 70.882 9.78306C70.9504 9.7644 71.0126 9.74262 71.0686 9.71773L71.3393 10.4831C71.1153 10.564 70.854 10.6044 70.5553 10.6044Z" fill="white"/>
<path d="M22.919 7.69813V6.67796H26.3337C26.3685 6.85774 26.3891 7.07173 26.3891 7.30341C26.3891 8.06858 26.1795 9.0158 25.5058 9.68994C24.8499 10.3731 24.0123 10.7374 22.9013 10.7374C20.8432 10.7374 19.113 9.0613 19.113 7.00273C19.113 4.94414 20.8432 3.26807 22.9013 3.26807C24.0395 3.26807 24.8499 3.71449 25.4603 4.29745L24.7407 5.01712C24.3035 4.60717 23.7117 4.28842 22.9013 4.28842C21.3988 4.28842 20.224 5.49984 20.224 7.00292C20.224 8.50599 21.3988 9.7174 22.9013 9.7174C23.8758 9.7174 24.4313 9.32569 24.7862 8.97047C25.0757 8.68106 25.2662 8.26585 25.3402 7.69832L22.919 7.69813Z" fill="white"/>
<path d="M31.5926 8.33276C31.5926 9.71736 30.5089 10.7375 29.1793 10.7375C27.8497 10.7375 26.7661 9.71736 26.7661 8.33276C26.7661 6.93913 27.8497 5.92798 29.1793 5.92798C30.509 5.92798 31.5926 6.93894 31.5926 8.33276ZM30.5363 8.33276C30.5363 7.46735 29.908 6.87537 29.1795 6.87537C28.451 6.87537 27.8225 7.46735 27.8225 8.33276C27.8225 9.18894 28.4507 9.79014 29.1795 9.79014C29.908 9.79014 30.5363 9.18894 30.5363 8.33276Z" fill="white"/>
<path d="M36.857 8.33276C36.857 9.71736 35.7733 10.7375 34.4437 10.7375C33.1142 10.7375 32.0305 9.71736 32.0305 8.33276C32.0305 6.93913 33.1142 5.92798 34.4437 5.92798C35.7734 5.92798 36.857 6.93894 36.857 8.33276ZM35.8007 8.33276C35.8007 7.46735 35.1725 6.87537 34.4439 6.87537C33.7154 6.87537 33.0869 7.46735 33.0869 8.33276C33.0869 9.18894 33.7153 9.79014 34.4439 9.79014C35.1725 9.79014 35.8007 9.18894 35.8007 8.33276Z" fill="white"/>
<path d="M41.9031 6.07348V10.3911C41.9031 12.1674 40.8559 12.8961 39.6173 12.8961C38.4517 12.8961 37.7507 12.1127 37.4864 11.4752L38.4062 11.0925C38.5701 11.4842 38.9707 11.9487 39.6173 11.9487C40.4096 11.9487 40.9014 11.4568 40.9014 10.5368V10.1906H40.8649C40.6281 10.4821 40.1728 10.7371 39.5991 10.7371C38.397 10.7371 37.2951 9.68965 37.2951 8.34154C37.2951 6.98419 38.397 5.92773 39.5991 5.92773C40.1728 5.92773 40.6281 6.18272 40.8649 6.46517H40.9014V6.07348H41.9031ZM40.9742 8.34173C40.9742 7.49455 40.4095 6.87513 39.6901 6.87513C38.9617 6.87513 38.3513 7.49455 38.3513 8.34173C38.3513 9.17967 38.9615 9.79007 39.6901 9.79007C40.4096 9.79007 40.9742 9.17967 40.9742 8.34173Z" fill="white"/>
<path d="M43.6922 3.54688V10.5918H42.6359V3.54688H43.6922Z" fill="white"/>
<path d="M47.7715 9.12514L48.591 9.67161C48.3268 10.0633 47.6895 10.7373 46.5876 10.7373C45.2216 10.7373 44.2016 9.68064 44.2016 8.33251C44.2016 6.9024 45.2306 5.92773 46.469 5.92773C47.7168 5.92773 48.3268 6.92064 48.5273 7.45808L48.6365 7.73131L45.4218 9.0612C45.6678 9.54392 46.0503 9.7899 46.5876 9.7899C47.1248 9.79028 47.4983 9.52606 47.7715 9.12514ZM45.2488 8.25993L47.3978 7.36726C47.2794 7.06675 46.9243 6.85726 46.5053 6.85726C45.9684 6.85707 45.2216 7.33077 45.2488 8.25993Z" fill="white"/>
</g>
</g>
<defs>
<clipPath id="clip0_1078_11451">
<rect width="72.0417" height="14" fill="white" transform="translate(0.740936)"/>
</clipPath>
</defs>
</svg>
