<svg width="21" height="20" viewBox="0 0 21 20" fill="none" xmlns="http://www.w3.org/2000/svg">
<path fill-rule="evenodd" clip-rule="evenodd" d="M11.3661 1.58771L13.625 3.75007V2.49981C13.625 2.15463 13.9048 1.87481 14.25 1.87481H16.125C16.4702 1.87481 16.75 2.15463 16.75 2.49981V6.74148L19.6822 9.54832C19.9315 9.78701 19.9402 10.1826 19.7015 10.432C19.4628 10.6813 19.0672 10.69 18.8178 10.4513L18 9.66844V17.4998C18 17.8313 17.8683 18.1493 17.6339 18.3837C17.3995 18.6181 17.0815 18.7498 16.75 18.7498H13C12.6548 18.7498 12.375 18.47 12.375 18.1248V12.8123C12.375 12.7294 12.3421 12.6499 12.2835 12.5913C12.2249 12.5327 12.1454 12.4998 12.0625 12.4998H8.9375C8.85462 12.4998 8.77514 12.5327 8.71653 12.5913C8.65792 12.6499 8.625 12.7294 8.625 12.8123V18.1248C8.625 18.47 8.34518 18.7498 8 18.7498H4.25C3.91848 18.7498 3.60054 18.6181 3.36612 18.3837C3.1317 18.1493 3 17.8313 3 17.4998V9.66844L2.18219 10.4513C1.93284 10.69 1.5372 10.6813 1.29851 10.432C1.05982 10.1826 1.06847 9.78701 1.31781 9.54832L9.63445 1.5872C9.8894 1.32872 10.2368 1.25001 10.5024 1.25049C10.7669 1.25096 11.1131 1.33032 11.3661 1.58771ZM4.25 8.47187V17.4998H7.375V12.8123C7.375 12.3979 7.53962 12.0005 7.83265 11.7075C8.12567 11.4144 8.5231 11.2498 8.9375 11.2498H12.0625C12.4769 11.2498 12.8743 11.4144 13.1674 11.7075C13.4604 12.0005 13.625 12.3979 13.625 12.8123V17.4998H16.75V8.47187L10.5125 2.50103C10.5087 2.5007 10.5046 2.5005 10.5002 2.50049C10.4957 2.50048 10.4914 2.50068 10.4875 2.50102L4.25 8.47187ZM15.5 5.54491V3.12481H14.875V4.94663L15.5 5.54491Z" fill="currentColor"/>
</svg>
