<svg width="101" height="100" viewBox="0 0 101 100" fill="none" xmlns="http://www.w3.org/2000/svg">
<g clip-path="url(#clip0_3287_8063)">
<path d="M34.875 50H28.625C26.9674 50 25.3777 49.3415 24.2056 48.1694C23.0335 46.9973 22.375 45.4076 22.375 43.75V25C22.375 23.3424 23.0335 21.7527 24.2056 20.5806C25.3777 19.4085 26.9674 18.75 28.625 18.75H34.875C36.5326 18.75 38.1223 19.4085 39.2944 20.5806C40.4665 21.7527 41.125 23.3424 41.125 25V43.75C41.125 45.4076 40.4665 46.9973 39.2944 48.1694C38.1223 49.3415 36.5326 50 34.875 50ZM28.625 25V43.75H34.875V25H28.625Z" fill="#EF1686"/>
<path d="M72.375 50H66.125C64.4674 50 62.8777 49.3415 61.7056 48.1694C60.5335 46.9973 59.875 45.4076 59.875 43.75V25C59.875 23.3424 60.5335 21.7527 61.7056 20.5806C62.8777 19.4085 64.4674 18.75 66.125 18.75H72.375C74.0326 18.75 75.6223 19.4085 76.7944 20.5806C77.9665 21.7527 78.625 23.3424 78.625 25V43.75C78.625 45.4076 77.9665 46.9973 76.7944 48.1694C75.6223 49.3415 74.0326 50 72.375 50ZM66.125 25V43.75H72.375V25H66.125Z" fill="#EF1686"/>
<path d="M63 37.5H38C37.1712 37.5 36.3763 37.1708 35.7903 36.5847C35.2042 35.9987 34.875 35.2038 34.875 34.375C34.875 33.5462 35.2042 32.7513 35.7903 32.1653C36.3763 31.5792 37.1712 31.25 38 31.25H63C63.8288 31.25 64.6237 31.5792 65.2097 32.1653C65.7958 32.7513 66.125 33.5462 66.125 34.375C66.125 35.2038 65.7958 35.9987 65.2097 36.5847C64.6237 37.1708 63.8288 37.5 63 37.5Z" fill="#EF1686"/>
<path d="M25.5 37.5H19.25C18.4212 37.5 17.6263 37.1708 17.0403 36.5847C16.4542 35.9987 16.125 35.2038 16.125 34.375C16.125 33.5462 16.4542 32.7513 17.0403 32.1653C17.6263 31.5792 18.4212 31.25 19.25 31.25H25.5C26.3288 31.25 27.1237 31.5792 27.7097 32.1653C28.2958 32.7513 28.625 33.5462 28.625 34.375C28.625 35.2038 28.2958 35.9987 27.7097 36.5847C27.1237 37.1708 26.3288 37.5 25.5 37.5Z" fill="#EF1686"/>
<path d="M81.75 37.5H75.5C74.6712 37.5 73.8763 37.1708 73.2903 36.5847C72.7042 35.9987 72.375 35.2038 72.375 34.375C72.375 33.5462 72.7042 32.7513 73.2903 32.1653C73.8763 31.5792 74.6712 31.25 75.5 31.25H81.75C82.5788 31.25 83.3737 31.5792 83.9597 32.1653C84.5458 32.7513 84.875 33.5462 84.875 34.375C84.875 35.2038 84.5458 35.9987 83.9597 36.5847C83.3737 37.1708 82.5788 37.5 81.75 37.5Z" fill="#EF1686"/>
<path d="M97.375 56.25C98.2038 56.25 98.9987 55.9208 99.5847 55.3347C100.171 54.7487 100.5 53.9538 100.5 53.125V9.375C100.5 6.8886 99.5123 4.50403 97.7541 2.74587C95.996 0.98772 93.6114 0 91.125 0L9.875 0C7.3886 0 5.00403 0.98772 3.24587 2.74587C1.48772 4.50403 0.5 6.8886 0.5 9.375L0.5 71.875C0.5 74.3614 1.48772 76.746 3.24587 78.5041C5.00403 80.2623 7.3886 81.25 9.875 81.25H34.5938C33.7423 86.1469 31.1715 90.5793 27.3438 93.75H22.375C21.5462 93.75 20.7513 94.0792 20.1653 94.6653C19.5792 95.2513 19.25 96.0462 19.25 96.875C19.25 97.7038 19.5792 98.4987 20.1653 99.0847C20.7513 99.6708 21.5462 100 22.375 100H79.25C80.0788 100 80.8737 99.6708 81.4597 99.0847C82.0458 98.4987 82.375 97.7038 82.375 96.875C82.375 96.0462 82.0458 95.2513 81.4597 94.6653C80.8737 94.0792 80.0788 93.75 79.25 93.75H73.6562C69.8199 90.5866 67.2472 86.1507 66.4062 81.25H91.125C93.6114 81.25 95.996 80.2623 97.7541 78.5041C99.5123 76.746 100.5 74.3614 100.5 71.875V65.625C100.5 64.7962 100.171 64.0013 99.5847 63.4153C98.9987 62.8292 98.2038 62.5 97.375 62.5H6.75V9.375C6.75 8.5462 7.07924 7.75134 7.66529 7.16529C8.25134 6.57924 9.0462 6.25 9.875 6.25H91.125C91.9538 6.25 92.7487 6.57924 93.3347 7.16529C93.9208 7.75134 94.25 8.5462 94.25 9.375V53.125C94.25 53.9538 94.5792 54.7487 95.1653 55.3347C95.7513 55.9208 96.5462 56.25 97.375 56.25ZM65.1562 93.75H35.8438C38.6033 90.1053 40.3401 85.7901 40.875 81.25H60.125C60.6599 85.7901 62.3968 90.1053 65.1562 93.75ZM94.25 68.75V71.875C94.25 72.7038 93.9208 73.4987 93.3347 74.0847C92.7487 74.6708 91.9538 75 91.125 75H9.875C9.0462 75 8.25134 74.6708 7.66529 74.0847C7.07924 73.4987 6.75 72.7038 6.75 71.875V68.75H94.25Z" fill="black"/>
</g>
<defs>
<clipPath id="clip0_3287_8063">
<rect width="100" height="100" fill="white" transform="translate(0.5)"/>
</clipPath>
</defs>
</svg>
