<svg width="101" height="100" viewBox="0 0 101 100" fill="none" xmlns="http://www.w3.org/2000/svg">
<g clip-path="url(#clip0_3287_10274)">
<path d="M25.5001 59.3751C24.8794 59.3787 24.2717 59.1974 23.7544 58.8543C23.2372 58.5111 22.8338 58.0217 22.5958 57.4485C22.3578 56.8752 22.2959 56.244 22.418 55.6355C22.5401 55.0269 22.8406 54.4684 23.2814 54.0313L54.5314 22.7813C55.1198 22.1929 55.9179 21.8623 56.7501 21.8623C57.5823 21.8623 58.3804 22.1929 58.9689 22.7813C59.5573 23.3698 59.8879 24.1679 59.8879 25.0001C59.8879 25.8323 59.5573 26.6304 58.9689 27.2188L27.7189 58.4688C27.4269 58.7585 27.0806 58.9876 26.6998 59.1431C26.3191 59.2986 25.9114 59.3775 25.5001 59.3751Z" fill="#EF1686"/>
<path d="M34.8751 68.7501C34.2544 68.7537 33.6467 68.5724 33.1294 68.2293C32.6122 67.8861 32.2088 67.3967 31.9708 66.8235C31.7328 66.2502 31.6709 65.619 31.793 65.0105C31.9151 64.4019 32.2156 63.8434 32.6564 63.4063L63.9064 32.1563C64.4948 31.5679 65.2929 31.2373 66.1251 31.2373C66.9573 31.2373 67.7554 31.5679 68.3439 32.1563C68.9323 32.7448 69.2629 33.5429 69.2629 34.3751C69.2629 35.2073 68.9323 36.0054 68.3439 36.5938L37.0939 67.8438C36.8019 68.1335 36.4556 68.3626 36.0748 68.5181C35.6941 68.6736 35.2864 68.7525 34.8751 68.7501Z" fill="#EF1686"/>
<path d="M44.2501 78.1251C43.6294 78.1287 43.0217 77.9474 42.5044 77.6043C41.9872 77.2611 41.5838 76.7717 41.3458 76.1985C41.1078 75.6252 41.0459 74.994 41.168 74.3855C41.2901 73.7769 41.5906 73.2184 42.0314 72.7813L73.2814 41.5313C73.8698 40.9429 74.6679 40.6123 75.5001 40.6123C76.3323 40.6123 77.1304 40.9429 77.7189 41.5313C78.3073 42.1198 78.6379 42.9179 78.6379 43.7501C78.6379 44.5823 78.3073 45.3804 77.7189 45.9688L46.4689 77.2188C46.1769 77.5085 45.8306 77.7376 45.4498 77.8931C45.0691 78.0486 44.6614 78.1275 44.2501 78.1251Z" fill="#EF1686"/>
<path d="M50.5 86.75C47.125 73.25 47.3751 73.625 46.5626 72.7813C26.0938 52.4063 27.4376 53.5313 26.2501 53.125L13.7501 50C13.2046 49.8381 12.6252 49.8282 12.0745 49.9714C11.5238 50.1146 11.0226 50.4054 10.6251 50.8125L1.25005 60.1875C0.957152 60.478 0.72467 60.8237 0.566018 61.2045C0.407366 61.5853 0.325684 61.9937 0.325684 62.4063C0.325684 62.8188 0.407366 63.2273 0.566018 63.6081C0.72467 63.9889 0.957152 64.3345 1.25005 64.625L6.87505 70.2188L6.75005 70.5938C5.58598 71.7648 4.9326 73.3489 4.9326 75C4.9326 76.6512 5.58598 78.2353 6.75005 79.4063L21.0938 93.75C22.2648 94.9141 23.8489 95.5675 25.5001 95.5675C27.1512 95.5675 28.7353 94.9141 29.9063 93.75L30.1876 93.4688L35.7813 99.0938C36.0718 99.3867 36.4174 99.6192 36.7983 99.7778C37.1791 99.9365 37.5875 100.018 38.0001 100.018C38.4126 100.018 38.821 99.9365 39.2019 99.7778C39.5827 99.6192 39.9283 99.3867 40.2188 99.0938L49.5938 89.7188C49.9904 89.3458 50.2826 88.8756 50.4416 88.3549C50.6005 87.8342 50.6207 87.2809 50.5 86.75ZM11.1563 75L16.1251 70.0313L30.4688 84.375L25.5001 89.3438L11.1563 75ZM38.0001 92.4688L34.5938 89.0625L34.8751 88.7813C36.0391 87.6103 36.6925 86.0262 36.6925 84.375C36.6925 82.7239 36.0391 81.1398 34.8751 79.9688L20.5313 65.625C19.3603 64.461 17.7762 63.8076 16.1251 63.8076C14.4739 63.8076 12.8898 64.461 11.7188 65.625L11.4376 65.9063L8.0313 62.5L13.9688 56.5938L23.9063 59.0625L41.4376 76.5938L43.9063 86.5313L38.0001 92.4688Z" fill="black"/>
<path d="M99.5938 35.2813L93.9688 29.6876L94.25 29.4063C95.4141 28.2353 96.0675 26.6512 96.0675 25.0001C96.0675 23.3489 95.4141 21.7648 94.25 20.5938L79.9063 6.25005C78.7353 5.08599 77.1512 4.4326 75.5 4.4326C73.8489 4.4326 72.2648 5.08599 71.0938 6.25005L70.8125 6.5313L65.2188 0.906303C64.9283 0.613402 64.5826 0.38092 64.2018 0.222268C63.821 0.0636156 63.4126 -0.0180664 63 -0.0180664C62.5875 -0.0180664 62.179 0.0636156 61.7982 0.222268C61.4174 0.38092 61.0718 0.613402 60.7813 0.906303L51.4063 10.2813C50.9992 10.6789 50.7083 11.18 50.5652 11.7307C50.422 12.2814 50.4319 12.8608 50.5938 13.4063C53.9688 26.9063 53.7188 26.5313 54.5313 27.3751C74.9063 47.7501 73.5625 46.6251 74.75 46.9376C79.1085 48.1954 83.5316 49.2177 88 50.0001C88.4113 50.0024 88.819 49.9236 89.1997 49.7681C89.5805 49.6126 89.9268 49.3834 90.2188 49.0938L99.5938 39.7188C99.8867 39.4283 100.119 39.0827 100.278 38.7019C100.436 38.321 100.518 37.9126 100.518 37.5001C100.518 37.0875 100.436 36.6791 100.278 36.2983C100.119 35.9174 99.8867 35.5718 99.5938 35.2813ZM89.8438 25.0001L84.875 29.9688L70.5313 15.6251L75.5 10.6563L89.8438 25.0001ZM87.0313 43.4063L77.0938 40.9376L59.5625 23.4063L57.0938 13.4688L63 7.5313L66.4063 10.9376L66.125 11.2188C64.961 12.3898 64.3076 13.9739 64.3076 15.6251C64.3076 17.2762 64.961 18.8603 66.125 20.0313L80.4688 34.3751C81.6398 35.5391 83.2239 36.1925 84.875 36.1925C86.5262 36.1925 88.1103 35.5391 89.2813 34.3751L89.5625 34.0938L92.9688 37.5001L87.0313 43.4063Z" fill="black"/>
</g>
<defs>
<clipPath id="clip0_3287_10274">
<rect width="100" height="100" fill="white" transform="translate(0.5)"/>
</clipPath>
</defs>
</svg>
