<svg width="101" height="100" viewBox="0 0 101 100" fill="none" xmlns="http://www.w3.org/2000/svg">
<g clip-path="url(#clip0_3281_2757)">
<path d="M63 90.625H16.125C15.2962 90.625 14.5013 90.2958 13.9153 89.7097C13.3292 89.1237 13 88.3288 13 87.5C13 86.6712 13.3292 85.8763 13.9153 85.2903C14.5013 84.7042 15.2962 84.375 16.125 84.375H63C63.8288 84.375 64.6237 84.7042 65.2097 85.2903C65.7958 85.8763 66.125 86.6712 66.125 87.5C66.125 88.3288 65.7958 89.1237 65.2097 89.7097C64.6237 90.2958 63.8288 90.625 63 90.625Z" fill="black"/>
<path d="M16.125 90.625C11.981 90.625 8.00671 88.9788 5.07646 86.0485C2.1462 83.1183 0.5 79.144 0.5 75C0.5 74.1712 0.82924 73.3763 1.41529 72.7903C2.00134 72.2042 2.7962 71.875 3.625 71.875C4.4538 71.875 5.24866 72.2042 5.83471 72.7903C6.42076 73.3763 6.75 74.1712 6.75 75C6.75 77.4864 7.73772 79.871 9.49587 81.6291C11.254 83.3873 13.6386 84.375 16.125 84.375C16.9538 84.375 17.7487 84.7042 18.3347 85.2903C18.9208 85.8763 19.25 86.6712 19.25 87.5C19.25 88.3288 18.9208 89.1237 18.3347 89.7097C17.7487 90.2958 16.9538 90.625 16.125 90.625Z" fill="black"/>
<path d="M91.125 21.8751H31.4375C30.6664 18.0778 28.5119 14.7024 25.3921 12.4042C22.2723 10.1061 18.4099 9.0491 14.5547 9.43852C10.6995 9.82793 7.12646 11.6359 4.5293 14.5116C1.93214 17.3872 0.496114 21.1253 0.500008 25.0001V75.0001C0.500008 75.8289 0.829248 76.6238 1.4153 77.2098C2.00135 77.7959 2.79621 78.1251 3.62501 78.1251C4.45381 78.1251 5.24867 77.7959 5.83472 77.2098C6.42077 76.6238 6.75001 75.8289 6.75001 75.0001C6.75001 72.5137 7.73773 70.1291 9.49588 68.371C11.254 66.6128 13.6386 65.6251 16.125 65.6251C18.6114 65.6251 20.996 66.6128 22.7541 68.371C24.5123 70.1291 25.5 72.5137 25.5 75.0001C25.5 75.8289 25.8293 76.6238 26.4153 77.2098C27.0014 77.7959 27.7962 78.1251 28.625 78.1251C29.4538 78.1251 30.2487 77.7959 30.8347 77.2098C31.4208 76.6238 31.75 75.8289 31.75 75.0001V28.1251H91.125C91.9538 28.1251 92.7487 28.4544 93.3347 29.0404C93.9208 29.6265 94.25 30.4213 94.25 31.2501V81.2501C94.25 82.0789 93.9208 82.8738 93.3347 83.4598C92.7487 84.0459 91.9538 84.3751 91.125 84.3751H75.5C74.6712 84.3751 73.8763 84.7044 73.2903 85.2904C72.7042 85.8765 72.375 86.6713 72.375 87.5001C72.375 88.3289 72.7042 89.1238 73.2903 89.7098C73.8763 90.2959 74.6712 90.6251 75.5 90.6251H91.125C93.6114 90.6251 95.996 89.6374 97.7541 87.8792C99.5123 86.1211 100.5 83.7365 100.5 81.2501V31.2501C100.5 28.7637 99.5123 26.3791 97.7541 24.621C95.996 22.8628 93.6114 21.8751 91.125 21.8751ZM6.75001 62.5001V25.0001C6.75001 22.5137 7.73773 20.1291 9.49588 18.371C11.254 16.6128 13.6386 15.6251 16.125 15.6251C18.6114 15.6251 20.996 16.6128 22.7541 18.371C24.5123 20.1291 25.5 22.5137 25.5 25.0001V62.5001C22.8188 60.4171 19.5202 59.2864 16.125 59.2864C12.7298 59.2864 9.43122 60.4171 6.75001 62.5001Z" fill="black"/>
<path d="M44.25 40.625C43.6319 40.625 43.0277 40.4417 42.5138 40.0983C41.9999 39.755 41.5994 39.2669 41.3629 38.6959C41.1264 38.1249 41.0645 37.4965 41.185 36.8903C41.3056 36.2842 41.6033 35.7273 42.0403 35.2903C42.4773 34.8533 43.0342 34.5556 43.6403 34.435C44.2465 34.3145 44.8749 34.3764 45.4459 34.6129C46.0169 34.8494 46.505 35.2499 46.8483 35.7638C47.1917 36.2777 47.375 36.8819 47.375 37.5C47.375 38.3288 47.0458 39.1237 46.4597 39.7097C45.8737 40.2958 45.0788 40.625 44.25 40.625Z" fill="#EF1686"/>
<path d="M56.75 40.625C56.1319 40.625 55.5277 40.4417 55.0138 40.0983C54.4999 39.755 54.0994 39.2669 53.8629 38.6959C53.6264 38.1249 53.5645 37.4965 53.685 36.8903C53.8056 36.2842 54.1033 35.7273 54.5403 35.2903C54.9773 34.8533 55.5342 34.5556 56.1403 34.435C56.7465 34.3145 57.3749 34.3764 57.9459 34.6129C58.5169 34.8494 59.005 35.2499 59.3483 35.7638C59.6917 36.2777 59.875 36.8819 59.875 37.5C59.875 38.3288 59.5458 39.1237 58.9597 39.7097C58.3737 40.2958 57.5788 40.625 56.75 40.625Z" fill="#EF1686"/>
<path d="M69.25 40.625C68.6319 40.625 68.0277 40.4417 67.5138 40.0983C66.9999 39.755 66.5994 39.2669 66.3629 38.6959C66.1264 38.1249 66.0645 37.4965 66.185 36.8903C66.3056 36.2842 66.6033 35.7273 67.0403 35.2903C67.4773 34.8533 68.0342 34.5556 68.6403 34.435C69.2465 34.3145 69.8749 34.3764 70.4459 34.6129C71.0169 34.8494 71.505 35.2499 71.8483 35.7638C72.1917 36.2777 72.375 36.8819 72.375 37.5C72.375 38.3288 72.0458 39.1237 71.4597 39.7097C70.8737 40.2958 70.0788 40.625 69.25 40.625Z" fill="#EF1686"/>
<path d="M81.75 40.625C81.1319 40.625 80.5277 40.4417 80.0138 40.0983C79.4999 39.755 79.0994 39.2669 78.8629 38.6959C78.6264 38.1249 78.5645 37.4965 78.685 36.8903C78.8056 36.2842 79.1033 35.7273 79.5403 35.2903C79.9773 34.8533 80.5342 34.5556 81.1403 34.435C81.7465 34.3145 82.3749 34.3764 82.9459 34.6129C83.5169 34.8494 84.005 35.2499 84.3483 35.7638C84.6917 36.2777 84.875 36.8819 84.875 37.5C84.875 38.3288 84.5458 39.1237 83.9597 39.7097C83.3737 40.2958 82.5788 40.625 81.75 40.625Z" fill="#EF1686"/>
<path d="M44.25 53.125C43.6319 53.125 43.0277 52.9417 42.5138 52.5983C41.9999 52.255 41.5994 51.7669 41.3629 51.1959C41.1264 50.6249 41.0645 49.9965 41.185 49.3903C41.3056 48.7842 41.6033 48.2273 42.0403 47.7903C42.4773 47.3533 43.0342 47.0556 43.6403 46.935C44.2465 46.8145 44.8749 46.8764 45.4459 47.1129C46.0169 47.3494 46.505 47.7499 46.8483 48.2638C47.1917 48.7777 47.375 49.3819 47.375 50C47.375 50.8288 47.0458 51.6237 46.4597 52.2097C45.8737 52.7958 45.0788 53.125 44.25 53.125Z" fill="#EF1686"/>
<path d="M56.75 53.125C56.1319 53.125 55.5277 52.9417 55.0138 52.5983C54.4999 52.255 54.0994 51.7669 53.8629 51.1959C53.6264 50.6249 53.5645 49.9965 53.685 49.3903C53.8056 48.7842 54.1033 48.2273 54.5403 47.7903C54.9773 47.3533 55.5342 47.0556 56.1403 46.935C56.7465 46.8145 57.3749 46.8764 57.9459 47.1129C58.5169 47.3494 59.005 47.7499 59.3483 48.2638C59.6917 48.7777 59.875 49.3819 59.875 50C59.875 50.8288 59.5458 51.6237 58.9597 52.2097C58.3737 52.7958 57.5788 53.125 56.75 53.125Z" fill="#EF1686"/>
<path d="M69.25 53.125C68.6319 53.125 68.0277 52.9417 67.5138 52.5983C66.9999 52.255 66.5994 51.7669 66.3629 51.1959C66.1264 50.6249 66.0645 49.9965 66.185 49.3903C66.3056 48.7842 66.6033 48.2273 67.0403 47.7903C67.4773 47.3533 68.0342 47.0556 68.6403 46.935C69.2465 46.8145 69.8749 46.8764 70.4459 47.1129C71.0169 47.3494 71.505 47.7499 71.8483 48.2638C72.1917 48.7777 72.375 49.3819 72.375 50C72.375 50.8288 72.0458 51.6237 71.4597 52.2097C70.8737 52.7958 70.0788 53.125 69.25 53.125Z" fill="#EF1686"/>
<path d="M81.75 53.125C81.1319 53.125 80.5277 52.9417 80.0138 52.5983C79.4999 52.255 79.0994 51.7669 78.8629 51.1959C78.6264 50.6249 78.5645 49.9965 78.685 49.3903C78.8056 48.7842 79.1033 48.2273 79.5403 47.7903C79.9773 47.3533 80.5342 47.0556 81.1403 46.935C81.7465 46.8145 82.3749 46.8764 82.9459 47.1129C83.5169 47.3494 84.005 47.7499 84.3483 48.2638C84.6917 48.7777 84.875 49.3819 84.875 50C84.875 50.8288 84.5458 51.6237 83.9597 52.2097C83.3737 52.7958 82.5788 53.125 81.75 53.125Z" fill="#EF1686"/>
<path d="M44.25 65.625C43.6319 65.625 43.0277 65.4417 42.5138 65.0983C41.9999 64.755 41.5994 64.2669 41.3629 63.6959C41.1264 63.1249 41.0645 62.4965 41.185 61.8903C41.3056 61.2842 41.6033 60.7273 42.0403 60.2903C42.4773 59.8533 43.0342 59.5556 43.6403 59.435C44.2465 59.3145 44.8749 59.3764 45.4459 59.6129C46.0169 59.8494 46.505 60.2499 46.8483 60.7638C47.1917 61.2777 47.375 61.8819 47.375 62.5C47.375 63.3288 47.0458 64.1237 46.4597 64.7097C45.8737 65.2958 45.0788 65.625 44.25 65.625Z" fill="#EF1686"/>
<path d="M56.75 65.625C56.1319 65.625 55.5277 65.4417 55.0138 65.0983C54.4999 64.755 54.0994 64.2669 53.8629 63.6959C53.6264 63.1249 53.5645 62.4965 53.685 61.8903C53.8056 61.2842 54.1033 60.7273 54.5403 60.2903C54.9773 59.8533 55.5342 59.5556 56.1403 59.435C56.7465 59.3145 57.3749 59.3764 57.9459 59.6129C58.5169 59.8494 59.005 60.2499 59.3483 60.7638C59.6917 61.2777 59.875 61.8819 59.875 62.5C59.875 63.3288 59.5458 64.1237 58.9597 64.7097C58.3737 65.2958 57.5788 65.625 56.75 65.625Z" fill="#EF1686"/>
<path d="M69.25 65.625C68.6319 65.625 68.0277 65.4417 67.5138 65.0983C66.9999 64.755 66.5994 64.2669 66.3629 63.6959C66.1264 63.1249 66.0645 62.4965 66.185 61.8903C66.3056 61.2842 66.6033 60.7273 67.0403 60.2903C67.4773 59.8533 68.0342 59.5556 68.6403 59.435C69.2465 59.3145 69.8749 59.3764 70.4459 59.6129C71.0169 59.8494 71.505 60.2499 71.8483 60.7638C72.1917 61.2777 72.375 61.8819 72.375 62.5C72.375 63.3288 72.0458 64.1237 71.4597 64.7097C70.8737 65.2958 70.0788 65.625 69.25 65.625Z" fill="#EF1686"/>
<path d="M81.75 65.625C81.1319 65.625 80.5277 65.4417 80.0138 65.0983C79.4999 64.755 79.0994 64.2669 78.8629 63.6959C78.6264 63.1249 78.5645 62.4965 78.685 61.8903C78.8056 61.2842 79.1033 60.7273 79.5403 60.2903C79.9773 59.8533 80.5342 59.5556 81.1403 59.435C81.7465 59.3145 82.3749 59.3764 82.9459 59.6129C83.5169 59.8494 84.005 60.2499 84.3483 60.7638C84.6917 61.2777 84.875 61.8819 84.875 62.5C84.875 63.3288 84.5458 64.1237 83.9597 64.7097C83.3737 65.2958 82.5788 65.625 81.75 65.625Z" fill="#EF1686"/>
<path d="M44.25 78.125C43.6319 78.125 43.0277 77.9417 42.5138 77.5983C41.9999 77.255 41.5994 76.7669 41.3629 76.1959C41.1264 75.6249 41.0645 74.9965 41.185 74.3903C41.3056 73.7842 41.6033 73.2273 42.0403 72.7903C42.4773 72.3533 43.0342 72.0556 43.6403 71.935C44.2465 71.8145 44.8749 71.8764 45.4459 72.1129C46.0169 72.3494 46.505 72.7499 46.8483 73.2638C47.1917 73.7777 47.375 74.3819 47.375 75C47.375 75.8288 47.0458 76.6237 46.4597 77.2097C45.8737 77.7958 45.0788 78.125 44.25 78.125Z" fill="#EF1686"/>
<path d="M56.75 78.125C56.1319 78.125 55.5277 77.9417 55.0138 77.5983C54.4999 77.255 54.0994 76.7669 53.8629 76.1959C53.6264 75.6249 53.5645 74.9965 53.685 74.3903C53.8056 73.7842 54.1033 73.2273 54.5403 72.7903C54.9773 72.3533 55.5342 72.0556 56.1403 71.935C56.7465 71.8145 57.3749 71.8764 57.9459 72.1129C58.5169 72.3494 59.005 72.7499 59.3483 73.2638C59.6917 73.7777 59.875 74.3819 59.875 75C59.875 75.8288 59.5458 76.6237 58.9597 77.2097C58.3737 77.7958 57.5788 78.125 56.75 78.125Z" fill="#EF1686"/>
<path d="M69.25 78.125C68.6319 78.125 68.0277 77.9417 67.5138 77.5983C66.9999 77.255 66.5994 76.7669 66.3629 76.1959C66.1264 75.6249 66.0645 74.9965 66.185 74.3903C66.3056 73.7842 66.6033 73.2273 67.0403 72.7903C67.4773 72.3533 68.0342 72.0556 68.6403 71.935C69.2465 71.8145 69.8749 71.8764 70.4459 72.1129C71.0169 72.3494 71.505 72.7499 71.8483 73.2638C72.1917 73.7777 72.375 74.3819 72.375 75C72.375 75.8288 72.0458 76.6237 71.4597 77.2097C70.8737 77.7958 70.0788 78.125 69.25 78.125Z" fill="#EF1686"/>
<path d="M81.75 78.125C81.1319 78.125 80.5277 77.9417 80.0138 77.5983C79.4999 77.255 79.0994 76.7669 78.8629 76.1959C78.6264 75.6249 78.5645 74.9965 78.685 74.3903C78.8056 73.7842 79.1033 73.2273 79.5403 72.7903C79.9773 72.3533 80.5342 72.0556 81.1403 71.935C81.7465 71.8145 82.3749 71.8764 82.9459 72.1129C83.5169 72.3494 84.005 72.7499 84.3483 73.2638C84.6917 73.7777 84.875 74.3819 84.875 75C84.875 75.8288 84.5458 76.6237 83.9597 77.2097C83.3737 77.7958 82.5788 78.125 81.75 78.125Z" fill="#EF1686"/>
</g>
<defs>
<clipPath id="clip0_3281_2757">
<rect width="100" height="100" fill="white" transform="translate(0.5)"/>
</clipPath>
</defs>
</svg>
