<svg width="108" height="108" viewBox="0 0 108 108" fill="none" xmlns="http://www.w3.org/2000/svg">
<rect width="108" height="108" rx="10" fill="#1A4D2E"/>
<path d="M16.9395 50.18C16.9395 50.2467 16.9129 50.3067 16.8595 50.36C16.8195 50.4 16.7662 50.42 16.6995 50.42H10.1595C10.0929 50.42 10.0595 50.4533 10.0595 50.52V53.62C10.0595 53.6867 10.0929 53.72 10.1595 53.72H14.4595C14.5262 53.72 14.5795 53.7467 14.6195 53.8C14.6729 53.84 14.6995 53.8933 14.6995 53.96V55.9C14.6995 55.9667 14.6729 56.0267 14.6195 56.08C14.5795 56.12 14.5262 56.14 14.4595 56.14H10.1595C10.0929 56.14 10.0595 56.1733 10.0595 56.24V61.76C10.0595 61.8267 10.0329 61.8867 9.97953 61.94C9.93953 61.98 9.8862 62 9.81953 62H7.47953C7.41286 62 7.35286 61.98 7.29953 61.94C7.25953 61.8867 7.23953 61.8267 7.23953 61.76V48.24C7.23953 48.1733 7.25953 48.12 7.29953 48.08C7.35286 48.0267 7.41286 48 7.47953 48H16.6995C16.7662 48 16.8195 48.0267 16.8595 48.08C16.9129 48.12 16.9395 48.1733 16.9395 48.24V50.18ZM19.7709 50.56C19.3176 50.56 18.9376 50.4133 18.6309 50.12C18.3376 49.8133 18.1909 49.4333 18.1909 48.98C18.1909 48.5133 18.3376 48.1333 18.6309 47.84C18.9243 47.5467 19.3043 47.4 19.7709 47.4C20.2376 47.4 20.6176 47.5467 20.9109 47.84C21.2043 48.1333 21.3509 48.5133 21.3509 48.98C21.3509 49.4333 21.1976 49.8133 20.8909 50.12C20.5976 50.4133 20.2243 50.56 19.7709 50.56ZM18.5709 62C18.5043 62 18.4443 61.98 18.3909 61.94C18.3509 61.8867 18.3309 61.8267 18.3309 61.76V51.94C18.3309 51.8733 18.3509 51.82 18.3909 51.78C18.4443 51.7267 18.5043 51.7 18.5709 51.7H20.9109C20.9776 51.7 21.0309 51.7267 21.0709 51.78C21.1243 51.82 21.1509 51.8733 21.1509 51.94V61.76C21.1509 61.8267 21.1243 61.8867 21.0709 61.94C21.0309 61.98 20.9776 62 20.9109 62H18.5709ZM28.7086 51.56C29.7753 51.56 30.6353 51.8867 31.2886 52.54C31.9419 53.1933 32.2686 54.08 32.2686 55.2V61.76C32.2686 61.8267 32.2419 61.8867 32.1886 61.94C32.1486 61.98 32.0953 62 32.0286 62H29.6886C29.6219 62 29.5619 61.98 29.5086 61.94C29.4686 61.8867 29.4486 61.8267 29.4486 61.76V55.78C29.4486 55.2467 29.2953 54.8133 28.9886 54.48C28.6953 54.1467 28.3019 53.98 27.8086 53.98C27.3153 53.98 26.9153 54.1467 26.6086 54.48C26.3153 54.8133 26.1686 55.2467 26.1686 55.78V61.76C26.1686 61.8267 26.1419 61.8867 26.0886 61.94C26.0486 61.98 25.9953 62 25.9286 62H23.5886C23.5219 62 23.4619 61.98 23.4086 61.94C23.3686 61.8867 23.3486 61.8267 23.3486 61.76V51.96C23.3486 51.8933 23.3686 51.84 23.4086 51.8C23.4619 51.7467 23.5219 51.72 23.5886 51.72H25.9286C25.9953 51.72 26.0486 51.7467 26.0886 51.8C26.1419 51.84 26.1686 51.8933 26.1686 51.96V52.66C26.1686 52.7 26.1819 52.7267 26.2086 52.74C26.2353 52.7533 26.2553 52.7467 26.2686 52.72C26.8153 51.9467 27.6286 51.56 28.7086 51.56ZM44.1261 48C44.1928 48 44.2461 48.0267 44.2861 48.08C44.3394 48.12 44.3661 48.1733 44.3661 48.24V50.2C44.3661 50.2667 44.3394 50.3267 44.2861 50.38C44.2461 50.42 44.1928 50.44 44.1261 50.44H40.5461C40.4794 50.44 40.4461 50.4733 40.4461 50.54V61.76C40.4461 61.8267 40.4194 61.8867 40.3661 61.94C40.3261 61.98 40.2728 62 40.2061 62H37.8661C37.7994 62 37.7394 61.98 37.6861 61.94C37.6461 61.8867 37.6261 61.8267 37.6261 61.76V50.54C37.6261 50.4733 37.5928 50.44 37.5261 50.44H34.0461C33.9794 50.44 33.9194 50.42 33.8661 50.38C33.8261 50.3267 33.8061 50.2667 33.8061 50.2V48.24C33.8061 48.1733 33.8261 48.12 33.8661 48.08C33.9194 48.0267 33.9794 48 34.0461 48H44.1261ZM49.9725 51.58C50.4525 51.58 50.8325 51.6733 51.1125 51.86C51.2192 51.9133 51.2592 52.0133 51.2325 52.16L50.8125 54.44C50.7992 54.6 50.7058 54.6467 50.5325 54.58C50.3325 54.5133 50.0992 54.48 49.8325 54.48C49.7258 54.48 49.5792 54.4933 49.3925 54.52C48.9125 54.56 48.5058 54.74 48.1725 55.06C47.8392 55.3667 47.6725 55.78 47.6725 56.3V61.76C47.6725 61.8267 47.6458 61.8867 47.5925 61.94C47.5525 61.98 47.4992 62 47.4325 62H45.0925C45.0258 62 44.9658 61.98 44.9125 61.94C44.8725 61.8867 44.8525 61.8267 44.8525 61.76V51.96C44.8525 51.8933 44.8725 51.84 44.9125 51.8C44.9658 51.7467 45.0258 51.72 45.0925 51.72H47.4325C47.4992 51.72 47.5525 51.7467 47.5925 51.8C47.6458 51.84 47.6725 51.8933 47.6725 51.96V52.72C47.6725 52.76 47.6858 52.7867 47.7125 52.8C47.7392 52.8133 47.7592 52.8067 47.7725 52.78C48.3192 51.98 49.0525 51.58 49.9725 51.58ZM56.4916 51.56C57.3582 51.56 58.1316 51.7133 58.8116 52.02C59.4916 52.3133 60.0182 52.72 60.3916 53.24C60.7782 53.76 60.9716 54.34 60.9716 54.98V61.76C60.9716 61.8267 60.9449 61.8867 60.8916 61.94C60.8516 61.98 60.7982 62 60.7316 62H58.3916C58.3249 62 58.2649 61.98 58.2116 61.94C58.1716 61.8867 58.1516 61.8267 58.1516 61.76V61.1C58.1516 61.06 58.1382 61.0333 58.1116 61.02C58.0849 61.0067 58.0582 61.02 58.0316 61.06C57.4716 61.7933 56.5716 62.16 55.3316 62.16C54.2916 62.16 53.4516 61.9067 52.8116 61.4C52.1716 60.8933 51.8516 60.1467 51.8516 59.16C51.8516 58.1333 52.2116 57.34 52.9316 56.78C53.6516 56.2067 54.6782 55.92 56.0116 55.92H58.0516C58.1182 55.92 58.1516 55.8867 58.1516 55.82V55.38C58.1516 54.94 58.0182 54.6 57.7516 54.36C57.4849 54.1067 57.0849 53.98 56.5516 53.98C56.1382 53.98 55.7916 54.0533 55.5116 54.2C55.2449 54.3467 55.0716 54.5533 54.9916 54.82C54.9516 54.9667 54.8649 55.0333 54.7316 55.02L52.3116 54.7C52.1516 54.6733 52.0782 54.6133 52.0916 54.52C52.1449 53.96 52.3649 53.4533 52.7516 53C53.1516 52.5467 53.6716 52.1933 54.3116 51.94C54.9649 51.6867 55.6916 51.56 56.4916 51.56ZM56.0916 60.06C56.6649 60.06 57.1516 59.9067 57.5516 59.6C57.9516 59.2933 58.1516 58.9 58.1516 58.42V57.7C58.1516 57.6333 58.1182 57.6 58.0516 57.6H56.6116C56.0116 57.6 55.5382 57.7133 55.1916 57.94C54.8582 58.1667 54.6916 58.4867 54.6916 58.9C54.6916 59.26 54.8182 59.5467 55.0716 59.76C55.3249 59.96 55.6649 60.06 56.0916 60.06ZM67.478 62.16C66.4113 62.16 65.4846 61.8933 64.698 61.36C63.9246 60.8267 63.3713 60.0933 63.038 59.16C62.8113 58.4933 62.698 57.7067 62.698 56.8C62.698 55.9067 62.8113 55.1333 63.038 54.48C63.358 53.5733 63.9113 52.86 64.698 52.34C65.4846 51.82 66.4113 51.56 67.478 51.56C68.5446 51.56 69.478 51.8267 70.278 52.36C71.0913 52.8933 71.6313 53.5667 71.898 54.38C72.0046 54.7 72.058 54.94 72.058 55.1V55.14C72.058 55.26 71.9913 55.3333 71.858 55.36L69.558 55.7H69.518C69.398 55.7 69.318 55.6333 69.278 55.5L69.218 55.18C69.1246 54.8333 68.918 54.5467 68.598 54.32C68.278 54.0933 67.898 53.98 67.458 53.98C67.0313 53.98 66.6713 54.0867 66.378 54.3C66.0846 54.5133 65.878 54.8067 65.758 55.18C65.6113 55.58 65.538 56.1267 65.538 56.82C65.538 57.5133 65.6046 58.06 65.738 58.46C65.858 58.86 66.0646 59.1733 66.358 59.4C66.6646 59.6267 67.0313 59.74 67.458 59.74C67.8713 59.74 68.2313 59.6333 68.538 59.42C68.858 59.1933 69.078 58.8867 69.198 58.5C69.2113 58.4733 69.218 58.4333 69.218 58.38C69.2313 58.3667 69.238 58.3467 69.238 58.32C69.2513 58.16 69.3446 58.0933 69.518 58.12L71.818 58.48C71.9513 58.5067 72.018 58.58 72.018 58.7C72.018 58.8067 71.978 59.0067 71.898 59.3C71.618 60.1933 71.0713 60.8933 70.258 61.4C69.458 61.9067 68.5313 62.16 67.478 62.16ZM73.9402 62C73.8735 62 73.8135 61.98 73.7602 61.94C73.7202 61.8867 73.7002 61.8267 73.7002 61.76V48.24C73.7002 48.1733 73.7202 48.12 73.7602 48.08C73.8135 48.0267 73.8735 48 73.9402 48H76.2802C76.3468 48 76.4002 48.0267 76.4402 48.08C76.4935 48.12 76.5202 48.1733 76.5202 48.24V54.98C76.5202 55.02 76.5335 55.0467 76.5602 55.06C76.5868 55.06 76.6135 55.0467 76.6402 55.02L79.3602 51.86C79.4535 51.7667 79.5535 51.72 79.6602 51.72H82.3202C82.4535 51.72 82.5202 51.7667 82.5202 51.86C82.5202 51.9 82.5002 51.9533 82.4602 52.02L79.9202 55.24C79.8935 55.2933 79.8868 55.34 79.9002 55.38L82.8802 61.72C82.9068 61.7733 82.9202 61.8133 82.9202 61.84C82.9202 61.9467 82.8468 62 82.7002 62H80.2402C80.1068 62 80.0135 61.94 79.9602 61.82L77.9802 57.14C77.9668 57.1133 77.9402 57.1 77.9002 57.1C77.8735 57.0867 77.8535 57.0933 77.8402 57.12L76.5602 58.72C76.5335 58.7733 76.5202 58.8133 76.5202 58.84V61.76C76.5202 61.8267 76.4935 61.8867 76.4402 61.94C76.4002 61.98 76.3468 62 76.2802 62H73.9402ZM92.5463 55.8C92.6263 56.3067 92.6529 56.8733 92.6263 57.5C92.6129 57.66 92.5263 57.74 92.3663 57.74H86.1863C86.1063 57.74 86.0796 57.7733 86.1063 57.84C86.1463 58.1067 86.2196 58.3733 86.3263 58.64C86.6729 59.3867 87.3796 59.76 88.4463 59.76C89.2996 59.7467 89.9729 59.4 90.4663 58.72C90.5196 58.64 90.5796 58.6 90.6463 58.6C90.6863 58.6 90.7329 58.6267 90.7863 58.68L92.2263 60.1C92.2929 60.1667 92.3263 60.2267 92.3263 60.28C92.3263 60.3067 92.2996 60.36 92.2463 60.44C91.8063 60.9867 91.2396 61.4133 90.5463 61.72C89.8529 62.0133 89.0929 62.16 88.2663 62.16C87.1196 62.16 86.1463 61.9 85.3462 61.38C84.5596 60.86 83.9929 60.1333 83.6463 59.2C83.3663 58.5333 83.2263 57.66 83.2263 56.58C83.2263 55.8467 83.3263 55.2 83.5263 54.64C83.8329 53.6933 84.3663 52.94 85.1263 52.38C85.8996 51.82 86.8129 51.54 87.8663 51.54C89.1996 51.54 90.2663 51.9267 91.0663 52.7C91.8796 53.4733 92.3729 54.5067 92.5463 55.8ZM87.8863 53.98C87.0463 53.98 86.4929 54.3733 86.2263 55.16C86.1729 55.3333 86.1263 55.5467 86.0863 55.8C86.0863 55.8667 86.1196 55.9 86.1863 55.9H89.6463C89.7263 55.9 89.7529 55.8667 89.7263 55.8C89.6596 55.4133 89.6263 55.2267 89.6263 55.24C89.5063 54.84 89.2929 54.5333 88.9863 54.32C88.6929 54.0933 88.3263 53.98 87.8863 53.98ZM99.4842 51.58C99.9642 51.58 100.344 51.6733 100.624 51.86C100.731 51.9133 100.771 52.0133 100.744 52.16L100.324 54.44C100.311 54.6 100.218 54.6467 100.044 54.58C99.8442 54.5133 99.6109 54.48 99.3442 54.48C99.2376 54.48 99.0909 54.4933 98.9042 54.52C98.4242 54.56 98.0176 54.74 97.6842 55.06C97.3509 55.3667 97.1842 55.78 97.1842 56.3V61.76C97.1842 61.8267 97.1576 61.8867 97.1042 61.94C97.0642 61.98 97.0109 62 96.9442 62H94.6042C94.5376 62 94.4776 61.98 94.4242 61.94C94.3842 61.8867 94.3642 61.8267 94.3642 61.76V51.96C94.3642 51.8933 94.3842 51.84 94.4242 51.8C94.4776 51.7467 94.5376 51.72 94.6042 51.72H96.9442C97.0109 51.72 97.0642 51.7467 97.1042 51.8C97.1576 51.84 97.1842 51.8933 97.1842 51.96V52.72C97.1842 52.76 97.1976 52.7867 97.2242 52.8C97.2509 52.8133 97.2709 52.8067 97.2842 52.78C97.8309 51.98 98.5642 51.58 99.4842 51.58Z" fill="white"/>
</svg>
