<svg width="64" height="64" viewBox="0 0 64 64" fill="none" xmlns="http://www.w3.org/2000/svg">
<path d="M17.932 41.692C20.98 41.692 23.02 39.772 23.02 36.844V36.628C23.02 36.508 22.924 36.436 22.78 36.436L20.956 36.34C20.812 36.34 20.716 36.436 20.716 36.58V36.916C20.716 38.572 19.588 39.7 17.932 39.7C16.252 39.7 15.124 38.572 15.124 36.916V29.284C15.124 27.628 16.252 26.5 17.932 26.5C19.588 26.5 20.716 27.628 20.716 29.284V29.644C20.716 29.788 20.812 29.884 20.956 29.884L22.78 29.788C22.924 29.788 23.02 29.668 23.02 29.524V29.332C23.02 26.404 20.98 24.508 17.932 24.508C14.86 24.508 12.82 26.428 12.82 29.404V36.772C12.82 39.748 14.86 41.692 17.932 41.692ZM37.5306 26.452V24.94C37.5306 24.796 37.4346 24.7 37.2906 24.7H28.1946C28.0506 24.7 27.9546 24.796 27.9546 24.94V41.26C27.9546 41.404 28.0506 41.5 28.1946 41.5H30.0186C30.1626 41.5 30.2586 41.404 30.2586 41.26V34.156C30.2586 34.108 30.3066 34.06 30.3546 34.06H34.9146C35.0586 34.06 35.1546 33.964 35.1546 33.82V32.308C35.1546 32.164 35.0586 32.068 34.9146 32.068H30.3546C30.3066 32.068 30.2586 32.02 30.2586 31.972V26.788C30.2586 26.74 30.3066 26.692 30.3546 26.692H37.2906C37.4346 26.692 37.5306 26.596 37.5306 26.452ZM47.1939 24.676H41.8179C41.6739 24.676 41.5779 24.772 41.5779 24.916V41.26C41.5779 41.404 41.6739 41.5 41.8179 41.5H43.6419C43.7859 41.5 43.8819 41.404 43.8819 41.26V34.372C43.8819 34.324 43.9299 34.276 43.9779 34.276H47.1939C49.9059 34.276 51.7059 32.38 51.7059 29.524C51.7059 26.62 49.9059 24.676 47.1939 24.676ZM46.8579 32.428H43.9779C43.9299 32.428 43.8819 32.38 43.8819 32.332V26.764C43.8819 26.716 43.9299 26.668 43.9779 26.668H46.8579C48.3939 26.668 49.4259 27.796 49.4259 29.572C49.4259 31.3 48.3939 32.428 46.8579 32.428Z" fill="white"/>
</svg>
