<svg width="101" height="100" viewBox="0 0 101 100" fill="none" xmlns="http://www.w3.org/2000/svg">
<path d="M97.375 31.25C98.2038 31.25 98.9987 30.9208 99.5847 30.3347C100.171 29.7487 100.5 28.9538 100.5 28.125V9.375C100.5 6.8886 99.5123 4.50403 97.7541 2.74587C95.996 0.98772 93.6114 0 91.125 0L9.875 0C7.3886 0 5.00403 0.98772 3.24587 2.74587C1.48772 4.50403 0.5 6.8886 0.5 9.375L0.5 90.625C0.5 93.1114 1.48772 95.496 3.24587 97.2541C5.00403 99.0123 7.3886 100 9.875 100H91.125C93.6114 100 95.996 99.0123 97.7541 97.2541C99.5123 95.496 100.5 93.1114 100.5 90.625V40.625C100.5 39.7962 100.171 39.0013 99.5847 38.4153C98.9987 37.8292 98.2038 37.5 97.375 37.5C96.5462 37.5 95.7513 37.8292 95.1653 38.4153C94.5792 39.0013 94.25 39.7962 94.25 40.625V90.625C94.25 91.4538 93.9208 92.2487 93.3347 92.8347C92.7487 93.4208 91.9538 93.75 91.125 93.75H9.875C9.0462 93.75 8.25134 93.4208 7.66529 92.8347C7.07924 92.2487 6.75 91.4538 6.75 90.625V31.25H97.375ZM6.75 9.375C6.75 8.5462 7.07924 7.75134 7.66529 7.16529C8.25134 6.57924 9.0462 6.25 9.875 6.25H91.125C91.9538 6.25 92.7487 6.57924 93.3347 7.16529C93.9208 7.75134 94.25 8.5462 94.25 9.375V25H6.75V9.375Z" fill="black"/>
<path d="M84.875 12.5C84.2569 12.5 83.6527 12.6833 83.1388 13.0267C82.6249 13.37 82.2244 13.8581 81.9879 14.4291C81.7514 15.0001 81.6895 15.6285 81.81 16.2347C81.9306 16.8408 82.2283 17.3977 82.6653 17.8347C83.1023 18.2717 83.6592 18.5694 84.2653 18.69C84.8715 18.8105 85.4999 18.7486 86.0709 18.5121C86.6419 18.2756 87.13 17.8751 87.4733 17.3612C87.8167 16.8473 88 16.2431 88 15.625C88 14.7962 87.6708 14.0013 87.0847 13.4153C86.4987 12.8292 85.7038 12.5 84.875 12.5Z" fill="black"/>
<path d="M72.375 12.5C71.7569 12.5 71.1527 12.6833 70.6388 13.0267C70.1249 13.37 69.7244 13.8581 69.4879 14.4291C69.2514 15.0001 69.1895 15.6285 69.31 16.2347C69.4306 16.8408 69.7283 17.3977 70.1653 17.8347C70.6023 18.2717 71.1592 18.5694 71.7653 18.69C72.3715 18.8105 72.9999 18.7486 73.5709 18.5121C74.1419 18.2756 74.63 17.8751 74.9733 17.3612C75.3167 16.8473 75.5 16.2431 75.5 15.625C75.5 14.7962 75.1708 14.0013 74.5847 13.4153C73.9987 12.8292 73.2038 12.5 72.375 12.5Z" fill="black"/>
<path d="M59.875 12.5C59.2569 12.5 58.6527 12.6833 58.1388 13.0267C57.6249 13.37 57.2244 13.8581 56.9879 14.4291C56.7514 15.0001 56.6895 15.6285 56.81 16.2347C56.9306 16.8408 57.2283 17.3977 57.6653 17.8347C58.1023 18.2717 58.6592 18.5694 59.2653 18.69C59.8715 18.8105 60.4999 18.7486 61.0709 18.5121C61.6419 18.2756 62.13 17.8751 62.4733 17.3612C62.8167 16.8473 63 16.2431 63 15.625C63 14.7962 62.6708 14.0013 62.0847 13.4153C61.4987 12.8292 60.7038 12.5 59.875 12.5Z" fill="black"/>
<path d="M81.75 59.375H78.625V53.125C78.625 51.4674 77.9665 49.8777 76.7944 48.7056C75.6223 47.5335 74.0326 46.875 72.375 46.875H66.125C64.4674 46.875 62.8777 47.5335 61.7056 48.7056C60.5335 49.8777 59.875 51.4674 59.875 53.125V59.375H41.125V53.125C41.125 51.4674 40.4665 49.8777 39.2944 48.7056C38.1223 47.5335 36.5326 46.875 34.875 46.875H28.625C26.9674 46.875 25.3777 47.5335 24.2056 48.7056C23.0335 49.8777 22.375 51.4674 22.375 53.125V59.375H19.25C18.4212 59.375 17.6263 59.7042 17.0403 60.2903C16.4542 60.8763 16.125 61.6712 16.125 62.5C16.125 63.3288 16.4542 64.1237 17.0403 64.7097C17.6263 65.2958 18.4212 65.625 19.25 65.625H22.375V71.875C22.375 73.5326 23.0335 75.1223 24.2056 76.2944C25.3777 77.4665 26.9674 78.125 28.625 78.125H34.875C36.5326 78.125 38.1223 77.4665 39.2944 76.2944C40.4665 75.1223 41.125 73.5326 41.125 71.875V65.625H59.875V71.875C59.875 73.5326 60.5335 75.1223 61.7056 76.2944C62.8777 77.4665 64.4674 78.125 66.125 78.125H72.375C74.0326 78.125 75.6223 77.4665 76.7944 76.2944C77.9665 75.1223 78.625 73.5326 78.625 71.875V65.625H81.75C82.5788 65.625 83.3737 65.2958 83.9597 64.7097C84.5458 64.1237 84.875 63.3288 84.875 62.5C84.875 61.6712 84.5458 60.8763 83.9597 60.2903C83.3737 59.7042 82.5788 59.375 81.75 59.375ZM28.625 71.875V53.125H34.875V71.875H28.625ZM66.125 71.875V53.125H72.375V71.875H66.125Z" fill="#EF1686"/>
</svg>
