<svg width="512" height="512" viewBox="0 0 512 512" fill="none" xmlns="http://www.w3.org/2000/svg">
<rect width="512" height="512" fill="#1A4D2E"/>
<path d="M109.758 240.72C109.758 240.987 109.651 241.227 109.438 241.44C109.278 241.6 109.065 241.68 108.798 241.68H82.6381C82.3715 241.68 82.2381 241.813 82.2381 242.08V254.48C82.2381 254.747 82.3715 254.88 82.6381 254.88H99.8381C100.105 254.88 100.318 254.987 100.478 255.2C100.691 255.36 100.798 255.573 100.798 255.84V263.6C100.798 263.867 100.691 264.107 100.478 264.32C100.318 264.48 100.105 264.56 99.8381 264.56H82.6381C82.3715 264.56 82.2381 264.693 82.2381 264.96V287.04C82.2381 287.307 82.1315 287.547 81.9181 287.76C81.7581 287.92 81.5448 288 81.2781 288H71.9181C71.6515 288 71.4115 287.92 71.1981 287.76C71.0381 287.547 70.9581 287.307 70.9581 287.04V232.96C70.9581 232.693 71.0381 232.48 71.1981 232.32C71.4115 232.107 71.6515 232 71.9181 232H108.798C109.065 232 109.278 232.107 109.438 232.32C109.651 232.48 109.758 232.693 109.758 232.96V240.72ZM121.084 242.24C119.27 242.24 117.75 241.653 116.524 240.48C115.35 239.253 114.764 237.733 114.764 235.92C114.764 234.053 115.35 232.533 116.524 231.36C117.697 230.187 119.217 229.6 121.084 229.6C122.95 229.6 124.47 230.187 125.644 231.36C126.817 232.533 127.404 234.053 127.404 235.92C127.404 237.733 126.79 239.253 125.564 240.48C124.39 241.653 122.897 242.24 121.084 242.24ZM116.284 288C116.017 288 115.777 287.92 115.564 287.76C115.404 287.547 115.324 287.307 115.324 287.04V247.76C115.324 247.493 115.404 247.28 115.564 247.12C115.777 246.907 116.017 246.8 116.284 246.8H125.644C125.91 246.8 126.124 246.907 126.284 247.12C126.497 247.28 126.604 247.493 126.604 247.76V287.04C126.604 287.307 126.497 287.547 126.284 287.76C126.124 287.92 125.91 288 125.644 288H116.284ZM156.834 246.24C161.101 246.24 164.541 247.547 167.154 250.16C169.768 252.773 171.074 256.32 171.074 260.8V287.04C171.074 287.307 170.968 287.547 170.754 287.76C170.594 287.92 170.381 288 170.114 288H160.754C160.488 288 160.248 287.92 160.034 287.76C159.874 287.547 159.794 287.307 159.794 287.04V263.12C159.794 260.987 159.181 259.253 157.954 257.92C156.781 256.587 155.208 255.92 153.234 255.92C151.261 255.92 149.661 256.587 148.434 257.92C147.261 259.253 146.674 260.987 146.674 263.12V287.04C146.674 287.307 146.568 287.547 146.354 287.76C146.194 287.92 145.981 288 145.714 288H136.354C136.088 288 135.848 287.92 135.634 287.76C135.474 287.547 135.394 287.307 135.394 287.04V247.84C135.394 247.573 135.474 247.36 135.634 247.2C135.848 246.987 136.088 246.88 136.354 246.88H145.714C145.981 246.88 146.194 246.987 146.354 247.2C146.568 247.36 146.674 247.573 146.674 247.84V250.64C146.674 250.8 146.728 250.907 146.834 250.96C146.941 251.013 147.021 250.987 147.074 250.88C149.261 247.787 152.514 246.24 156.834 246.24ZM218.504 232C218.771 232 218.984 232.107 219.144 232.32C219.358 232.48 219.464 232.693 219.464 232.96V240.8C219.464 241.067 219.358 241.307 219.144 241.52C218.984 241.68 218.771 241.76 218.504 241.76H204.184C203.918 241.76 203.784 241.893 203.784 242.16V287.04C203.784 287.307 203.678 287.547 203.464 287.76C203.304 287.92 203.091 288 202.824 288H193.464C193.198 288 192.958 287.92 192.744 287.76C192.584 287.547 192.504 287.307 192.504 287.04V242.16C192.504 241.893 192.371 241.76 192.104 241.76H178.184C177.918 241.76 177.678 241.68 177.464 241.52C177.304 241.307 177.224 241.067 177.224 240.8V232.96C177.224 232.693 177.304 232.48 177.464 232.32C177.678 232.107 177.918 232 178.184 232H218.504ZM241.89 246.32C243.81 246.32 245.33 246.693 246.45 247.44C246.877 247.653 247.037 248.053 246.93 248.64L245.25 257.76C245.197 258.4 244.823 258.587 244.13 258.32C243.33 258.053 242.397 257.92 241.33 257.92C240.903 257.92 240.317 257.973 239.57 258.08C237.65 258.24 236.023 258.96 234.69 260.24C233.357 261.467 232.69 263.12 232.69 265.2V287.04C232.69 287.307 232.583 287.547 232.37 287.76C232.21 287.92 231.997 288 231.73 288H222.37C222.103 288 221.863 287.92 221.65 287.76C221.49 287.547 221.41 287.307 221.41 287.04V247.84C221.41 247.573 221.49 247.36 221.65 247.2C221.863 246.987 222.103 246.88 222.37 246.88H231.73C231.997 246.88 232.21 246.987 232.37 247.2C232.583 247.36 232.69 247.573 232.69 247.84V250.88C232.69 251.04 232.743 251.147 232.85 251.2C232.957 251.253 233.037 251.227 233.09 251.12C235.277 247.92 238.21 246.32 241.89 246.32ZM267.966 246.24C271.433 246.24 274.526 246.853 277.246 248.08C279.966 249.253 282.073 250.88 283.566 252.96C285.113 255.04 285.886 257.36 285.886 259.92V287.04C285.886 287.307 285.78 287.547 285.566 287.76C285.406 287.92 285.193 288 284.926 288H275.566C275.3 288 275.06 287.92 274.846 287.76C274.686 287.547 274.606 287.307 274.606 287.04V284.4C274.606 284.24 274.553 284.133 274.446 284.08C274.34 284.027 274.233 284.08 274.126 284.24C271.886 287.173 268.286 288.64 263.326 288.64C259.166 288.64 255.806 287.627 253.246 285.6C250.686 283.573 249.406 280.587 249.406 276.64C249.406 272.533 250.846 269.36 253.726 267.12C256.606 264.827 260.713 263.68 266.046 263.68H274.206C274.473 263.68 274.606 263.547 274.606 263.28V261.52C274.606 259.76 274.073 258.4 273.006 257.44C271.94 256.427 270.34 255.92 268.206 255.92C266.553 255.92 265.166 256.213 264.046 256.8C262.98 257.387 262.286 258.213 261.966 259.28C261.806 259.867 261.46 260.133 260.926 260.08L251.246 258.8C250.606 258.693 250.313 258.453 250.366 258.08C250.58 255.84 251.46 253.813 253.006 252C254.606 250.187 256.686 248.773 259.246 247.76C261.86 246.747 264.766 246.24 267.966 246.24ZM266.366 280.24C268.66 280.24 270.606 279.627 272.206 278.4C273.806 277.173 274.606 275.6 274.606 273.68V270.8C274.606 270.533 274.473 270.4 274.206 270.4H268.446C266.046 270.4 264.153 270.853 262.766 271.76C261.433 272.667 260.766 273.947 260.766 275.6C260.766 277.04 261.273 278.187 262.286 279.04C263.3 279.84 264.66 280.24 266.366 280.24ZM311.912 288.64C307.645 288.64 303.939 287.573 300.792 285.44C297.699 283.307 295.485 280.373 294.152 276.64C293.245 273.973 292.792 270.827 292.792 267.2C292.792 263.627 293.245 260.533 294.152 257.92C295.432 254.293 297.645 251.44 300.792 249.36C303.939 247.28 307.645 246.24 311.912 246.24C316.179 246.24 319.912 247.307 323.112 249.44C326.365 251.573 328.525 254.267 329.592 257.52C330.019 258.8 330.232 259.76 330.232 260.4V260.56C330.232 261.04 329.965 261.333 329.432 261.44L320.232 262.8H320.072C319.592 262.8 319.272 262.533 319.112 262L318.872 260.72C318.499 259.333 317.672 258.187 316.392 257.28C315.112 256.373 313.592 255.92 311.832 255.92C310.125 255.92 308.685 256.347 307.512 257.2C306.339 258.053 305.512 259.227 305.032 260.72C304.445 262.32 304.152 264.507 304.152 267.28C304.152 270.053 304.419 272.24 304.952 273.84C305.432 275.44 306.259 276.693 307.432 277.6C308.659 278.507 310.125 278.96 311.832 278.96C313.485 278.96 314.925 278.533 316.152 277.68C317.432 276.773 318.312 275.547 318.792 274C318.845 273.893 318.872 273.733 318.872 273.52C318.925 273.467 318.952 273.387 318.952 273.28C319.005 272.64 319.379 272.373 320.072 272.48L329.272 273.92C329.805 274.027 330.072 274.32 330.072 274.8C330.072 275.227 329.912 276.027 329.592 277.2C328.472 280.773 326.285 283.573 323.032 285.6C319.832 287.627 316.125 288.64 311.912 288.64ZM337.761 288C337.494 288 337.254 287.92 337.041 287.76C336.881 287.547 336.801 287.307 336.801 287.04V232.96C336.801 232.693 336.881 232.48 337.041 232.32C337.254 232.107 337.494 232 337.761 232H347.121C347.387 232 347.601 232.107 347.761 232.32C347.974 232.48 348.081 232.693 348.081 232.96V259.92C348.081 260.08 348.134 260.187 348.241 260.24C348.347 260.24 348.454 260.187 348.561 260.08L359.441 247.44C359.814 247.067 360.214 246.88 360.641 246.88H371.281C371.814 246.88 372.081 247.067 372.081 247.44C372.081 247.6 372.001 247.813 371.841 248.08L361.681 260.96C361.574 261.173 361.547 261.36 361.601 261.52L373.521 286.88C373.627 287.093 373.681 287.253 373.681 287.36C373.681 287.787 373.387 288 372.801 288H362.961C362.427 288 362.054 287.76 361.841 287.28L353.921 268.56C353.867 268.453 353.761 268.4 353.601 268.4C353.494 268.347 353.414 268.373 353.361 268.48L348.241 274.88C348.134 275.093 348.081 275.253 348.081 275.36V287.04C348.081 287.307 347.974 287.547 347.761 287.76C347.601 287.92 347.387 288 347.121 288H337.761ZM412.185 263.2C412.505 265.227 412.612 267.493 412.505 270C412.452 270.64 412.105 270.96 411.465 270.96H386.745C386.425 270.96 386.318 271.093 386.425 271.36C386.585 272.427 386.878 273.493 387.305 274.56C388.692 277.547 391.518 279.04 395.785 279.04C399.198 278.987 401.892 277.6 403.865 274.88C404.078 274.56 404.318 274.4 404.585 274.4C404.745 274.4 404.932 274.507 405.145 274.72L410.905 280.4C411.172 280.667 411.305 280.907 411.305 281.12C411.305 281.227 411.198 281.44 410.985 281.76C409.225 283.947 406.958 285.653 404.185 286.88C401.412 288.053 398.372 288.64 395.065 288.64C390.478 288.64 386.585 287.6 383.385 285.52C380.238 283.44 377.972 280.533 376.585 276.8C375.465 274.133 374.905 270.64 374.905 266.32C374.905 263.387 375.305 260.8 376.105 258.56C377.332 254.773 379.465 251.76 382.505 249.52C385.598 247.28 389.252 246.16 393.465 246.16C398.798 246.16 403.065 247.707 406.265 250.8C409.518 253.893 411.492 258.027 412.185 263.2ZM393.545 255.92C390.185 255.92 387.972 257.493 386.905 260.64C386.692 261.333 386.505 262.187 386.345 263.2C386.345 263.467 386.478 263.6 386.745 263.6H400.585C400.905 263.6 401.012 263.467 400.905 263.2C400.638 261.653 400.505 260.907 400.505 260.96C400.025 259.36 399.172 258.133 397.945 257.28C396.772 256.373 395.305 255.92 393.545 255.92ZM439.937 246.32C441.857 246.32 443.377 246.693 444.497 247.44C444.924 247.653 445.084 248.053 444.977 248.64L443.297 257.76C443.244 258.4 442.87 258.587 442.177 258.32C441.377 258.053 440.444 257.92 439.377 257.92C438.95 257.92 438.364 257.973 437.617 258.08C435.697 258.24 434.07 258.96 432.737 260.24C431.404 261.467 430.737 263.12 430.737 265.2V287.04C430.737 287.307 430.63 287.547 430.417 287.76C430.257 287.92 430.044 288 429.777 288H420.417C420.15 288 419.91 287.92 419.697 287.76C419.537 287.547 419.457 287.307 419.457 287.04V247.84C419.457 247.573 419.537 247.36 419.697 247.2C419.91 246.987 420.15 246.88 420.417 246.88H429.777C430.044 246.88 430.257 246.987 430.417 247.2C430.63 247.36 430.737 247.573 430.737 247.84V250.88C430.737 251.04 430.79 251.147 430.897 251.2C431.004 251.253 431.084 251.227 431.137 251.12C433.324 247.92 436.257 246.32 439.937 246.32Z" fill="white"/>
</svg>
