<svg width="21" height="20" viewBox="0 0 21 20" fill="none" xmlns="http://www.w3.org/2000/svg">
<path d="M10.6134 1.87527C6.04391 1.81355 2.31344 5.54402 2.37516 10.1135C2.4361 14.496 6.00446 18.0643 10.3869 18.1253C14.9572 18.1878 18.6869 14.4573 18.6244 9.88777C18.5642 5.50456 14.9959 1.9362 10.6134 1.87527ZM15.5517 14.6585C15.5362 14.6753 15.5171 14.6885 15.4959 14.6971C15.4746 14.7058 15.4518 14.7096 15.4289 14.7084C15.406 14.7072 15.3836 14.701 15.3634 14.6902C15.3432 14.6794 15.3256 14.6643 15.3119 14.646C14.9625 14.1888 14.5346 13.7975 14.0482 13.4901C13.0537 12.8518 11.7935 12.5003 10.5002 12.5003C9.2068 12.5003 7.94664 12.8518 6.95211 13.4901C6.46573 13.7973 6.03785 14.1886 5.68844 14.6456C5.67471 14.6639 5.65712 14.679 5.6369 14.6898C5.61668 14.7006 5.59434 14.7068 5.57145 14.708C5.54856 14.7092 5.52569 14.7054 5.50446 14.6967C5.48323 14.6881 5.46416 14.6749 5.4486 14.6581C4.30238 13.4207 3.65309 11.8039 3.62516 10.1175C3.56149 6.31628 6.68063 3.13464 10.4834 3.12527C14.2861 3.11589 17.3752 6.20378 17.3752 10.0003C17.3765 11.7274 16.7252 13.3912 15.5517 14.6585Z" fill="currentColor"/>
<path d="M10.5002 5.62527C9.72985 5.62527 9.03336 5.91394 8.53844 6.43855C8.04352 6.96316 7.79625 7.68855 7.85211 8.46706C7.96539 10.0003 9.15328 11.2503 10.5002 11.2503C11.847 11.2503 13.0326 10.0003 13.1482 8.46745C13.206 7.69636 12.9607 6.97761 12.4576 6.44324C11.9607 5.91589 11.2654 5.62527 10.5002 5.62527Z" fill="currentColor"/>
</svg>
