<svg width="287" height="204" viewBox="0 0 287 204" fill="none" xmlns="http://www.w3.org/2000/svg">
<mask id="mask0_190_3758" style="mask-type:alpha" maskUnits="userSpaceOnUse" x="0" y="0" width="287" height="204">
<rect width="287" height="204" rx="64" fill="#EAF0FF"/>
</mask>
<g mask="url(#mask0_190_3758)">
<rect y="33" width="287" height="198" rx="64" fill="#E1E1E1" fill-opacity="0.3"/>
<path d="M135.403 183.681H16.9394C16.0114 183.679 15.1219 183.345 14.4663 182.751C13.8106 182.157 13.4424 181.352 13.4424 180.513V29.921C13.4505 29.0866 13.8223 28.2887 14.477 27.7008C15.1318 27.1128 16.0167 26.7822 16.9394 26.7808H135.403C136.332 26.7808 137.223 27.1145 137.88 27.7086C138.537 28.3027 138.906 29.1085 138.906 29.9487V180.513C138.906 181.353 138.537 182.159 137.88 182.753C137.223 183.347 136.332 183.681 135.403 183.681ZM16.9394 26.8917C16.0521 26.8932 15.2016 27.213 14.5747 27.7809C13.9478 28.3489 13.5958 29.1185 13.5958 29.921V180.513C13.5958 181.315 13.9478 182.085 14.5747 182.653C15.2016 183.221 16.0521 183.541 16.9394 183.542H135.403C136.291 183.541 137.142 183.221 137.77 182.653C138.398 182.085 138.751 181.316 138.753 180.513V29.921C138.751 29.118 138.398 28.3484 137.77 27.7806C137.142 27.2128 136.291 26.8932 135.403 26.8917H16.9394Z" fill="#EBEBEB"/>
<path d="M268.113 183.681H149.643C148.714 183.679 147.824 183.345 147.168 182.751C146.511 182.158 146.141 181.353 146.14 180.513V29.921C146.149 29.0861 146.522 28.2882 147.178 27.7004C147.834 27.1126 148.719 26.7822 149.643 26.7808H268.113C269.034 26.7836 269.918 27.1149 270.571 27.7027C271.225 28.2905 271.596 29.0875 271.604 29.921V180.513C271.604 181.351 271.236 182.155 270.582 182.749C269.928 183.343 269.04 183.678 268.113 183.681ZM149.643 26.8917C148.755 26.8932 147.904 27.2128 147.276 27.7806C146.648 28.3484 146.295 29.118 146.293 29.921V180.513C146.295 181.316 146.648 182.085 147.276 182.653C147.904 183.221 148.755 183.541 149.643 183.542H268.113C269.001 183.541 269.852 183.221 270.48 182.653C271.107 182.085 271.461 181.316 271.462 180.513V29.921C271.461 29.118 271.107 28.3484 270.48 27.7806C269.852 27.2128 269.001 26.8932 268.113 26.8917H149.643Z" fill="#EBEBEB"/>
<path d="M36.4189 157.488H80.1012C81.11 157.488 82.1088 157.668 83.0407 158.017C83.9727 158.366 84.8194 158.878 85.5327 159.523C86.246 160.168 86.8117 160.934 87.1978 161.776C87.5838 162.619 87.7825 163.522 87.7825 164.434V199.942C87.7825 201.785 86.9732 203.551 85.5327 204.854C84.0922 206.157 82.1384 206.889 80.1012 206.889H36.4189V157.51V157.488Z" fill="#F0F0F0"/>
<path d="M36.7802 157.488H36.0562C31.814 157.488 28.375 160.598 28.375 164.434V199.92C28.375 203.756 31.814 206.866 36.0562 206.866H36.7802C41.0224 206.866 44.4614 203.756 44.4614 199.92V164.434C44.4614 160.598 41.0224 157.488 36.7802 157.488Z" fill="#F5F5F5"/>
<path d="M42.2653 206.866H99.2793V175.703H42.2653L42.2653 206.866Z" fill="#F0F0F0"/>
<path d="M82.592 137.005H135.637C137.009 136.981 138.37 137.223 139.631 137.713C140.892 138.204 142.022 138.931 142.947 139.848C143.872 140.765 144.57 141.85 144.995 143.03C145.42 144.21 145.561 145.458 145.41 146.692L141.913 182.754H67.4443L70.9352 146.692C71.2319 144.067 72.582 141.632 74.7301 139.847C76.8781 138.062 79.6752 137.051 82.592 137.005Z" fill="#E0E0E0"/>
<path d="M74.2114 137.005H128.293C129.598 136.985 130.893 137.217 132.091 137.685C133.29 138.152 134.364 138.845 135.244 139.717C136.124 140.59 136.788 141.621 137.193 142.743C137.598 143.865 137.735 145.052 137.594 146.226L134.054 182.749H59.5791L63.1191 146.226C63.4008 143.728 64.6852 141.41 66.7293 139.711C68.7734 138.012 71.4354 137.049 74.2114 137.005Z" fill="#F5F5F5"/>
<path d="M46.836 172.856H91.9969C93.2791 172.856 94.5088 173.317 95.4154 174.137C96.322 174.957 96.8314 176.069 96.8314 177.228V181.173C96.8322 181.748 96.7077 182.317 96.4651 182.848C96.2226 183.379 95.8666 183.861 95.4176 184.268C94.9686 184.675 94.4353 184.997 93.8484 185.217C93.2614 185.437 92.6323 185.55 91.9969 185.55H46.836C44.9745 185.55 43.1893 184.882 41.8731 183.691C40.5568 182.501 39.8174 180.887 39.8174 179.203C39.8174 177.52 40.5568 175.906 41.8731 174.715C43.1893 173.525 44.9745 172.856 46.836 172.856Z" fill="#E0E0E0"/>
<path d="M99.5312 157.488H143.214C145.251 157.488 147.204 158.22 148.645 159.523C150.086 160.825 150.895 162.592 150.895 164.434V199.942C150.895 201.785 150.086 203.551 148.645 204.854C147.204 206.157 145.251 206.889 143.214 206.889H99.5312V157.51V157.488Z" fill="#F0F0F0"/>
<path d="M99.8925 157.488H99.1685C94.9263 157.488 91.4873 160.598 91.4873 164.434V199.92C91.4873 203.756 94.9263 206.866 99.1685 206.866H99.8925C104.135 206.866 107.574 203.756 107.574 199.92V164.434C107.574 160.598 104.135 157.488 99.8925 157.488Z" fill="#F5F5F5"/>
<path d="M220.074 130.347H178.079V208.425H220.074V130.347Z" fill="#F0F0F0"/>
<path d="M184.361 202.345V136.428H183.392V202.345H184.361Z" fill="#E6E6E6"/>
<path d="M213.884 136.428H183.393V137.537H213.884V136.428Z" fill="#E6E6E6"/>
<path d="M263.039 130.347H221.044V208.425H263.039V130.347Z" fill="#F0F0F0"/>
<path d="M263.045 208.425H268.604V130.347H263.045V208.425Z" fill="#E0E0E0"/>
<path d="M227.326 202.345V136.428H226.357V202.345H227.326Z" fill="#E6E6E6"/>
<path d="M221.05 208.425V131.235H220.08V208.425H221.05Z" fill="#E6E6E6"/>
<path d="M256.848 136.428H226.356V137.537H256.848V136.428Z" fill="#E6E6E6"/>
<path d="M218.234 147.618H216.148V164.873H218.234V147.618Z" fill="#E0E0E0"/>
<path d="M224.971 147.618H222.885V164.873H224.971V147.618Z" fill="#E0E0E0"/>
<path d="M251.425 48.9287H37.2959V117.997H251.425V48.9287Z" fill="#E0E0E0"/>
<path d="M249.462 48.9287H35.333V117.997H249.462V48.9287Z" fill="#F0F0F0"/>
<path d="M243.038 112.188V54.7375L41.7559 54.7375V112.188L243.038 112.188Z" fill="#FAFAFA"/>
<path d="M74.4316 112.188L87.7695 54.7375H117.212L103.874 112.188H74.4316Z" fill="white"/>
<path d="M116.298 112.188L129.636 54.7375H144.36L131.016 112.188H116.298Z" fill="white"/>
<path d="M206.19 112.188L219.528 54.7375H234.253L220.909 112.188H206.19Z" fill="white"/>
<path d="M83.4501 39.7569C85.2331 36.0651 69.441 32.7188 64.6651 44.095C60.335 54.4154 53.1465 57.0515 56.5285 64.1984C60.1865 71.9339 80.8818 72.8617 89.8674 64.288C97.155 57.333 89.2448 54.4026 90.2636 47.8636C91.2825 41.3245 89.1457 39.1939 83.4501 39.7569Z" fill="#263238"/>
<path d="M54.6822 61.9078C53.8614 57.8769 55.517 56.2133 57.6113 54.1083C60.4415 51.5113 62.3803 48.2292 63.1938 44.658C63.6156 42.7077 64.6939 40.9231 66.281 39.5486C67.8681 38.1741 69.8863 37.277 72.0591 36.9801C76.7288 36.1995 81.6745 37.5815 82.9834 39.3346C83.1919 39.5816 83.3106 39.881 83.3233 40.1915C83.336 40.502 83.2419 40.8084 83.0542 41.0686L82.4599 40.7231C82.5743 40.5684 82.63 40.3842 82.6185 40.1984C82.607 40.0125 82.529 39.8351 82.3962 39.693C81.2358 38.1318 76.5237 36.8841 72.1936 37.6135C69.1017 38.1318 65.1183 39.7953 63.8872 44.7988C63.0488 48.4769 61.051 51.8568 58.1349 54.5306C56.0972 56.578 54.5973 58.0624 55.3826 61.7863L54.6822 61.9078Z" fill="#263238"/>
<path d="M44.9534 58.8429L44.5147 57.5633C44.2119 56.6937 43.6631 55.9107 42.9228 55.2919L41.5077 54.1274C41.0602 53.7532 40.4821 53.5323 39.8734 53.5031C39.2648 53.4739 38.664 53.6381 38.1752 53.9674L36.6611 54.9912C36.3844 55.1782 36.1514 55.413 35.9758 55.6821C35.8002 55.9511 35.6853 56.249 35.638 56.5585C35.5906 56.868 35.6116 57.1829 35.6998 57.485C35.7879 57.787 35.9416 58.0703 36.1517 58.3183L37.1281 59.47C37.1281 59.47 39.4205 62.9762 42.7388 64.1919L43.5029 63.6033C44.234 63.0257 44.7612 62.2665 45.0191 61.4202C45.277 60.5738 45.2541 59.6776 44.9534 58.8429Z" fill="#FFC3BD"/>
<path d="M72.4547 81.058L72.0018 81.3715L71.6339 81.6146L70.9264 82.0625C70.4523 82.344 69.9712 82.6063 69.5113 82.8623C68.5486 83.3626 67.5566 83.8155 66.5397 84.2187C64.4485 85.0528 62.2497 85.6461 59.995 85.9846C57.6143 86.3465 55.1847 86.3594 52.7994 86.023C51.5788 85.8494 50.3798 85.5687 49.2193 85.1849C48.9292 85.1017 48.6391 84.9929 48.3561 84.8841L47.9316 84.7242L47.7193 84.641L47.4859 84.5514L47.1887 84.4235C46.5712 84.1374 46.0018 83.7733 45.4977 83.3421C45.1353 83.0372 44.8016 82.7055 44.5001 82.3504C43.6996 81.3688 43.052 80.2923 42.5756 79.1513C42.1511 78.2043 41.8256 77.2958 41.5355 76.4064C41.0077 74.6854 40.5803 72.9405 40.2549 71.179C39.6086 67.7747 39.2467 64.3312 39.1724 60.8778C39.0848 60.2313 39.2731 59.5789 39.6989 59.0536C40.1247 58.5283 40.7559 58.1696 41.464 58.0505C42.1721 57.9314 42.9038 58.0609 43.5099 58.4126C44.1161 58.7644 44.5512 59.3119 44.7265 59.9436V60.014C45.9576 63.0788 47.1392 66.2203 48.3844 69.2019C49.0283 70.6863 49.6509 72.1643 50.3584 73.508C50.6981 74.1798 51.066 74.8196 51.4127 75.3763C51.6487 75.7841 51.9517 76.1573 52.3112 76.4832C52.3112 76.4832 52.3112 76.4832 52.2617 76.3936C52.0987 76.2406 51.9071 76.115 51.6957 76.0225L51.5612 75.9585C51.5188 75.9585 51.4339 75.9137 51.4834 75.9265H51.5966L51.816 75.9777C51.962 76.0187 52.1109 76.0508 52.2617 76.0737C52.859 76.1814 53.4645 76.2478 54.073 76.272C55.3468 76.3073 56.6201 76.1868 57.8583 75.9137C59.217 75.6038 60.5392 75.1753 61.8063 74.6341C62.4643 74.3653 63.1152 74.0518 63.752 73.7383C64.0704 73.5784 64.3817 73.4056 64.6789 73.2393L65.3864 72.8298L65.9383 72.5162C67.1815 71.8015 68.6826 71.5502 70.1264 71.8151C71.5701 72.08 72.8442 72.8404 73.6812 73.9368C74.5181 75.0331 74.8527 76.3801 74.6148 77.6948C74.3769 79.0095 73.5849 80.1897 72.4051 80.9876L72.4547 81.058Z" fill="#FFC3BD"/>
<path d="M98.4857 159.386C99.0022 126.601 95.6555 108.73 95.6555 108.73L68.833 109.94C68.833 109.94 72.8023 139.935 79.8493 162.028C81.7313 173.884 85.9694 193.937 88.9057 207.405C93.2625 207.068 97.57 206.33 101.762 205.204C102.787 193.373 102.971 176.271 98.4857 159.386Z" fill="black"/>
<path d="M87.4404 203.483C87.6739 204.609 88.3249 207.431 88.9687 208.422C89.0059 208.48 89.0572 208.528 89.1185 208.565C89.1798 208.602 89.2496 208.625 89.3225 208.633C94.3247 209.203 99.3199 208.294 101.351 207.475C101.407 207.455 101.459 207.424 101.501 207.384C101.544 207.344 101.577 207.297 101.598 207.245C102.164 205.889 102.369 203.035 102.433 201.832C102.437 201.767 102.424 201.702 102.395 201.642C102.367 201.582 102.324 201.529 102.269 201.486C102.215 201.444 102.15 201.413 102.08 201.396C102.011 201.38 101.938 201.378 101.867 201.391C97.231 202.168 92.5485 202.697 87.8437 202.977C87.7793 202.984 87.7172 203.003 87.6613 203.033C87.6054 203.062 87.5569 203.102 87.5189 203.15C87.481 203.197 87.4544 203.251 87.4409 203.309C87.4274 203.366 87.4272 203.425 87.4404 203.483Z" fill="#263238"/>
<path d="M69.1859 71.3901C65.2096 72.03 59.146 75.0692 59.146 75.0692C59.146 75.0692 55.955 81.9793 59.7757 86.9572C63.5398 87.7634 65.436 87.1043 65.436 87.1043L69.1859 71.3901Z" fill="#263238"/>
<path opacity="0.2" d="M59.7764 86.9571C63.5404 87.7633 65.4366 87.1043 65.4366 87.1043L65.3022 77.782C62.748 80.8916 60.6183 83.9755 59.7764 86.9571Z" fill="black"/>
<path opacity="0.2" d="M98.3433 140.044C95.3434 133.409 92.117 127.945 90.8788 122.954C88.7562 136.525 90.426 149.008 98.499 157.953C98.5909 151.349 98.5131 145.373 98.3433 140.044Z" fill="black"/>
<path d="M139.345 192.075L128.64 198.959C119.902 188.664 106.798 172.937 103.629 166.091C95.577 148.72 79.3887 110.426 79.3887 110.426L100.402 106.011C100.402 106.011 113.661 117.144 122.216 159.155C129.376 168.356 135.404 181.895 139.345 192.075Z" fill="black"/>
<path d="M144.771 208.365C144.771 208.365 142.925 202.491 139.302 193.694C136.566 196.037 133.539 198.085 130.281 199.798C135.397 206.682 139.14 211.628 139.14 211.628C141.314 211.032 143.264 209.903 144.771 208.365Z" fill="#FFC3BD"/>
<path d="M126.326 197.11C127.034 198.044 128.93 200.38 129.97 201.039C130.031 201.078 130.101 201.103 130.174 201.115C130.248 201.126 130.323 201.122 130.395 201.103C135.206 199.759 139.345 197.065 140.859 195.549C140.902 195.508 140.934 195.46 140.953 195.407C140.973 195.354 140.979 195.297 140.972 195.242C140.873 193.802 139.755 191.121 139.267 190.002C139.241 189.942 139.199 189.889 139.147 189.846C139.095 189.803 139.032 189.771 138.964 189.752C138.896 189.734 138.825 189.73 138.755 189.74C138.685 189.749 138.618 189.773 138.56 189.81C134.699 192.246 130.682 194.474 126.532 196.483C126.469 196.508 126.413 196.545 126.367 196.592C126.322 196.639 126.288 196.694 126.269 196.754C126.249 196.813 126.244 196.876 126.254 196.938C126.264 196.999 126.289 197.058 126.326 197.11Z" fill="#263238"/>
<path d="M63.1154 80.9364C64.0777 86.5989 60.349 90.9881 66.0871 93.5986C65.1319 97.9047 66.547 106.504 68.8181 109.914C72.0091 111.482 87.6172 109.166 100.374 106.005C100.19 101.078 95.7114 91.3848 96.9567 75.2483C97.0237 74.3656 96.8849 73.48 96.5492 72.6489C96.2135 71.8178 95.6884 71.0598 95.008 70.4239C94.3276 69.7881 93.507 69.2887 92.5994 68.958C91.6919 68.6274 90.7176 68.4729 89.7398 68.5045C88.6361 68.5045 87.4616 68.6005 86.2729 68.6965C82.0939 68.9391 77.9395 69.4522 73.8416 70.2321C72.5185 70.5136 71.153 70.8335 69.8582 71.1662C67.6074 71.7671 65.6782 73.0933 64.4357 74.8937C63.1931 76.6941 62.7234 78.8439 63.1154 80.9364Z" fill="#263238"/>
<path d="M72.1299 76.6303C72.1299 76.6303 76.1274 75.3122 78.2217 78.5498C81.7099 76.7774 86.613 69.285 86.2664 68.7156C80.4292 70.168 72.1299 76.6303 72.1299 76.6303Z" fill="white"/>
<path d="M72.1297 76.6302C72.1297 76.6302 69.0944 76.3039 68.2383 78.7353C68.2383 73.9366 71.8184 70.9166 73.382 70.3535C72.8372 71.6076 72.1297 76.6302 72.1297 76.6302Z" fill="white"/>
<path d="M84.7381 56.0151C84.2924 59.7581 84.2216 65.7725 86.2735 68.7221C86.2735 68.7221 78.4906 73.5401 72.1228 76.6304C70.1205 72.4396 73.3752 70.3537 73.3752 70.3537C76.4105 69.3044 76.3822 65.7917 75.9718 63.1044L84.7381 56.0151Z" fill="#FFC3BD"/>
<path opacity="0.2" d="M75.9854 63.1042L80.9381 59.0732C81.1044 59.8255 81.0507 60.604 80.7824 61.3318C79.9246 63.4289 78.2759 65.1849 76.1269 66.2905C76.2048 65.2269 76.1574 64.1587 75.9854 63.1042Z" fill="black"/>
<path d="M86.3371 49.06C85.6295 55.1384 85.5234 57.7169 82.0565 60.7241C76.8349 65.2477 68.8894 63.1747 67.5804 57.0451C66.3988 51.5234 67.6936 42.5146 74.2595 40.32C80.8254 38.1254 86.988 42.9881 86.3371 49.06Z" fill="#FFC3BD"/>
<path d="M84.8653 53.507C83.8279 52.6089 83.2215 51.3785 83.1765 50.0804C83.1315 48.7823 83.6516 47.52 84.6248 46.5649C86.3936 44.9461 88.87 48.2988 88.87 48.2988L84.8653 53.507Z" fill="#263238"/>
<path d="M76.6649 50.7427C76.6649 51.2418 76.3324 51.6321 75.9574 51.6193C75.5824 51.6065 75.3277 51.1906 75.3489 50.6979C75.3701 50.2053 75.6814 49.8085 76.0564 49.8213C76.4314 49.8341 76.6861 50.2244 76.6649 50.7427Z" fill="#263238"/>
<path d="M69.9149 50.5957C69.9149 51.0884 69.5895 51.4787 69.2074 51.4659C68.8253 51.4531 68.5777 51.0436 68.5989 50.5446C68.6201 50.0455 68.9244 49.6616 69.3065 49.6744C69.6885 49.6872 69.9362 50.0967 69.9149 50.5957Z" fill="#263238"/>
<path d="M69.462 49.7062L68.1602 49.3159C68.1602 49.3159 68.7969 50.2693 69.462 49.7062Z" fill="#263238"/>
<path d="M71.5777 50.7876C71.031 51.9032 70.3167 52.9453 69.4551 53.8844C69.727 54.0738 70.0412 54.2075 70.376 54.276C70.7108 54.3445 71.0581 54.3462 71.3937 54.2811L71.5777 50.7876Z" fill="#ED847E"/>
<path d="M74.4995 56.2262C74.1926 56.2655 73.8822 56.2783 73.5726 56.2646C73.5307 56.263 73.4911 56.2468 73.4621 56.2193C73.4331 56.1919 73.417 56.1554 73.417 56.1175C73.4179 56.0981 73.423 56.0792 73.432 56.0616C73.4411 56.0441 73.4538 56.0283 73.4696 56.0152C73.4854 56.0022 73.5039 55.992 73.524 55.9854C73.5441 55.9788 73.5654 55.9759 73.5868 55.9767C74.2681 56.0135 74.9494 55.9053 75.5761 55.6608C76.2027 55.4164 76.7573 55.0425 77.1952 54.5691C77.2066 54.5533 77.2214 54.5398 77.2387 54.5293C77.256 54.5188 77.2754 54.5115 77.2959 54.5079C77.3163 54.5044 77.3374 54.5045 77.3578 54.5084C77.3781 54.5123 77.3975 54.5199 77.4145 54.5307C77.4322 54.5416 77.4473 54.5556 77.459 54.5718C77.4707 54.588 77.4788 54.6061 77.4827 54.6251C77.4867 54.6441 77.4864 54.6637 77.482 54.6826C77.4776 54.7015 77.4691 54.7195 77.457 54.7354C76.7234 55.5616 75.6624 56.0965 74.4995 56.2262Z" fill="#263238"/>
<path d="M87.4551 54.1531C87.1925 54.6557 86.8144 55.1017 86.3458 55.4615C85.8772 55.8212 85.3291 56.0862 84.7381 56.2389C83.2311 56.578 82.5306 55.0808 82.9976 53.5836C83.4151 52.2336 84.7098 50.4357 86.1957 50.762C87.6815 51.0883 88.1838 52.8414 87.4551 54.1531Z" fill="#FFC3BD"/>
<path d="M82.8557 40.416C78.0927 43.1031 72.7447 44.8294 67.1768 45.4771C67.1768 41.107 76.6294 36.1995 82.8557 40.416Z" fill="#263238"/>
<path d="M79.205 40.9471C78.1083 44.786 89.1105 51.8242 86.9879 58.5935C90.5821 53.5325 87.9926 42.1435 87.9926 42.1435C87.9926 42.1435 78.7239 36.8394 79.205 40.9471Z" fill="#263238"/>
<path d="M78.0728 47.4796C78.0299 47.4742 77.9888 47.4605 77.9522 47.4396C77.9156 47.4186 77.8843 47.3908 77.8606 47.358C77.6421 47.0496 77.3463 46.7921 76.9972 46.6064C76.6481 46.4208 76.2554 46.3122 75.8512 46.2895C75.8091 46.2912 75.7671 46.2852 75.7277 46.2719C75.6883 46.2585 75.6523 46.238 75.6218 46.2117C75.5914 46.1854 75.5672 46.1538 75.5507 46.1188C75.5342 46.0837 75.5257 46.0461 75.5257 46.008C75.5238 45.9691 75.5306 45.9303 75.5458 45.8939C75.5609 45.8575 75.584 45.8242 75.6138 45.7961C75.6436 45.768 75.6793 45.7456 75.7189 45.7303C75.7585 45.7151 75.8011 45.7072 75.8441 45.7073C76.3549 45.7273 76.853 45.8581 77.2963 46.0886C77.7395 46.3191 78.1151 46.6426 78.3912 47.0317C78.4152 47.0631 78.4321 47.0985 78.4408 47.1359C78.4496 47.1733 78.45 47.2118 78.4421 47.2493C78.4342 47.2869 78.4181 47.3226 78.3948 47.3544C78.3715 47.3863 78.3414 47.4136 78.3063 47.4348C78.2726 47.4558 78.2346 47.4706 78.1945 47.4782C78.1544 47.4859 78.1131 47.4864 78.0728 47.4796Z" fill="#263238"/>
<path d="M66.9291 47.2685C66.8465 47.2633 66.7687 47.2315 66.7098 47.1789C66.6798 47.1522 66.656 47.1203 66.6398 47.0851C66.6236 47.05 66.6152 47.0123 66.6152 46.9742C66.6152 46.9361 66.6236 46.8984 66.6398 46.8632C66.656 46.8281 66.6798 46.7962 66.7098 46.7694C67.0627 46.4341 67.4993 46.1801 67.9831 46.0288C68.4669 45.8774 68.9837 45.833 69.4904 45.8993C69.5734 45.9161 69.6458 45.9618 69.6921 46.0264C69.7384 46.0909 69.7549 46.1693 69.738 46.2448C69.7296 46.2824 69.713 46.3181 69.6891 46.3498C69.6653 46.3815 69.6347 46.4086 69.5991 46.4294C69.5635 46.4503 69.5236 46.4645 69.4819 46.4713C69.4401 46.478 69.3973 46.4771 69.3559 46.4687C68.9543 46.4224 68.5463 46.4626 68.1651 46.586C67.7839 46.7094 67.4404 46.9126 67.1626 47.1789C67.1009 47.2355 67.017 47.2677 66.9291 47.2685Z" fill="#263238"/>
<path d="M76.212 49.8534L74.9102 49.4695C74.9102 49.4695 75.5399 50.4228 76.212 49.8534Z" fill="#263238"/>
<path opacity="0.2" d="M96.7867 78.377C96.6596 81.7932 96.7848 85.2132 97.1617 88.6143C93.624 85.236 89.1807 78.8569 88.8906 75.6577L96.7867 78.377Z" fill="black"/>
<path d="M119.888 66.361L120.659 62.2981L127.642 64.7358C127.642 64.7358 126.022 68.5172 123.043 70.1872L122.215 69.7137C121.566 69.3565 121.018 68.8676 120.614 68.2857C120.21 67.7038 119.961 67.0449 119.888 66.361Z" fill="#FFC3BD"/>
<path d="M125.017 60.0331L127.317 61.1656C127.819 61.4121 128.193 61.8283 128.358 62.3233C128.522 62.8183 128.463 63.3521 128.194 63.8081L127.649 64.7358L120.666 62.2981L122.329 60.5001C122.65 60.1551 123.092 59.9204 123.581 59.8353C124.071 59.7503 124.578 59.8201 125.017 60.0331Z" fill="#FFC3BD"/>
<path d="M95.5418 70.9999L96.4333 71.8317L97.4026 72.7211C98.0606 73.3033 98.7186 73.8984 99.3978 74.4614C100.742 75.6067 102.129 76.6688 103.523 77.6606C104.837 78.5928 106.234 79.4273 107.697 80.1559C108.816 80.7251 110.034 81.1188 111.299 81.3204L109.395 81.6403C108.928 81.845 108.957 81.9346 109.056 81.8642C109.247 81.7485 109.422 81.6133 109.579 81.4612C110.097 80.974 110.57 80.4498 110.994 79.8936C111.957 78.6587 112.933 77.2575 113.824 75.8051C114.716 74.3526 115.664 72.8618 116.577 71.3263L119.301 66.7707V66.7323C119.62 66.1894 120.143 65.7669 120.775 65.5404C121.407 65.3138 122.108 65.298 122.752 65.4957C123.396 65.6934 123.941 66.0917 124.29 66.6195C124.639 67.1473 124.769 67.7701 124.657 68.3766C124.331 70.2193 123.885 71.9597 123.39 73.732C122.895 75.5043 122.364 77.2575 121.657 79.017C120.963 80.8313 120.141 82.603 119.195 84.3212C118.646 85.2885 118.024 86.2205 117.334 87.1108C116.898 87.66 116.411 88.1738 115.876 88.6464C115.085 89.3599 114.151 89.9309 113.124 90.3292C112.62 90.5234 112.08 90.6298 111.532 90.6427H111.221C108.425 90.6574 105.658 90.1317 103.105 89.1007C101.979 88.6651 100.878 88.176 99.8082 87.6355C98.7846 87.0895 97.7964 86.5243 96.8436 85.94C94.9921 84.7675 93.2288 83.485 91.5655 82.101C90.7518 81.4228 89.9452 80.7381 89.174 80.0151C88.7919 79.6568 88.4028 79.2985 88.0278 78.921C87.6528 78.5435 87.3203 78.198 86.8604 77.7181C85.8433 76.7 85.3152 75.3582 85.3921 73.9879C85.4691 72.6176 86.1448 71.331 87.2707 70.4113C88.3966 69.4916 89.8804 69.014 91.3957 69.0836C92.911 69.1531 94.3337 69.7642 95.3508 70.7824L95.5418 70.9999Z" fill="#FFC3BD"/>
<path d="M90.0518 68.5364C95.238 68.6771 100.396 74.2948 100.396 74.2948C100.396 74.2948 98.4007 81.7488 92.7192 84.9608C89.5212 82.7086 86.8113 80.9043 86.8113 80.9043C82.2902 74.9091 83.7973 70.9293 90.0518 68.5364Z" fill="#263238"/>
<path d="M67.7858 109.498C68.1679 111.501 68.6278 113.075 68.7764 113.555C68.7907 113.606 68.8163 113.653 68.8515 113.695C68.8868 113.737 68.931 113.772 68.9816 113.798C69.7386 114.175 73.1914 115.717 79.5309 115.378C86.6062 115.033 96.9857 111.539 102.37 107.822C102.448 107.767 102.505 107.69 102.53 107.603C102.556 107.517 102.549 107.425 102.511 107.342C102.096 106.508 101.611 105.704 101.061 104.936C101.007 104.863 100.929 104.807 100.837 104.777C100.745 104.747 100.645 104.744 100.552 104.77C98.2309 105.41 83.6204 109.191 68.2316 109.025C68.1663 109.025 68.1018 109.038 68.0425 109.063C67.9832 109.088 67.9306 109.124 67.8883 109.169C67.846 109.214 67.8149 109.266 67.7972 109.323C67.7795 109.38 67.7756 109.44 67.7858 109.498Z" fill="black"/>
<path opacity="0.3" d="M67.7858 109.498C68.1679 111.501 68.6278 113.075 68.7764 113.555C68.7907 113.606 68.8163 113.653 68.8515 113.695C68.8868 113.737 68.931 113.772 68.9816 113.798C69.7386 114.175 73.1914 115.717 79.5309 115.378C86.6062 115.033 96.9857 111.539 102.37 107.822C102.448 107.767 102.505 107.69 102.53 107.603C102.556 107.517 102.549 107.425 102.511 107.342C102.096 106.508 101.611 105.704 101.061 104.936C101.007 104.863 100.929 104.807 100.837 104.777C100.745 104.747 100.645 104.744 100.552 104.77C98.2309 105.41 83.6204 109.191 68.2316 109.025C68.1663 109.025 68.1018 109.038 68.0425 109.063C67.9832 109.088 67.9306 109.124 67.8883 109.169C67.846 109.214 67.8149 109.266 67.7972 109.323C67.7795 109.38 67.7756 109.44 67.7858 109.498Z" fill="white"/>
<path d="M209.582 213.004H116.428C114.705 213.018 112.998 212.71 111.413 212.098C109.828 211.487 108.4 210.586 107.22 209.451C106.039 208.316 105.13 206.973 104.551 205.506C103.972 204.038 103.735 202.478 103.856 200.924L115.176 25.8344C115.434 22.5844 117.031 19.5403 119.651 17.3037C122.271 15.067 125.724 13.8005 129.327 13.7544H222.502C224.224 13.74 225.932 14.0482 227.517 14.6596C229.102 15.271 230.53 16.1723 231.71 17.3069C232.891 18.4416 233.8 19.7849 234.379 21.2524C234.958 22.72 235.195 24.28 235.074 25.8344L223.719 200.924C223.46 204.171 221.866 207.214 219.248 209.45C216.631 211.686 213.182 212.954 209.582 213.004Z" fill="black"/>
<path opacity="0.8" d="M209.582 213.004H116.428C114.705 213.018 112.998 212.71 111.413 212.098C109.828 211.487 108.4 210.586 107.22 209.451C106.039 208.316 105.13 206.973 104.551 205.506C103.972 204.038 103.735 202.478 103.856 200.924L115.176 25.8344C115.434 22.5844 117.031 19.5403 119.651 17.3037C122.271 15.067 125.724 13.8005 129.327 13.7544H222.502C224.224 13.74 225.932 14.0482 227.517 14.6596C229.102 15.271 230.53 16.1723 231.71 17.3069C232.891 18.4416 233.8 19.7849 234.379 21.2524C234.958 22.72 235.195 24.28 235.074 25.8344L223.719 200.924C223.46 204.171 221.866 207.214 219.248 209.45C216.631 211.686 213.182 212.954 209.582 213.004Z" fill="white"/>
<path d="M209.03 209.497H118.466C117.255 209.508 116.055 209.292 114.942 208.862C113.828 208.433 112.824 207.8 111.994 207.004C111.164 206.207 110.526 205.263 110.119 204.232C109.711 203.201 109.545 202.105 109.629 201.013L120.949 26.6852C121.131 24.4073 122.247 22.2732 124.08 20.7021C125.913 19.1311 128.33 18.2367 130.855 18.1946H221.419C222.629 18.185 223.829 18.4019 224.943 18.8317C226.057 19.2616 227.06 19.8951 227.89 20.6925C228.72 21.4899 229.359 22.4339 229.766 23.4652C230.173 24.4965 230.34 25.5928 230.256 26.6852L218.935 201.013C218.754 203.29 217.636 205.424 215.803 206.994C213.97 208.564 211.554 209.457 209.03 209.497Z" fill="black"/>
<path d="M208.054 208.563H117.49C116.279 208.573 115.079 208.356 113.965 207.926C112.852 207.496 111.848 206.863 111.019 206.065C110.189 205.268 109.55 204.324 109.143 203.293C108.736 202.261 108.569 201.165 108.653 200.073L119.973 25.7447C120.155 23.4669 121.272 21.3328 123.105 19.7617C124.938 18.1906 127.354 17.2962 129.879 17.2542H220.443C221.654 17.2445 222.854 17.4614 223.968 17.8913C225.081 18.3211 226.085 18.9547 226.914 19.7521C227.744 20.5494 228.383 21.4935 228.79 22.5248C229.197 23.5561 229.364 24.6523 229.28 25.7447L217.96 200.073C217.778 202.35 216.661 204.485 214.828 206.056C212.995 207.627 210.579 208.521 208.054 208.563Z" fill="white"/>
<path opacity="0.1" d="M205.408 202.082H120.95C120.201 202.088 119.46 201.954 118.772 201.688C118.083 201.422 117.463 201.031 116.95 200.538C116.437 200.045 116.042 199.462 115.791 198.825C115.539 198.188 115.436 197.51 115.488 196.835L120.242 124.118C120.354 122.707 121.046 121.385 122.184 120.414C123.321 119.443 124.819 118.892 126.384 118.872H210.806C211.555 118.866 212.296 119 212.984 119.265C213.673 119.531 214.293 119.922 214.806 120.415C215.319 120.908 215.714 121.491 215.965 122.128C216.217 122.766 216.32 123.443 216.268 124.118L211.549 196.835C211.438 198.246 210.745 199.568 209.608 200.539C208.471 201.511 206.972 202.061 205.408 202.082Z" fill="black"/>
<path opacity="0.1" d="M186.651 30.185H162.036C161.768 30.1874 161.503 30.1396 161.257 30.0448C161.011 29.95 160.789 29.8102 160.606 29.6341C160.422 29.458 160.281 29.2495 160.191 29.0217C160.101 28.7939 160.064 28.5517 160.083 28.3103C160.122 27.8044 160.37 27.3301 160.777 26.9817C161.185 26.6332 161.722 26.436 162.283 26.4292H186.891C187.162 26.4232 187.431 26.4685 187.681 26.5621C187.931 26.6557 188.156 26.7956 188.343 26.9728C188.529 27.15 188.673 27.3605 188.764 27.5909C188.855 27.8212 188.892 28.0663 188.872 28.3103C188.833 28.819 188.582 29.2953 188.169 29.6431C187.757 29.991 187.214 30.1847 186.651 30.185Z" fill="black"/>
<path opacity="0.1" d="M196.444 100.367C211.601 87.0561 212.636 65.7867 198.755 52.8605C184.874 39.9342 161.334 40.2461 146.176 53.557C131.019 66.8678 129.984 88.1372 143.865 101.063C157.746 113.99 181.286 113.678 196.444 100.367Z" fill="black"/>
<path d="M145.288 99.2163C142.191 96.2345 139.809 92.7062 138.29 88.8526C136.772 84.999 136.151 80.9032 136.465 76.8223H137.173C136.866 80.8156 137.475 84.8231 138.96 88.5939C140.445 92.3647 142.775 95.8176 145.805 98.7364L145.288 99.2163Z" fill="black"/>
<path d="M206.15 77.0972L205.443 77.0589C205.636 74.2403 205.398 71.4111 204.735 68.6515L205.443 68.5107C206.12 71.3292 206.358 74.2192 206.15 77.0972Z" fill="black"/>
<path d="M202.684 63.0852C200.952 59.611 198.475 56.4822 195.396 53.8803C192.318 51.2784 188.698 49.255 184.748 47.9276L184.996 47.3262C189.036 48.6809 192.738 50.7494 195.885 53.411C199.033 56.0727 201.563 59.2743 203.328 62.8292L202.684 63.0852Z" fill="black"/>
<path d="M193.21 97.3557C206.419 85.7558 207.322 67.2215 195.227 55.9583C183.132 44.6951 162.619 44.968 149.409 56.568C136.2 68.1679 135.297 86.7022 147.392 97.9654C159.487 109.229 180 108.956 193.21 97.3557Z" fill="black"/>
<path d="M167.71 80.9364C169.267 80.6228 169.996 79.42 170.328 78.0507C170.364 77.9036 170.392 77.7628 170.42 77.6221V77.4941C170.505 76.9234 170.552 76.3487 170.562 75.7729C169.055 75.6381 167.655 75.0067 166.63 73.9991C165.604 72.9915 165.024 71.678 165 70.3088C164.922 67.5936 165.588 64.9032 166.939 62.4773C166.591 62.5184 166.262 62.6421 165.984 62.8356C165.957 62.8541 165.926 62.8671 165.893 62.8738C165.86 62.8804 165.826 62.8805 165.793 62.874C165.732 62.8644 165.676 62.8348 165.637 62.7908C165.6 62.7427 165.584 62.6834 165.593 62.6251C165.602 62.5668 165.636 62.5139 165.687 62.4773C166.127 62.1766 166.664 62.0147 167.215 62.0166C167.321 61.8631 167.42 61.7031 167.526 61.5559C167.074 61.5559 166.635 61.5559 166.21 61.5559C166.677 58.5999 172.967 56.1174 177.255 58.3568C179.165 58.7023 182.321 61.172 182.321 61.172C182.384 62.7451 182.334 64.3203 182.172 65.8876C181.889 68.5621 181.189 71.7036 179.484 73.4568C179.908 72.5599 180.064 71.5781 179.936 70.6095C179.528 70.975 179.02 71.2375 178.465 71.3709C178.263 71.763 178.027 72.1396 177.757 72.497C177.092 75.2419 176.618 78.8953 177.63 81.0003C178.543 81.0515 179.427 81.1283 180.269 81.2115L180.474 81.2435C181.03 80.9484 181.564 80.6214 182.073 80.2645C188.441 75.7857 181.684 70.5263 183.276 65.7084C184.868 60.8905 183.524 59.0606 179.172 58.9071C180.977 56.3029 169.515 52.1441 164.477 60.2251C159.913 67.5511 158.442 71.211 160.083 76.9374C160.7 78.809 162.098 80.3901 163.982 81.3458C164.302 81.2665 164.628 81.2067 164.958 81.1667C165.857 81.0899 166.791 81.0003 167.71 80.9364Z" fill="#263238"/>
<path d="M157.812 92.1974C157.552 91.782 157.316 91.3548 157.105 90.9177C156.623 92.1974 156.149 93.477 155.69 94.7567C155.251 95.9084 154.833 97.0601 154.395 98.1606L153.737 99.7154L153.454 100.355C153.355 100.528 153.454 100.426 153.454 100.477C153.152 100.794 152.818 101.086 152.456 101.347C152.378 101.417 152.279 101.481 152.194 101.545C154.152 102.739 156.258 103.721 158.47 104.469C158.52 101.545 158.916 98.5061 159.34 97.6935C156.793 96.0939 157.175 94.3728 157.812 92.1974Z" fill="#FFC3BD"/>
<path d="M160.287 83.5659L160.111 83.7881C160.167 83.7119 160.231 83.6421 160.294 83.5723L160.287 83.5659Z" fill="#263238"/>
<path d="M158.654 87.8527C158.643 86.4443 159.115 85.0675 160.005 83.9114C158.649 85.8412 157.533 87.9013 156.68 90.0537C156.68 90.0537 156.807 90.3928 157.076 90.9239C157.288 91.361 157.524 91.7881 157.783 92.2036C158.288 90.7951 158.581 89.3317 158.654 87.8527Z" fill="#263238"/>
<path d="M183.318 97.1368C182.48 96.0222 181.735 94.8523 181.09 93.6369C180.877 93.7393 180.658 93.8416 180.432 93.9312C178.309 91.9029 176.498 90.265 176.498 90.265C173.852 85.2743 175.486 82.4335 180.502 81.2754C181.281 81.4203 182.024 81.6912 182.696 82.0752C182.034 81.6545 181.274 81.3785 180.474 81.269L180.269 81.237C179.427 81.1538 178.543 81.077 177.63 81.0259C177.828 81.4929 173.286 87.4241 170.434 88.3647C169.267 85.703 165.991 85.5239 165.991 85.5239C165.991 85.5239 162.934 84.9544 161.986 86.6947C162.609 83.0989 166.437 81.205 167.71 80.9363C166.79 81.0067 165.857 81.0962 164.958 81.1986C164.628 81.2386 164.302 81.2984 163.982 81.3778C162.526 81.7389 161.234 82.5098 160.295 83.5788C160.232 83.6492 160.168 83.7195 160.111 83.7963L160.005 83.9179C159.116 85.074 158.643 86.4508 158.654 87.8592C158.589 89.3349 158.306 90.7961 157.812 92.2037C157.175 94.3535 156.793 96.1002 159.291 97.6998C158.866 98.5124 158.47 101.539 158.42 104.476C161.937 105.654 165.658 106.253 169.408 106.242C174.21 106.235 178.954 105.294 183.318 103.484C183.197 101.102 183.218 98.7165 183.382 96.337C183.361 96.5929 183.333 96.8744 183.318 97.1368Z" fill="#263238"/>
<path d="M165.991 85.5239C165.991 85.5239 169.267 85.703 170.435 88.3647C173.265 87.3922 177.828 81.493 177.63 81.0259C177.63 81.0259 171.184 83.8539 165.991 85.5239Z" fill="white"/>
<path d="M167.724 80.9363C166.45 81.2114 162.623 83.1053 162 86.6947C162.948 84.9544 166.005 85.5239 166.005 85.5239C165.014 82.1584 167.724 80.9363 167.724 80.9363Z" fill="white"/>
<path d="M177.757 72.5225C177.142 73.3292 176.365 74.0238 175.465 74.5699C175.087 74.8161 174.684 75.0303 174.262 75.2097C173.335 76.555 171.953 77.5939 170.321 78.1721V78.0634C169.989 79.4326 169.26 80.6227 167.703 80.949C167.703 80.949 164.994 82.1775 165.97 85.543C171.17 83.873 177.609 81.0642 177.609 81.0642C176.618 78.9271 177.092 75.2673 177.757 72.5225Z" fill="#FFC3BD"/>
<path d="M170.342 78.0442C170.377 77.897 170.405 77.7562 170.434 77.6155C170.405 77.737 170.377 77.897 170.342 78.0442Z" fill="#263238"/>
<path opacity="0.2" d="M170.342 78.0442C170.377 77.897 170.405 77.7562 170.434 77.6155C170.405 77.737 170.377 77.897 170.342 78.0442Z" fill="black"/>
<path d="M170.597 75.7666C170.587 76.3423 170.54 76.9171 170.455 77.4877C170.543 76.9174 170.59 76.3425 170.597 75.7666Z" fill="#263238"/>
<path opacity="0.2" d="M170.597 75.7666C170.587 76.3423 170.54 76.9171 170.455 77.4877C170.543 76.9174 170.59 76.3425 170.597 75.7666Z" fill="black"/>
<path d="M174.262 75.178C173.122 75.6717 171.854 75.871 170.597 75.7538C170.591 76.3297 170.543 76.9046 170.455 77.475V77.6029C170.455 77.7437 170.399 77.8845 170.363 78.0316V78.1404C171.98 77.5552 173.346 76.5169 174.262 75.178Z" fill="#FFC3BD"/>
<path opacity="0.2" d="M174.262 75.178C173.122 75.6717 171.854 75.871 170.597 75.7538C170.591 76.3297 170.543 76.9046 170.455 77.475V77.6029C170.455 77.7437 170.399 77.8845 170.363 78.0316V78.1404C171.98 77.5552 173.346 76.5169 174.262 75.178Z" fill="black"/>
<path d="M174.262 75.1779C174.684 74.9985 175.086 74.7843 175.465 74.5381C176.364 73.992 177.142 73.2974 177.757 72.4906C178.026 72.1333 178.263 71.7566 178.464 71.3645C178.33 71.3645 178.196 71.4285 178.068 71.4413C176.887 71.5373 176.554 70.3344 177.092 69.2595C177.274 68.896 177.512 68.5578 177.799 68.255C177.491 67.3415 177.566 66.357 178.012 65.4909C176.936 63.4946 175.797 61.6519 175.691 60.3147C173.044 61.0547 170.296 61.4616 167.526 61.524C167.42 61.6711 167.321 61.8311 167.215 61.9847C167.455 61.9838 167.693 62.0161 167.922 62.0806C167.952 62.0906 167.979 62.1058 168.003 62.1254C168.026 62.1449 168.045 62.1685 168.058 62.1947C168.071 62.2209 168.078 62.2491 168.079 62.2779C168.08 62.3066 168.075 62.3353 168.064 62.3621C168.041 62.4168 167.996 62.4613 167.938 62.4864C167.88 62.5115 167.813 62.5151 167.752 62.4965C167.498 62.4267 167.23 62.4093 166.967 62.4453C165.635 64.8733 164.986 67.5612 165.078 70.2704C165.102 71.6397 165.682 72.9531 166.707 73.9607C167.733 74.9683 169.132 75.5997 170.639 75.7346C171.88 75.8506 173.133 75.6581 174.262 75.1779ZM172.684 62.6117C173.069 62.6802 173.43 62.8325 173.736 63.0554C174.042 63.2784 174.283 63.5653 174.439 63.8913C174.466 63.945 174.47 64.0062 174.448 64.0622C174.427 64.1182 174.383 64.1647 174.325 64.1921C174.267 64.2141 174.2 64.2141 174.141 64.1921C174.11 64.1842 174.08 64.1696 174.056 64.1496C174.031 64.1296 174.012 64.1047 174 64.0769C173.871 63.8185 173.675 63.5922 173.429 63.4172C173.183 63.2423 172.893 63.1239 172.585 63.0724C172.521 63.0629 172.464 63.0318 172.424 62.9855C172.385 62.9392 172.366 62.881 172.373 62.8228C172.376 62.7901 172.386 62.7583 172.404 62.7297C172.422 62.7012 172.447 62.6766 172.477 62.6576C172.507 62.6387 172.54 62.6259 172.576 62.6202C172.612 62.6145 172.649 62.6159 172.684 62.6245V62.6117ZM172.436 65.7724C172.554 65.8526 172.642 65.9642 172.686 66.0916C172.731 66.219 172.73 66.3557 172.684 66.4826C172.606 66.8537 172.323 67.1225 172.054 67.0649C171.785 67.0073 171.63 66.681 171.708 66.3099C171.747 66.1218 171.854 65.9508 172.012 65.8236C171.791 65.7181 171.619 65.546 171.524 65.3373L172.436 65.7724ZM166.635 65.5037C166.673 65.3186 166.777 65.1499 166.932 65.0238C166.715 64.9131 166.545 64.7395 166.451 64.5312L167.377 64.9599C167.492 65.043 167.576 65.1547 167.62 65.2811C167.664 65.4075 167.666 65.5428 167.625 65.6701C167.54 66.0412 167.264 66.3099 166.995 66.2587C166.727 66.2075 166.557 65.8876 166.635 65.5165V65.5037ZM168.276 68.6133C168.014 68.6273 167.751 68.5893 167.507 68.502C167.262 68.4147 167.042 68.2802 166.861 68.1078C167.619 67.4871 168.28 66.7769 168.828 65.9964L168.276 68.6133ZM169.642 70.328C169.61 70.3205 169.583 70.3023 169.566 70.2774C169.549 70.2524 169.543 70.2224 169.55 70.1937C169.556 70.1658 169.575 70.1414 169.601 70.1259C169.628 70.1103 169.66 70.1048 169.691 70.1105C170.202 70.2099 170.731 70.1992 171.236 70.0791C171.742 69.9591 172.208 69.7331 172.599 69.4195C172.61 69.409 172.624 69.4005 172.638 69.3947C172.653 69.3889 172.669 69.3857 172.685 69.3854C172.701 69.3851 172.717 69.3877 172.732 69.393C172.747 69.3983 172.761 69.4062 172.772 69.4163C172.784 69.4263 172.793 69.4384 172.8 69.4517C172.806 69.4651 172.81 69.4794 172.81 69.494C172.81 69.5085 172.808 69.523 172.802 69.5366C172.796 69.5501 172.787 69.5625 172.776 69.573C172.118 70.1207 171.25 70.4145 170.356 70.392C170.117 70.3901 169.878 70.373 169.642 70.3408V70.328Z" fill="#FFC3BD"/>
<path d="M178.967 67.4999C178.67 66.8601 178.33 66.1755 177.983 65.5356C177.538 66.4018 177.462 67.3862 177.771 68.2997C178.085 67.9426 178.497 67.6667 178.967 67.4999Z" fill="#263238"/>
<path d="M171.998 65.8427C171.84 65.9698 171.733 66.1409 171.694 66.329C171.616 66.7001 171.772 67.0392 172.041 67.084C172.309 67.1287 172.592 66.8728 172.67 66.5017C172.716 66.3748 172.717 66.238 172.672 66.1107C172.628 65.9833 172.541 65.8717 172.423 65.7915C172.363 65.8327 172.292 65.8591 172.218 65.8681C172.143 65.8771 172.068 65.8683 171.998 65.8427Z" fill="#263238"/>
<path d="M167.647 65.6892C167.688 65.5619 167.686 65.4266 167.642 65.3002C167.598 65.1739 167.513 65.0621 167.399 64.979C167.338 65.0196 167.267 65.0461 167.191 65.0562C167.116 65.0662 167.039 65.0595 166.968 65.0366C166.813 65.1627 166.709 65.3313 166.67 65.5165C166.593 65.8876 166.748 66.2267 167.017 66.2779C167.286 66.329 167.527 66.0603 167.647 65.6892Z" fill="#263238"/>
<path d="M167.363 64.979L166.437 64.5503C166.531 64.7587 166.701 64.9322 166.918 65.043C166.992 65.0672 167.072 65.0741 167.15 65.0629C167.228 65.0517 167.301 65.0228 167.363 64.979Z" fill="#263238"/>
<path d="M166.868 68.1398C167.049 68.3121 167.269 68.4467 167.514 68.534C167.758 68.6213 168.021 68.6592 168.283 68.6452L168.842 66.0283C168.292 66.8092 167.628 67.5195 166.868 68.1398Z" fill="#ED847E"/>
<path d="M172.762 69.4195C172.738 69.3988 172.706 69.3872 172.673 69.3872C172.64 69.3872 172.609 69.3988 172.585 69.4195C172.196 69.7312 171.731 69.9561 171.229 70.0761C170.726 70.1961 170.199 70.2079 169.691 70.1105C169.66 70.1048 169.628 70.1103 169.601 70.1259C169.575 70.1415 169.556 70.1658 169.549 70.1937C169.543 70.2225 169.549 70.2524 169.566 70.2774C169.583 70.3024 169.61 70.3205 169.641 70.3281C169.875 70.3642 170.112 70.3856 170.349 70.392C171.243 70.4146 172.111 70.1207 172.769 69.5731C172.789 69.5512 172.799 69.5234 172.798 69.4951C172.796 69.4667 172.784 69.4398 172.762 69.4195Z" fill="#263238"/>
<path d="M178.967 67.5C178.497 67.6668 178.085 67.9427 177.771 68.2998C177.484 68.6026 177.245 68.9409 177.063 69.3043C176.526 70.3792 176.858 71.5821 178.04 71.4861C178.167 71.4861 178.301 71.4349 178.436 71.4094C178.991 71.2759 179.499 71.0134 179.908 70.648C179.759 69.5638 179.443 68.504 178.967 67.5Z" fill="#FFC3BD"/>
<path d="M175.826 59.387C175.868 58.4656 176.448 58.2417 177.241 58.3824C172.953 56.1175 166.663 58.6 166.196 61.5816C166.621 61.5816 167.059 61.5816 167.512 61.5816C170.282 61.5193 173.03 61.1123 175.677 60.3723C175.636 60.0378 175.687 59.6993 175.826 59.387Z" fill="#263238"/>
<path d="M175.826 59.3869C175.692 59.6914 175.641 60.0206 175.677 60.3467C175.784 61.7031 176.923 63.5458 177.998 65.5229C178.345 66.1627 178.706 66.8025 178.982 67.4871C179.458 68.4911 179.775 69.5509 179.923 70.6351C180.05 71.6037 179.894 72.5855 179.47 73.4823C181.175 71.7292 181.875 68.5877 182.158 65.9132C182.321 64.3459 182.37 62.7707 182.307 61.1976C182.307 61.1976 179.151 58.7279 177.241 58.3824C176.449 58.2416 175.868 58.4656 175.826 59.3869Z" fill="#263238"/>
<path d="M172.599 63.0659C172.908 63.1175 173.197 63.2358 173.444 63.4107C173.69 63.5857 173.886 63.8121 174.014 64.0704C174.027 64.0983 174.046 64.1232 174.07 64.1432C174.095 64.1632 174.124 64.1777 174.156 64.1856C174.215 64.2076 174.281 64.2076 174.34 64.1856C174.398 64.1582 174.442 64.1117 174.463 64.0557C174.484 63.9997 174.481 63.9386 174.453 63.8849C174.297 63.5588 174.056 63.2719 173.751 63.049C173.445 62.8261 173.084 62.6737 172.699 62.6052C172.634 62.598 172.569 62.614 172.517 62.65C172.465 62.6859 172.431 62.7388 172.423 62.7972C172.409 62.8539 172.42 62.913 172.453 62.9628C172.486 63.0127 172.538 63.0495 172.599 63.0659Z" fill="#263238"/>
<path d="M167.71 62.5282C167.771 62.5468 167.838 62.5432 167.896 62.5181C167.954 62.4931 167.999 62.4485 168.022 62.3939C168.033 62.367 168.038 62.3384 168.037 62.3096C168.036 62.2809 168.029 62.2526 168.016 62.2264C168.003 62.2002 167.984 62.1767 167.961 62.1571C167.937 62.1375 167.91 62.1223 167.88 62.1124C167.651 62.0479 167.412 62.0155 167.172 62.0164C166.621 62.0145 166.084 62.1763 165.644 62.4771C165.593 62.5137 165.56 62.5666 165.55 62.6249C165.541 62.6832 165.557 62.7425 165.595 62.7906C165.634 62.8346 165.689 62.8642 165.75 62.8738C165.783 62.8802 165.818 62.8802 165.851 62.8735C165.884 62.8669 165.915 62.8539 165.941 62.8354C166.219 62.6418 166.549 62.5182 166.897 62.4771C167.169 62.437 167.447 62.4546 167.71 62.5282Z" fill="#263238"/>
<path d="M171.997 65.8427C172.067 65.8683 172.143 65.877 172.217 65.868C172.292 65.8591 172.362 65.8327 172.422 65.7915L171.495 65.3628C171.595 65.5712 171.773 65.7411 171.997 65.8427Z" fill="#263238"/>
<path d="M183.319 97.1368C183.319 96.8745 183.361 96.593 183.375 96.3242C182.979 95.7548 182.576 95.1789 182.158 94.6095L181.345 93.5154L181.09 93.6369C181.735 94.8524 182.48 96.0223 183.319 97.1368Z" fill="#263238"/>
<path opacity="0.2" d="M183.319 97.1368C183.319 96.8745 183.361 96.593 183.375 96.3242C182.979 95.7548 182.576 95.1789 182.158 94.6095L181.345 93.5154L181.09 93.6369C181.735 94.8524 182.48 96.0223 183.319 97.1368Z" fill="black"/>
<path d="M185.419 102.435V102.537C188.241 101.158 190.841 99.4358 193.146 97.4183C192.759 96.3862 192.306 95.3756 191.787 94.3919C191.101 93.054 190.338 91.7491 189.502 90.4826C188.794 89.3821 188.044 88.3328 187.273 87.2834C186.566 88.6207 184.556 91.839 181.365 93.4962L182.179 94.5903C182.596 95.1597 183 95.7356 183.396 96.305C183.743 96.8041 184.103 97.3096 184.393 97.8086C184.938 98.6724 185.448 99.5426 185.809 100.368L185.738 100.803C185.653 101.334 185.547 101.878 185.419 102.435Z" fill="#FFC3BD"/>
<path d="M176.498 90.265C176.498 90.265 178.309 91.9029 180.432 93.9312C180.658 93.8416 180.878 93.7393 181.09 93.6369L181.345 93.5153C184.535 91.8582 186.531 88.6398 187.252 87.3026C187.458 86.9251 187.564 86.6947 187.564 86.6947C187.564 86.6947 185.512 83.6236 182.696 82.0752C182.024 81.6912 181.281 81.4203 180.503 81.2754C175.486 82.4335 173.852 85.2743 176.498 90.265Z" fill="#263238"/>
<path d="M210.424 26.0838H220.393C220.665 26.0796 220.926 25.9834 221.124 25.814C221.321 25.6447 221.442 25.4145 221.461 25.1689C221.47 25.0518 221.452 24.9344 221.408 24.824C221.364 24.7135 221.296 24.6125 221.207 24.5272C221.118 24.4419 221.01 24.3741 220.891 24.3282C220.771 24.2823 220.643 24.2591 220.513 24.2603H210.537C210.266 24.2643 210.006 24.3597 209.808 24.5277C209.611 24.6957 209.49 24.9243 209.468 25.1689C209.459 25.2869 209.476 25.4056 209.52 25.5172C209.564 25.6289 209.633 25.731 209.723 25.8171C209.812 25.9033 209.921 25.9715 210.042 26.0174C210.163 26.0633 210.293 26.0859 210.424 26.0838Z" fill="black"/>
<path d="M210.219 29.2252H220.188C220.46 29.221 220.721 29.1248 220.918 28.9555C221.116 28.7861 221.237 28.5559 221.256 28.3103C221.266 28.1927 221.249 28.0746 221.205 27.9634C221.162 27.8522 221.094 27.7504 221.004 27.6644C220.915 27.5783 220.807 27.51 220.687 27.4637C220.568 27.4174 220.438 27.3941 220.308 27.3953H210.339C210.065 27.3979 209.803 27.4934 209.604 27.6629C209.404 27.8324 209.283 28.0635 209.263 28.3103C209.256 28.4279 209.275 28.5458 209.319 28.6566C209.364 28.7673 209.433 28.8687 209.522 28.9544C209.612 29.0401 209.72 29.1084 209.839 29.1549C209.959 29.2015 210.088 29.2254 210.219 29.2252Z" fill="black"/>
<path d="M129.567 29.2252H139.537C139.81 29.2212 140.071 29.1252 140.27 28.9559C140.469 28.7867 140.591 28.5565 140.612 28.3103C140.621 28.1924 140.603 28.0741 140.558 27.9629C140.514 27.8517 140.445 27.75 140.355 27.6641C140.266 27.5782 140.157 27.5099 140.037 27.4637C139.917 27.4174 139.787 27.3942 139.657 27.3953H129.688C129.415 27.398 129.153 27.4938 128.955 27.6634C128.757 27.833 128.637 28.0641 128.619 28.3103C128.611 28.4276 128.629 28.5453 128.672 28.6561C128.716 28.7668 128.785 28.8683 128.873 28.9541C128.962 29.0399 129.07 29.1083 129.189 29.1549C129.309 29.2015 129.437 29.2255 129.567 29.2252Z" fill="black"/>
<path d="M210.014 32.3604H220.004C220.278 32.3578 220.54 32.2623 220.74 32.0928C220.939 31.9233 221.06 31.6922 221.08 31.4455C221.087 31.3278 221.068 31.21 221.024 31.0992C220.979 30.9884 220.91 30.887 220.821 30.8013C220.731 30.7156 220.623 30.6474 220.504 30.6008C220.384 30.5542 220.255 30.5303 220.125 30.5305H210.134C209.861 30.5346 209.6 30.6306 209.401 30.7998C209.202 30.969 209.08 31.1993 209.059 31.4455C209.05 31.5634 209.068 31.6816 209.112 31.7928C209.157 31.904 209.226 32.0057 209.315 32.0917C209.405 32.1776 209.513 32.2458 209.634 32.292C209.754 32.3383 209.883 32.3616 210.014 32.3604Z" fill="black"/>
<path d="M196.91 147.152H136.6C135.473 147.162 134.357 146.96 133.321 146.561C132.285 146.161 131.351 145.572 130.579 144.831C129.807 144.089 129.213 143.211 128.834 142.252C128.455 141.293 128.3 140.273 128.378 139.257C128.548 137.133 129.592 135.144 131.304 133.682C133.016 132.221 135.271 131.392 137.626 131.361H197.935C199.062 131.352 200.178 131.553 201.214 131.952C202.25 132.352 203.184 132.941 203.956 133.683C204.728 134.424 205.322 135.302 205.701 136.261C206.08 137.221 206.235 138.241 206.157 139.257C205.987 141.38 204.943 143.369 203.231 144.831C201.519 146.293 199.264 147.121 196.91 147.152Z" fill="white"/>
<path d="M195.537 168.375H135.22C134.094 168.383 132.978 168.18 131.942 167.78C130.907 167.379 129.974 166.79 129.202 166.048C128.43 165.306 127.836 164.428 127.457 163.469C127.078 162.509 126.922 161.49 126.999 160.474C127.173 158.353 128.219 156.369 129.931 154.911C131.642 153.454 133.895 152.628 136.246 152.597H196.563C197.689 152.588 198.806 152.789 199.842 153.189C200.878 153.588 201.811 154.177 202.584 154.919C203.356 155.66 203.95 156.538 204.329 157.498C204.708 158.457 204.863 159.477 204.785 160.493C204.61 162.614 203.564 164.599 201.853 166.057C200.142 167.516 197.889 168.343 195.537 168.375Z" fill="white"/>
<path d="M194.158 189.592H133.848C132.721 189.602 131.605 189.4 130.569 189.001C129.533 188.601 128.599 188.012 127.827 187.271C127.055 186.529 126.461 185.651 126.082 184.692C125.703 183.732 125.548 182.713 125.626 181.697C125.796 179.572 126.839 177.583 128.551 176.12C130.263 174.657 132.519 173.828 134.874 173.795H195.184C196.31 173.786 197.427 173.988 198.463 174.388C199.499 174.789 200.432 175.378 201.204 176.12C201.976 176.862 202.571 177.741 202.949 178.7C203.328 179.66 203.483 180.68 203.405 181.697C203.235 183.82 202.191 185.809 200.48 187.271C198.768 188.733 196.512 189.561 194.158 189.592Z" fill="white"/>
<path d="M141.285 142.086C143.121 140.474 143.248 137.899 141.569 136.335C139.889 134.77 137.039 134.81 135.203 136.422C133.366 138.035 133.24 140.61 134.919 142.174C136.599 143.738 139.449 143.699 141.285 142.086Z" fill="black"/>
<path d="M137.711 156.628L138.305 158.656C138.339 158.768 138.413 158.866 138.516 158.935C138.618 159.005 138.743 159.042 138.871 159.04H141.227C141.36 159.041 141.489 159.082 141.594 159.155C141.699 159.229 141.774 159.332 141.809 159.448C141.843 159.564 141.835 159.687 141.785 159.798C141.735 159.909 141.646 160.003 141.531 160.064L139.543 161.344C139.43 161.412 139.343 161.51 139.295 161.624C139.247 161.739 139.24 161.865 139.274 161.983L139.869 164.012C139.904 164.128 139.899 164.252 139.854 164.365C139.809 164.479 139.726 164.577 139.617 164.647C139.508 164.717 139.378 164.755 139.245 164.756C139.111 164.756 138.981 164.72 138.871 164.651L137.045 163.372C136.942 163.306 136.818 163.271 136.692 163.271C136.565 163.271 136.442 163.306 136.338 163.372L134.35 164.651C134.246 164.726 134.117 164.768 133.983 164.768C133.85 164.769 133.721 164.729 133.616 164.656C133.51 164.582 133.435 164.478 133.403 164.362C133.371 164.245 133.383 164.122 133.437 164.012L134.293 161.983C134.346 161.873 134.356 161.751 134.323 161.635C134.29 161.519 134.214 161.416 134.109 161.344L132.284 160.064C132.183 159.986 132.112 159.882 132.079 159.765C132.047 159.649 132.055 159.527 132.102 159.415C132.149 159.303 132.233 159.207 132.343 159.14C132.453 159.073 132.583 159.038 132.715 159.04H135.071C135.205 159.04 135.335 159.004 135.445 158.935C135.555 158.866 135.64 158.769 135.687 158.656L136.515 156.628C136.552 156.511 136.631 156.408 136.739 156.335C136.847 156.262 136.978 156.222 137.113 156.222C137.247 156.222 137.379 156.262 137.486 156.335C137.594 156.408 137.673 156.511 137.711 156.628Z" fill="black"/>
<path d="M139.345 179.547L138.97 185.241C138.952 185.48 138.835 185.704 138.642 185.868C138.449 186.031 138.194 186.123 137.93 186.124H132.418C132.296 186.118 132.177 186.089 132.068 186.04C131.958 185.992 131.861 185.923 131.781 185.84C131.701 185.756 131.64 185.659 131.603 185.554C131.565 185.449 131.551 185.338 131.562 185.228L132.022 178.139C132.038 177.9 132.153 177.676 132.345 177.511C132.537 177.346 132.79 177.253 133.055 177.25H137.017L139.345 179.547Z" fill="black"/>
<path d="M136.982 177.262L139.367 179.547H137.817C137.691 179.548 137.566 179.525 137.45 179.481C137.334 179.436 137.23 179.37 137.144 179.287C137.057 179.204 136.991 179.106 136.948 178.999C136.906 178.891 136.889 178.777 136.897 178.664L136.982 177.262ZM136.353 175.695L136.254 177.224L136.162 178.625C136.149 178.829 136.183 179.034 136.259 179.226C136.336 179.418 136.454 179.595 136.607 179.745C136.763 179.893 136.951 180.011 137.159 180.092C137.367 180.172 137.591 180.213 137.817 180.212H141.058L139.897 179.092L137.52 176.808L136.353 175.695Z" fill="white"/>
<path opacity="0.2" d="M194.886 138.418H149.753C149.57 138.42 149.389 138.387 149.221 138.322C149.053 138.257 148.902 138.162 148.776 138.042C148.651 137.922 148.554 137.78 148.492 137.624C148.43 137.469 148.404 137.304 148.416 137.139C148.446 136.794 148.617 136.472 148.895 136.235C149.174 135.999 149.541 135.864 149.923 135.859H195.049C195.232 135.858 195.413 135.891 195.581 135.956C195.749 136.02 195.9 136.116 196.026 136.236C196.151 136.356 196.248 136.498 196.31 136.653C196.372 136.809 196.398 136.974 196.386 137.139C196.358 137.483 196.189 137.805 195.911 138.042C195.634 138.279 195.268 138.413 194.886 138.418Z" fill="black"/>
<path opacity="0.2" d="M186.333 142.667H149.484C149.301 142.668 149.12 142.635 148.952 142.571C148.783 142.506 148.631 142.411 148.505 142.291C148.379 142.171 148.282 142.029 148.219 141.873C148.156 141.718 148.129 141.553 148.14 141.387C148.17 141.043 148.341 140.721 148.62 140.484C148.898 140.247 149.265 140.113 149.647 140.108H186.495C186.679 140.106 186.86 140.138 187.029 140.202C187.198 140.267 187.35 140.362 187.476 140.482C187.603 140.602 187.7 140.745 187.763 140.9C187.825 141.056 187.851 141.222 187.84 141.387C187.808 141.732 187.637 142.053 187.358 142.289C187.08 142.526 186.714 142.66 186.333 142.667Z" fill="black"/>
<path opacity="0.2" d="M193.401 161.312H180.948C180.565 161.315 180.198 161.449 179.919 161.686C179.64 161.923 179.47 162.246 179.441 162.591C179.43 162.756 179.456 162.921 179.518 163.077C179.58 163.232 179.676 163.374 179.802 163.494C179.927 163.614 180.079 163.71 180.247 163.774C180.415 163.839 180.596 163.872 180.778 163.871H193.231C193.614 163.867 193.981 163.733 194.26 163.496C194.539 163.259 194.71 162.936 194.738 162.591C194.75 162.426 194.724 162.261 194.662 162.106C194.6 161.95 194.503 161.808 194.377 161.688C194.252 161.568 194.1 161.473 193.932 161.408C193.764 161.343 193.583 161.31 193.401 161.312Z" fill="black"/>
<path opacity="0.2" d="M173.667 161.312H148.274C147.891 161.315 147.524 161.449 147.245 161.686C146.966 161.923 146.795 162.246 146.767 162.591C146.754 162.756 146.779 162.922 146.841 163.078C146.903 163.234 146.999 163.376 147.125 163.496C147.251 163.617 147.403 163.712 147.571 163.776C147.74 163.841 147.921 163.873 148.104 163.871H173.504C173.887 163.866 174.253 163.732 174.532 163.495C174.811 163.258 174.982 162.936 175.012 162.591C175.023 162.426 174.997 162.26 174.935 162.104C174.872 161.949 174.775 161.806 174.648 161.686C174.522 161.566 174.37 161.47 174.201 161.406C174.032 161.342 173.85 161.31 173.667 161.312Z" fill="black"/>
<path opacity="0.2" d="M185.398 157.076H148.543C148.16 157.08 147.793 157.213 147.514 157.45C147.235 157.687 147.064 158.01 147.036 158.356C147.024 158.52 147.05 158.686 147.112 158.841C147.174 158.996 147.271 159.139 147.397 159.259C147.522 159.379 147.674 159.474 147.842 159.539C148.01 159.604 148.191 159.636 148.373 159.635H185.221C185.604 159.63 185.97 159.496 186.249 159.259C186.527 159.022 186.699 158.7 186.728 158.356C186.74 158.191 186.714 158.027 186.653 157.872C186.591 157.717 186.495 157.575 186.37 157.455C186.245 157.335 186.095 157.239 185.928 157.174C185.761 157.109 185.58 157.076 185.398 157.076Z" fill="black"/>
<path opacity="0.2" d="M192.021 182.528H146.895C146.513 182.535 146.147 182.67 145.869 182.906C145.59 183.142 145.419 183.464 145.387 183.808C145.376 183.973 145.402 184.139 145.464 184.295C145.527 184.451 145.624 184.593 145.751 184.713C145.877 184.834 146.029 184.929 146.198 184.993C146.367 185.058 146.549 185.09 146.732 185.088H191.858C192.24 185.082 192.605 184.948 192.883 184.711C193.16 184.474 193.33 184.152 193.358 183.808C193.37 183.643 193.344 183.478 193.282 183.323C193.22 183.167 193.123 183.025 192.997 182.905C192.872 182.785 192.721 182.69 192.553 182.625C192.385 182.56 192.204 182.527 192.021 182.528Z" fill="black"/>
<path opacity="0.2" d="M184.019 178.286H147.171C146.789 178.291 146.422 178.426 146.144 178.662C145.865 178.899 145.694 179.221 145.664 179.566C145.652 179.731 145.678 179.896 145.74 180.051C145.802 180.207 145.899 180.349 146.025 180.469C146.15 180.589 146.301 180.684 146.469 180.749C146.637 180.814 146.818 180.847 147.001 180.845H183.856C184.238 180.84 184.603 180.706 184.881 180.469C185.159 180.232 185.328 179.91 185.356 179.566C185.368 179.401 185.342 179.236 185.28 179.08C185.218 178.925 185.121 178.783 184.996 178.663C184.87 178.543 184.719 178.447 184.551 178.383C184.383 178.318 184.202 178.285 184.019 178.286Z" fill="black"/>
<path d="M180.769 118H146.231C144.999 118 144 119.012 144 120.261V140.739C144 141.988 144.999 143 146.231 143H180.769C182.001 143 183 141.988 183 140.739V120.261C183 119.012 182.001 118 180.769 118Z" fill="#263238"/>
<path d="M180.769 116H146.231C144.999 116 144 116.972 144 118.17V137.83C144 139.028 144.999 140 146.231 140H180.769C182.001 140 183 139.028 183 137.83V118.17C183 116.972 182.001 116 180.769 116Z" fill="black"/>
<path d="M177.693 116L163.815 107.643L150.312 116L150 115.55L163.81 107L178 115.55L177.693 116Z" fill="black"/>
<path d="M148.459 128.092C148.483 127.548 148.685 127.023 149.04 126.585C149.394 126.146 149.883 125.814 150.446 125.632C151.008 125.449 151.618 125.424 152.196 125.56C152.774 125.696 153.294 125.987 153.69 126.394L152.876 127.077C152.707 126.893 152.496 126.746 152.259 126.645C152.021 126.544 151.762 126.492 151.499 126.493C151.034 126.493 150.588 126.661 150.259 126.961C149.93 127.261 149.746 127.668 149.746 128.092C149.746 128.516 149.93 128.923 150.259 129.223C150.588 129.523 151.034 129.691 151.499 129.691C151.763 129.694 152.023 129.643 152.262 129.541C152.5 129.439 152.71 129.288 152.876 129.102L153.69 129.784C153.294 130.191 152.775 130.482 152.197 130.618C151.62 130.754 151.011 130.729 150.448 130.548C149.886 130.366 149.396 130.035 149.042 129.597C148.687 129.16 148.484 128.635 148.459 128.092Z" fill="#E6E6E6"/>
<path d="M153.689 125.474H154.929V129.722H157.612V130.705H153.689V125.474Z" fill="#E6E6E6"/>
<path d="M157.617 128.223C157.583 127.701 157.745 127.183 158.083 126.736C158.421 126.289 158.919 125.933 159.513 125.714C160.106 125.495 160.768 125.424 161.413 125.509C162.058 125.594 162.656 125.831 163.131 126.191C163.605 126.55 163.934 127.015 164.074 127.525C164.215 128.036 164.161 128.568 163.919 129.054C163.677 129.539 163.259 129.956 162.719 130.249C162.178 130.543 161.54 130.7 160.886 130.701C160.465 130.719 160.044 130.669 159.648 130.553C159.252 130.437 158.89 130.257 158.584 130.025C158.278 129.793 158.034 129.514 157.868 129.204C157.702 128.894 157.616 128.56 157.617 128.223ZM162.769 128.223C162.761 127.928 162.645 127.641 162.434 127.399C162.223 127.156 161.927 126.969 161.584 126.86C161.24 126.751 160.864 126.726 160.503 126.787C160.142 126.849 159.811 126.994 159.552 127.205C159.294 127.416 159.119 127.683 159.05 127.973C158.98 128.263 159.02 128.563 159.163 128.836C159.306 129.108 159.546 129.34 159.854 129.504C160.162 129.667 160.523 129.755 160.892 129.755C161.144 129.761 161.395 129.725 161.629 129.65C161.862 129.575 162.074 129.461 162.25 129.318C162.427 129.174 162.564 129.002 162.653 128.814C162.742 128.626 162.782 128.424 162.769 128.223Z" fill="#E6E6E6"/>
<path d="M164.151 130.132L164.523 129.245C164.975 129.594 165.515 129.787 166.072 129.799C166.722 129.799 166.985 129.566 166.985 129.245C166.985 128.291 164.234 128.945 164.234 127.06C164.234 126.195 164.884 125.474 166.226 125.474C166.801 125.463 167.368 125.618 167.868 125.924L167.532 126.816C167.134 126.565 166.683 126.427 166.221 126.417C165.571 126.417 165.323 126.683 165.323 126.971C165.323 127.909 168.074 127.26 168.074 129.128C168.074 129.977 167.419 130.703 166.066 130.703C165.389 130.724 164.722 130.525 164.151 130.132Z" fill="#E6E6E6"/>
<path d="M173.305 129.734V130.705H169.382V125.474H173.211V126.445H170.544V127.587H172.901V128.529H170.544V129.74L173.305 129.734Z" fill="#E6E6E6"/>
<path d="M174.612 125.474H176.988C178.701 125.474 179.843 126.507 179.843 128.089C179.843 129.671 178.701 130.705 176.988 130.705H174.612V125.474ZM176.925 129.711C177.149 129.73 177.375 129.702 177.588 129.629C177.801 129.556 177.997 129.44 178.163 129.287C178.329 129.135 178.461 128.95 178.551 128.743C178.642 128.537 178.689 128.314 178.689 128.089C178.689 127.864 178.642 127.641 178.551 127.435C178.461 127.229 178.329 127.044 178.163 126.891C177.997 126.739 177.801 126.622 177.588 126.55C177.375 126.477 177.149 126.449 176.925 126.467H175.823V129.711H176.925Z" fill="#E6E6E6"/>
</g>
</svg>
