<svg width="101" height="100" viewBox="0 0 101 100" fill="none" xmlns="http://www.w3.org/2000/svg">
<g clip-path="url(#clip0_777_11477)">
<path d="M16.125 87.5001C15.2962 87.5001 14.5013 87.1708 13.9153 86.5848C13.3292 85.9987 13 85.2039 13 84.3751V78.1251C13.0016 77.5924 13.1394 77.0689 13.4002 76.6044C13.661 76.14 14.0363 75.7499 14.4903 75.4712C14.9443 75.1925 15.462 75.0346 15.9942 75.0123C16.5264 74.99 17.0555 75.1041 17.5312 75.3438L23.7812 78.4688C24.2931 78.7311 24.7227 79.1295 25.0227 79.6202C25.3226 80.1109 25.4814 80.6749 25.4814 81.2501C25.4814 81.8252 25.3226 82.3892 25.0227 82.8799C24.7227 83.3706 24.2931 83.7691 23.7812 84.0313C16.9062 87.5001 17.0937 87.5001 16.125 87.5001Z" fill="#EF1686"/>
<path d="M47.375 84.375H34.875C34.0462 84.375 33.2513 84.0458 32.6653 83.4597C32.0792 82.8737 31.75 82.0788 31.75 81.25C31.75 80.4212 32.0792 79.6263 32.6653 79.0403C33.2513 78.4542 34.0462 78.125 34.875 78.125H47.375C48.2038 78.125 48.9987 78.4542 49.5847 79.0403C50.1708 79.6263 50.5 80.4212 50.5 81.25C50.5 82.0788 50.1708 82.8737 49.5847 83.4597C48.9987 84.0458 48.2038 84.375 47.375 84.375Z" fill="#EF1686"/>
<path d="M47.375 87.5C46.5462 87.5 45.7513 87.1708 45.1653 86.5847C44.5792 85.9987 44.25 85.2038 44.25 84.375V78.125C44.25 77.2962 44.5792 76.5013 45.1653 75.9153C45.7513 75.3292 46.5462 75 47.375 75C48.2038 75 48.9987 75.3292 49.5847 75.9153C50.1708 76.5013 50.5 77.2962 50.5 78.125V84.375C50.5 85.2038 50.1708 85.9987 49.5847 86.5847C48.9987 87.1708 48.2038 87.5 47.375 87.5Z" fill="#EF1686"/>
<path d="M84.875 84.375H59.875C59.0462 84.375 58.2513 84.0458 57.6653 83.4597C57.0792 82.8737 56.75 82.0788 56.75 81.25C56.75 80.4212 57.0792 79.6263 57.6653 79.0403C58.2513 78.4542 59.0462 78.125 59.875 78.125H84.875C85.7038 78.125 86.4987 78.4542 87.0847 79.0403C87.6708 79.6263 88 80.4212 88 81.25C88 82.0788 87.6708 82.8737 87.0847 83.4597C86.4987 84.0458 85.7038 84.375 84.875 84.375Z" fill="#EF1686"/>
<path d="M97.375 56.25C98.2038 56.25 98.9987 55.9208 99.5847 55.3347C100.171 54.7487 100.5 53.9538 100.5 53.125V9.375C100.5 6.8886 99.5123 4.50403 97.7541 2.74587C95.996 0.98772 93.6114 0 91.125 0L9.875 0C7.3886 0 5.00403 0.98772 3.24587 2.74587C1.48772 4.50403 0.5 6.8886 0.5 9.375L0.5 90.625C0.5 93.1114 1.48772 95.496 3.24587 97.2541C5.00403 99.0123 7.3886 100 9.875 100H91.125C93.6114 100 95.996 99.0123 97.7541 97.2541C99.5123 95.496 100.5 93.1114 100.5 90.625V65.625C100.5 64.7962 100.171 64.0013 99.5847 63.4153C98.9987 62.8292 98.2038 62.5 97.375 62.5H6.75V9.375C6.75 8.5462 7.07924 7.75134 7.66529 7.16529C8.25134 6.57924 9.0462 6.25 9.875 6.25H91.125C91.9538 6.25 92.7487 6.57924 93.3347 7.16529C93.9208 7.75134 94.25 8.5462 94.25 9.375V53.125C94.25 53.9538 94.5792 54.7487 95.1653 55.3347C95.7513 55.9208 96.5462 56.25 97.375 56.25ZM94.25 68.75V90.625C94.25 91.4538 93.9208 92.2487 93.3347 92.8347C92.7487 93.4208 91.9538 93.75 91.125 93.75H9.875C9.0462 93.75 8.25134 93.4208 7.66529 92.8347C7.07924 92.2487 6.75 91.4538 6.75 90.625V68.75H94.25Z" fill="#2A2A2A"/>
<path d="M34.875 50H28.625C26.9674 50 25.3777 49.3415 24.2056 48.1694C23.0335 46.9973 22.375 45.4076 22.375 43.75V25C22.375 23.3424 23.0335 21.7527 24.2056 20.5806C25.3777 19.4085 26.9674 18.75 28.625 18.75H34.875C36.5326 18.75 38.1223 19.4085 39.2944 20.5806C40.4665 21.7527 41.125 23.3424 41.125 25V43.75C41.125 45.4076 40.4665 46.9973 39.2944 48.1694C38.1223 49.3415 36.5326 50 34.875 50ZM28.625 25V43.75H34.875V25H28.625Z" fill="#EF1686"/>
<path d="M72.375 50H66.125C64.4674 50 62.8777 49.3415 61.7056 48.1694C60.5335 46.9973 59.875 45.4076 59.875 43.75V25C59.875 23.3424 60.5335 21.7527 61.7056 20.5806C62.8777 19.4085 64.4674 18.75 66.125 18.75H72.375C74.0326 18.75 75.6223 19.4085 76.7944 20.5806C77.9665 21.7527 78.625 23.3424 78.625 25V43.75C78.625 45.4076 77.9665 46.9973 76.7944 48.1694C75.6223 49.3415 74.0326 50 72.375 50ZM66.125 25V43.75H72.375V25H66.125Z" fill="#EF1686"/>
<path d="M63 37.5H38C37.1712 37.5 36.3763 37.1708 35.7903 36.5847C35.2042 35.9987 34.875 35.2038 34.875 34.375C34.875 33.5462 35.2042 32.7513 35.7903 32.1653C36.3763 31.5792 37.1712 31.25 38 31.25H63C63.8288 31.25 64.6237 31.5792 65.2097 32.1653C65.7958 32.7513 66.125 33.5462 66.125 34.375C66.125 35.2038 65.7958 35.9987 65.2097 36.5847C64.6237 37.1708 63.8288 37.5 63 37.5Z" fill="#EF1686"/>
<path d="M25.5 37.5H19.25C18.4212 37.5 17.6263 37.1708 17.0403 36.5847C16.4542 35.9987 16.125 35.2038 16.125 34.375C16.125 33.5462 16.4542 32.7513 17.0403 32.1653C17.6263 31.5792 18.4212 31.25 19.25 31.25H25.5C26.3288 31.25 27.1237 31.5792 27.7097 32.1653C28.2958 32.7513 28.625 33.5462 28.625 34.375C28.625 35.2038 28.2958 35.9987 27.7097 36.5847C27.1237 37.1708 26.3288 37.5 25.5 37.5Z" fill="#EF1686"/>
<path d="M81.75 37.5H75.5C74.6712 37.5 73.8763 37.1708 73.2903 36.5847C72.7042 35.9987 72.375 35.2038 72.375 34.375C72.375 33.5462 72.7042 32.7513 73.2903 32.1653C73.8763 31.5792 74.6712 31.25 75.5 31.25H81.75C82.5788 31.25 83.3737 31.5792 83.9597 32.1653C84.5458 32.7513 84.875 33.5462 84.875 34.375C84.875 35.2038 84.5458 35.9987 83.9597 36.5847C83.3737 37.1708 82.5788 37.5 81.75 37.5Z" fill="#EF1686"/>
</g>
<defs>
<clipPath id="clip0_777_11477">
<rect width="100" height="100" fill="white" transform="translate(0.5)"/>
</clipPath>
</defs>
</svg>
