<svg width="101" height="100" viewBox="0 0 101 100" fill="none" xmlns="http://www.w3.org/2000/svg">
<g clip-path="url(#clip0_2139_12741)">
<path d="M97.375 81.25H94.25V75C94.25 73.3424 93.5915 71.7527 92.4194 70.5806C91.2473 69.4085 89.6576 68.75 88 68.75H81.75C80.0924 68.75 78.5027 69.4085 77.3306 70.5806C76.1585 71.7527 75.5 73.3424 75.5 75V81.25H56.75V75C56.75 73.3424 56.0915 71.7527 54.9194 70.5806C53.7473 69.4085 52.1576 68.75 50.5 68.75H44.25C42.5924 68.75 41.0027 69.4085 39.8306 70.5806C38.6585 71.7527 38 73.3424 38 75V81.25H34.875C34.0462 81.25 33.2513 81.5792 32.6653 82.1653C32.0792 82.7513 31.75 83.5462 31.75 84.375C31.75 85.2038 32.0792 85.9987 32.6653 86.5847C33.2513 87.1708 34.0462 87.5 34.875 87.5H38V93.75C38 95.4076 38.6585 96.9973 39.8306 98.1694C41.0027 99.3415 42.5924 100 44.25 100H50.5C52.1576 100 53.7473 99.3415 54.9194 98.1694C56.0915 96.9973 56.75 95.4076 56.75 93.75V87.5H75.5V93.75C75.5 95.4076 76.1585 96.9973 77.3306 98.1694C78.5027 99.3415 80.0924 100 81.75 100H88C89.6576 100 91.2473 99.3415 92.4194 98.1694C93.5915 96.9973 94.25 95.4076 94.25 93.75V87.5H97.375C98.2038 87.5 98.9987 87.1708 99.5847 86.5847C100.171 85.9987 100.5 85.2038 100.5 84.375C100.5 83.5462 100.171 82.7513 99.5847 82.1653C98.9987 81.5792 98.2038 81.25 97.375 81.25ZM44.25 93.75V75H50.5V93.75H44.25ZM81.75 93.75V75H88V93.75H81.75Z" fill="#EF1686"/>
<path d="M59.875 6.25H50.5C50.5 4.5924 49.8415 3.00269 48.6694 1.83058C47.4973 0.65848 45.9076 0 44.25 0L25.5 0C23.8424 0 22.2527 0.65848 21.0806 1.83058C19.9085 3.00269 19.25 4.5924 19.25 6.25H9.875C7.3886 6.25 5.00403 7.23772 3.24587 8.99587C1.48772 10.754 0.5 13.1386 0.5 15.625L0.5 84.375C0.5 86.8614 1.48772 89.246 3.24587 91.0041C5.00403 92.7623 7.3886 93.75 9.875 93.75H25.5C26.3288 93.75 27.1237 93.4208 27.7097 92.8347C28.2958 92.2487 28.625 91.4538 28.625 90.625C28.625 89.7962 28.2958 89.0013 27.7097 88.4153C27.1237 87.8292 26.3288 87.5 25.5 87.5H9.875C9.0462 87.5 8.25134 87.1708 7.66529 86.5847C7.07924 85.9987 6.75 85.2038 6.75 84.375V15.625C6.75 14.7962 7.07924 14.0013 7.66529 13.4153C8.25134 12.8292 9.0462 12.5 9.875 12.5H19.25C19.25 14.1576 19.9085 15.7473 21.0806 16.9194C22.2527 18.0915 23.8424 18.75 25.5 18.75H44.25C45.9076 18.75 47.4973 18.0915 48.6694 16.9194C49.8415 15.7473 50.5 14.1576 50.5 12.5H59.875C60.7038 12.5 61.4987 12.8292 62.0847 13.4153C62.6708 14.0013 63 14.7962 63 15.625V71.875C63 72.7038 63.3292 73.4987 63.9153 74.0847C64.5013 74.6708 65.2962 75 66.125 75C66.9538 75 67.7487 74.6708 68.3347 74.0847C68.9208 73.4987 69.25 72.7038 69.25 71.875V15.625C69.25 13.1386 68.2623 10.754 66.5041 8.99587C64.746 7.23772 62.3614 6.25 59.875 6.25ZM25.5 12.5V6.25H44.25V12.5H25.5Z" fill="black"/>
<path d="M53.625 34.375H28.625C27.7962 34.375 27.0013 34.0458 26.4153 33.4597C25.8292 32.8737 25.5 32.0788 25.5 31.25C25.5 30.4212 25.8292 29.6263 26.4153 29.0403C27.0013 28.4542 27.7962 28.125 28.625 28.125H53.625C54.4538 28.125 55.2487 28.4542 55.8347 29.0403C56.4208 29.6263 56.75 30.4212 56.75 31.25C56.75 32.0788 56.4208 32.8737 55.8347 33.4597C55.2487 34.0458 54.4538 34.375 53.625 34.375Z" fill="#EF1686"/>
<path d="M53.625 46.875H28.625C27.7962 46.875 27.0013 46.5458 26.4153 45.9597C25.8292 45.3737 25.5 44.5788 25.5 43.75C25.5 42.9212 25.8292 42.1263 26.4153 41.5403C27.0013 40.9542 27.7962 40.625 28.625 40.625H53.625C54.4538 40.625 55.2487 40.9542 55.8347 41.5403C56.4208 42.1263 56.75 42.9212 56.75 43.75C56.75 44.5788 56.4208 45.3737 55.8347 45.9597C55.2487 46.5458 54.4538 46.875 53.625 46.875Z" fill="#EF1686"/>
<path d="M53.625 59.375H28.625C27.7962 59.375 27.0013 59.0458 26.4153 58.4597C25.8292 57.8737 25.5 57.0788 25.5 56.25C25.5 55.4212 25.8292 54.6263 26.4153 54.0403C27.0013 53.4542 27.7962 53.125 28.625 53.125H53.625C54.4538 53.125 55.2487 53.4542 55.8347 54.0403C56.4208 54.6263 56.75 55.4212 56.75 56.25C56.75 57.0788 56.4208 57.8737 55.8347 58.4597C55.2487 59.0458 54.4538 59.375 53.625 59.375Z" fill="#EF1686"/>
<path d="M16.125 34.375C15.5069 34.375 14.9027 34.1917 14.3888 33.8483C13.8749 33.505 13.4744 33.0169 13.2379 32.4459C13.0014 31.8749 12.9395 31.2465 13.06 30.6403C13.1806 30.0342 13.4783 29.4773 13.9153 29.0403C14.3523 28.6033 14.9092 28.3056 15.5153 28.185C16.1215 28.0645 16.7499 28.1264 17.3209 28.3629C17.8919 28.5994 18.38 28.9999 18.7233 29.5138C19.0667 30.0277 19.25 30.6319 19.25 31.25C19.25 32.0788 18.9208 32.8737 18.3347 33.4597C17.7487 34.0458 16.9538 34.375 16.125 34.375Z" fill="#EF1686"/>
<path d="M16.125 46.875C15.5069 46.875 14.9027 46.6917 14.3888 46.3483C13.8749 46.005 13.4744 45.5169 13.2379 44.9459C13.0014 44.3749 12.9395 43.7465 13.06 43.1403C13.1806 42.5342 13.4783 41.9773 13.9153 41.5403C14.3523 41.1033 14.9092 40.8056 15.5153 40.685C16.1215 40.5645 16.7499 40.6264 17.3209 40.8629C17.8919 41.0994 18.38 41.4999 18.7233 42.0138C19.0667 42.5277 19.25 43.1319 19.25 43.75C19.25 44.5788 18.9208 45.3737 18.3347 45.9597C17.7487 46.5458 16.9538 46.875 16.125 46.875Z" fill="#EF1686"/>
<path d="M16.125 59.375C15.5069 59.375 14.9027 59.1917 14.3888 58.8483C13.8749 58.505 13.4744 58.0169 13.2379 57.4459C13.0014 56.8749 12.9395 56.2465 13.06 55.6403C13.1806 55.0342 13.4783 54.4773 13.9153 54.0403C14.3523 53.6033 14.9092 53.3056 15.5153 53.185C16.1215 53.0645 16.7499 53.1264 17.3209 53.3629C17.8919 53.5994 18.38 53.9999 18.7233 54.5138C19.0667 55.0277 19.25 55.6319 19.25 56.25C19.25 57.0788 18.9208 57.8737 18.3347 58.4597C17.7487 59.0458 16.9538 59.375 16.125 59.375Z" fill="#EF1686"/>
</g>
<defs>
<clipPath id="clip0_2139_12741">
<rect width="100" height="100" fill="white" transform="translate(0.5)"/>
</clipPath>
</defs>
</svg>
