<svg width="101" height="100" viewBox="0 0 101 100" fill="none" xmlns="http://www.w3.org/2000/svg">
<g clip-path="url(#clip0_799_11267)">
<path d="M69.25 100C63.4484 100 57.8844 97.6953 53.782 93.593C49.6797 89.4906 47.375 83.9266 47.375 78.125V21.875C47.375 17.731 45.7288 13.7567 42.7985 10.8265C39.8683 7.8962 35.894 6.25 31.75 6.25C27.606 6.25 23.6317 7.8962 20.7015 10.8265C17.7712 13.7567 16.125 17.731 16.125 21.875V59.375C16.125 60.2038 15.7958 60.9987 15.2097 61.5847C14.6237 62.1708 13.8288 62.5 13 62.5C12.1712 62.5 11.3763 62.1708 10.7903 61.5847C10.2042 60.9987 9.875 60.2038 9.875 59.375V21.875C9.875 16.0734 12.1797 10.5094 16.282 6.40704C20.3844 2.30468 25.9484 0 31.75 0C37.5516 0 43.1156 2.30468 47.218 6.40704C51.3203 10.5094 53.625 16.0734 53.625 21.875V78.125C53.625 82.269 55.2712 86.2433 58.2015 89.1735C61.1317 92.1038 65.106 93.75 69.25 93.75C73.394 93.75 77.3683 92.1038 80.2985 89.1735C83.2288 86.2433 84.875 82.269 84.875 78.125V40.625C84.875 39.7962 85.2042 39.0013 85.7903 38.4153C86.3763 37.8292 87.1712 37.5 88 37.5C88.8288 37.5 89.6237 37.8292 90.2097 38.4153C90.7958 39.0013 91.125 39.7962 91.125 40.625V78.125C91.125 83.9266 88.8203 89.4906 84.718 93.593C80.6156 97.6953 75.0516 100 69.25 100Z" fill="#EF1686"/>
<path d="M19.25 56.25H6.75C5.0924 56.25 3.50269 56.9085 2.33058 58.0806C1.15848 59.2527 0.5 60.8424 0.5 62.5L0.5 68.75C0.5 70.4076 1.15848 71.9973 2.33058 73.1694C3.50269 74.3415 5.0924 75 6.75 75H16.125V90.625C16.125 91.4538 15.7958 92.2487 15.2097 92.8347C14.6237 93.4208 13.8288 93.75 13 93.75C12.1712 93.75 11.3763 93.4208 10.7903 92.8347C10.2042 92.2487 9.875 91.4538 9.875 90.625V84.375C9.875 83.5462 9.54576 82.7513 8.95971 82.1653C8.37366 81.5792 7.5788 81.25 6.75 81.25C5.9212 81.25 5.12634 81.5792 4.54029 82.1653C3.95424 82.7513 3.625 83.5462 3.625 84.375V90.625C3.625 93.1114 4.61272 95.496 6.37087 97.2541C8.12903 99.0123 10.5136 100 13 100C15.4864 100 17.871 99.0123 19.6291 97.2541C21.3873 95.496 22.375 93.1114 22.375 90.625V74.125C23.3196 73.5797 24.1051 72.7966 24.6533 71.8537C25.2015 70.9107 25.4934 69.8407 25.5 68.75V62.5C25.5 60.8424 24.8415 59.2527 23.6694 58.0806C22.4973 56.9085 20.9076 56.25 19.25 56.25ZM6.75 68.75V62.5H19.25V68.75H6.75Z" fill="black"/>
<path d="M97.375 25.875V9.375C97.375 6.8886 96.3873 4.50403 94.6291 2.74587C92.871 0.98772 90.4864 0 88 0C85.5136 0 83.129 0.98772 81.3709 2.74587C79.6127 4.50403 78.625 6.8886 78.625 9.375V25.875C77.6804 26.4203 76.8949 27.2034 76.3467 28.1463C75.7985 29.0893 75.5066 30.1593 75.5 31.25V37.5C75.5 39.1576 76.1585 40.7473 77.3306 41.9194C78.5027 43.0915 80.0924 43.75 81.75 43.75H94.25C95.9076 43.75 97.4973 43.0915 98.6694 41.9194C99.8415 40.7473 100.5 39.1576 100.5 37.5V31.25C100.493 30.1593 100.202 29.0893 99.6533 28.1463C99.1051 27.2034 98.3196 26.4203 97.375 25.875ZM84.875 9.375C84.875 8.5462 85.2042 7.75134 85.7903 7.16529C86.3763 6.57924 87.1712 6.25 88 6.25C88.8288 6.25 89.6237 6.57924 90.2097 7.16529C90.7958 7.75134 91.125 8.5462 91.125 9.375V25H84.875V9.375ZM94.25 37.5H81.75V31.25H94.25V37.5Z" fill="black"/>
</g>
<defs>
<clipPath id="clip0_799_11267">
<rect width="100" height="100" fill="white" transform="translate(0.5)"/>
</clipPath>
</defs>
</svg>
