<svg width="101" height="100" viewBox="0 0 101 100" fill="none" xmlns="http://www.w3.org/2000/svg">
<g clip-path="url(#clip0_3018_22213)">
<path d="M91.125 31.2504C90.2962 31.2504 89.5013 30.9212 88.9153 30.3351C88.3292 29.7491 88 28.9542 88 28.1254V8.65668L78.625 14.2817V18.7504C78.625 19.5792 78.2958 20.3741 77.7097 20.9601C77.1237 21.5462 76.3288 21.8754 75.5 21.8754C74.6712 21.8754 73.8763 21.5462 73.2903 20.9601C72.7042 20.3741 72.375 19.5792 72.375 18.7504V14.2817C72.3816 13.191 72.6735 12.121 73.2217 11.178C73.7699 10.2351 74.5554 9.45203 75.5 8.90668L89.5312 0.437932C90.0057 0.156628 90.5462 0.00591268 91.0977 0.00109576C91.6493 -0.00372115 92.1923 0.137532 92.6716 0.410506C93.1509 0.68348 93.5494 1.07845 93.8266 1.55529C94.1038 2.03213 94.2499 2.57386 94.25 3.12543V28.1254C94.25 28.9542 93.9208 29.7491 93.3347 30.3351C92.7487 30.9212 91.9538 31.2504 91.125 31.2504Z" fill="black"/>
<path d="M81.75 84.375C81.1319 84.375 80.5277 84.1917 80.0138 83.8483C79.4999 83.505 79.0994 83.0169 78.8629 82.4459C78.6264 81.8749 78.5645 81.2465 78.685 80.6403C78.8056 80.0342 79.1033 79.4773 79.5403 79.0403C79.9773 78.6033 80.5342 78.3056 81.1403 78.185C81.7465 78.0645 82.3749 78.1264 82.9459 78.3629C83.5169 78.5994 84.005 78.9999 84.3483 79.5138C84.6917 80.0277 84.875 80.6319 84.875 81.25C84.875 82.0788 84.5458 82.8737 83.9597 83.4597C83.3737 84.0458 82.5788 84.375 81.75 84.375Z" fill="black"/>
<path d="M94.25 50V31.25C94.25 27.106 92.6038 23.1317 89.6736 20.2015C86.7433 17.2712 82.769 15.625 78.625 15.625H59.875C59.0462 15.625 58.2514 15.9542 57.6653 16.5403C57.0793 17.1263 56.75 17.9212 56.75 18.75C56.75 19.5788 57.0793 20.3737 57.6653 20.9597C58.2514 21.5458 59.0462 21.875 59.875 21.875H78.625C81.1114 21.875 83.496 22.8627 85.2542 24.6209C87.0123 26.379 88 28.7636 88 31.25V50C86.3424 50 84.7527 50.6585 83.5806 51.8306C82.4085 53.0027 81.75 54.5924 81.75 56.25V62.5C80.5625 62.5 85.2813 62.0938 15.75 68.75C11.606 68.7997 7.65149 70.4936 4.7564 73.459C1.86131 76.4245 0.2628 80.4185 0.312528 84.5625C0.362256 88.7065 2.05615 92.661 5.02157 95.5561C7.98699 98.4512 11.981 100.05 16.125 100H25.5C26.3288 100 27.1237 99.6708 27.7097 99.0847C28.2958 98.4987 28.625 97.7038 28.625 96.875C28.625 96.0462 28.2958 95.2513 27.7097 94.6653C27.1237 94.0792 26.3288 93.75 25.5 93.75H16.125C13.6386 93.75 11.2541 92.7623 9.4959 91.0041C7.73775 89.246 6.75003 86.8614 6.75003 84.375C6.75003 81.8886 7.73775 79.504 9.4959 77.7459C11.2541 75.9877 13.6386 75 16.125 75C85.3125 68.375 81 68.75 81.75 68.75C85.0652 68.75 88.2447 70.067 90.5889 72.4112C92.9331 74.7554 94.25 77.9348 94.25 81.25C94.25 84.5652 92.9331 87.7446 90.5889 90.0888C88.2447 92.433 85.0652 93.75 81.75 93.75H38C37.1712 93.75 36.3764 94.0792 35.7903 94.6653C35.2043 95.2513 34.875 96.0462 34.875 96.875C34.875 97.7038 35.2043 98.4987 35.7903 99.0847C36.3764 99.6708 37.1712 100 38 100H81.75C86.7228 100 91.492 98.0246 95.0083 94.5083C98.5246 90.992 100.5 86.2228 100.5 81.25V56.25C100.5 54.5924 99.8415 53.0027 98.6694 51.8306C97.4973 50.6585 95.9076 50 94.25 50ZM88 63.5938V56.25H94.25V67.3125C92.4358 65.6682 90.3107 64.4038 88 63.5938Z" fill="#EF1686"/>
<path d="M19.25 87.5C18.6319 87.5 18.0277 87.3167 17.5138 86.9733C16.9999 86.63 16.5994 86.1419 16.3629 85.5709C16.1264 84.9999 16.0645 84.3715 16.185 83.7653C16.3056 83.1592 16.6033 82.6023 17.0403 82.1653C17.4773 81.7283 18.0342 81.4306 18.6403 81.31C19.2465 81.1895 19.8749 81.2514 20.4459 81.4879C21.0169 81.7244 21.505 82.1249 21.8483 82.6388C22.1917 83.1527 22.375 83.7569 22.375 84.375C22.375 85.2038 22.0458 85.9987 21.4597 86.5847C20.8737 87.1708 20.0788 87.5 19.25 87.5Z" fill="black"/>
</g>
<defs>
<clipPath id="clip0_3018_22213">
<rect width="100" height="100" fill="white" transform="translate(0.5)"/>
</clipPath>
</defs>
</svg>
